M48
; DRILL file {KiCad (5.1.4-0-10_14)} date 2022 April 12, Tuesday 01:14:09
; FORMAT={-:-/ absolute / metric / decimal}
; #@! TF.CreationDate,2022-04-12T01:14:09-04:00
; #@! TF.GenerationSoftware,Kicad,Pcbnew,(5.1.4-0-10_14)
; #@! TF.FileFunction,NonPlated,1,2,NPTH
FMAT,2
METRIC
T1C1.750
T2C3.048
T3C3.988
%
G90
G05
T1
X235.224Y-131.064
X112.102Y-109.77
X134.605Y-91.855
X352.256Y-53.365
X362.262Y-51.601
X161.347Y-121.657
X170.146Y-126.737
X171.258Y-103.395
X181.264Y-105.16
X91.779Y-115.325
X101.785Y-117.09
X98.395Y-77.804
X108.401Y-79.568
X230.144Y-122.265
X122.026Y-53.488
X132.032Y-55.253
X152.932Y-97.625
X162.937Y-99.39
X115.41Y-91.009
X125.416Y-92.774
X78.252Y-54.909
X88.258Y-56.673
X233.874Y-67.639
X243.88Y-65.874
X186.529Y-131.064
X191.609Y-122.265
X310.045Y-60.808
X320.051Y-59.044
X95.087Y-96.565
X105.093Y-98.329
X118.718Y-72.249
X313.353Y-79.568
X323.359Y-77.804
X319.969Y-117.09
X329.975Y-115.325
X252.2Y-61.869
X262.206Y-60.104
X128.724Y-74.013
X159.548Y-60.104
X169.553Y-61.869
X332.114Y-76.26
X342.119Y-74.496
X240.49Y-105.16
X250.496Y-103.395
X361.843Y-90.362
X289.722Y-55.253
X299.727Y-53.488
X299.646Y-111.534
X309.651Y-109.77
X306.343Y-91.009
X131.297Y-110.616
X141.303Y-112.38
X351.837Y-92.126
X251.607Y-126.737
X141.221Y-54.334
X151.227Y-56.098
X296.338Y-92.774
X122.108Y-111.534
X177.874Y-65.874
X187.88Y-67.639
X260.406Y-121.657
X280.451Y-112.38
X290.457Y-110.616
X270.527Y-56.098
X280.533Y-54.334
X328.806Y-57.5
X338.811Y-55.736
X258.816Y-99.39
X268.822Y-97.625
X316.661Y-98.329
X326.667Y-96.565
X293.03Y-74.013
X303.035Y-72.249
X70.673Y-111.604
X80.679Y-113.368
X137.913Y-73.095
X147.919Y-74.859
X64.601Y-91.189
X74.607Y-92.953
X273.835Y-74.859
X283.841Y-73.095
X338.73Y-113.782
X348.735Y-112.017
X255.508Y-80.629
X237.182Y-86.399
X144.611Y-93.62
X265.514Y-78.865
X247.188Y-84.635
X287.149Y-91.855
X72.599Y-73.256
X82.605Y-75.02
X362.6Y-70.885
X372.605Y-69.121
X174.566Y-84.635
X184.572Y-86.399
X156.24Y-78.865
X166.245Y-80.629
X277.143Y-93.62
X101.703Y-59.044
X111.709Y-60.808
T2
X232.764Y-112.833
X244.702Y-133.51
X177.051Y-133.51
X188.989Y-112.833
X367.384Y-82.292
X59.06Y-83.119
X82.573Y-87.265
X343.87Y-86.438
X354.633Y-65.197
X378.146Y-61.051
T3
X106.706Y-59.926
X219.566Y-120.453
X231.504Y-141.13
X232.684Y-126.664
X139.608Y-92.738
X165.747Y-124.197
X176.261Y-104.278
X96.782Y-116.207
X357.259Y-52.483
X103.398Y-78.686
X189.069Y-126.664
X190.249Y-141.13
X202.187Y-120.453
X100.09Y-97.447
X318.356Y-78.686
X238.877Y-66.756
X127.029Y-54.37
X157.934Y-98.508
X324.972Y-116.207
X257.203Y-60.986
X182.877Y-66.756
X346.517Y-101.447
X120.413Y-91.892
X146.224Y-55.216
X83.255Y-55.791
X117.105Y-110.652
X256.007Y-124.197
X285.454Y-111.498
X301.34Y-91.892
X136.3Y-111.498
X245.493Y-104.278
X356.84Y-91.244
X370.03Y-97.301
X294.724Y-54.37
X315.048Y-59.926
X123.721Y-73.131
X164.55Y-60.986
X337.116Y-75.378
X304.648Y-110.652
X275.53Y-55.216
X260.511Y-79.747
X357.279Y-80.205
X367.602Y-70.003
X380.793Y-76.059
X321.664Y-97.447
X56.414Y-98.128
X69.604Y-92.071
X79.927Y-102.274
X179.569Y-85.517
X161.242Y-79.747
X142.916Y-73.977
X333.808Y-56.618
X263.819Y-98.508
X298.032Y-73.131
X75.676Y-112.486
X242.185Y-85.517
X282.146Y-92.738
X278.838Y-73.977
X343.732Y-112.899
X77.602Y-74.138
T0
M30
