G04 #@! TF.GenerationSoftware,KiCad,Pcbnew,(5.1.4-0-10_14)*
G04 #@! TF.CreationDate,2022-04-16T14:17:43-04:00*
G04 #@! TF.ProjectId,keyboard,6b657962-6f61-4726-942e-6b696361645f,rev?*
G04 #@! TF.SameCoordinates,Original*
G04 #@! TF.FileFunction,Legend,Top*
G04 #@! TF.FilePolarity,Positive*
%FSLAX46Y46*%
G04 Gerber Fmt 4.6, Leading zero omitted, Abs format (unit mm)*
G04 Created by KiCad (PCBNEW (5.1.4-0-10_14)) date 2022-04-16 14:17:43*
%MOMM*%
%LPD*%
G04 APERTURE LIST*
%ADD10C,0.150000*%
%ADD11C,0.125000*%
%ADD12C,0.120000*%
%ADD13C,2.000000*%
%ADD14C,1.750000*%
%ADD15C,3.987800*%
%ADD16C,1.600000*%
%ADD17C,0.100000*%
%ADD18C,3.048000*%
G04 APERTURE END LIST*
D10*
X213876800Y-91976000D02*
X213876800Y-92226000D01*
X207876800Y-91976000D02*
X213876800Y-91976000D01*
X207876800Y-91976000D02*
X207876800Y-92226000D01*
X207876800Y-95476000D02*
X207876800Y-95226000D01*
X213876800Y-95476000D02*
X213876800Y-95226000D01*
X207876800Y-95476000D02*
X213876800Y-95476000D01*
X219776800Y-91506400D02*
X218766800Y-91506400D01*
X201976800Y-91506400D02*
X202976800Y-91506400D01*
X219776800Y-90506400D02*
X219776800Y-91506400D01*
X201976800Y-90456400D02*
X201976800Y-91506400D01*
X219776800Y-58456400D02*
X218826800Y-58456400D01*
X201976800Y-58456400D02*
X202976800Y-58456400D01*
X219776800Y-58456400D02*
X219776800Y-59456400D01*
X201976800Y-58456400D02*
X201976800Y-59456400D01*
X207126800Y-55556400D02*
X207126800Y-56856400D01*
X207126800Y-56856400D02*
X214626800Y-56856400D01*
X214626800Y-56856400D02*
X214626800Y-55556400D01*
X214626800Y-55556400D02*
X207126800Y-55556400D01*
X210376800Y-55906400D02*
X211376800Y-55906400D01*
X211376800Y-55906400D02*
X210876800Y-56556400D01*
X210876800Y-56556400D02*
X210376800Y-55906400D01*
X210526800Y-56056400D02*
X211226800Y-56056400D01*
X210626800Y-56206400D02*
X211126800Y-56206400D01*
X210726800Y-56356400D02*
X211026800Y-56356400D01*
X209424419Y-94178380D02*
X209091085Y-93702190D01*
X208852990Y-94178380D02*
X208852990Y-93178380D01*
X209233942Y-93178380D01*
X209329180Y-93226000D01*
X209376800Y-93273619D01*
X209424419Y-93368857D01*
X209424419Y-93511714D01*
X209376800Y-93606952D01*
X209329180Y-93654571D01*
X209233942Y-93702190D01*
X208852990Y-93702190D01*
X209852990Y-93654571D02*
X210186323Y-93654571D01*
X210329180Y-94178380D02*
X209852990Y-94178380D01*
X209852990Y-93178380D01*
X210329180Y-93178380D01*
X210710133Y-94130761D02*
X210852990Y-94178380D01*
X211091085Y-94178380D01*
X211186323Y-94130761D01*
X211233942Y-94083142D01*
X211281561Y-93987904D01*
X211281561Y-93892666D01*
X211233942Y-93797428D01*
X211186323Y-93749809D01*
X211091085Y-93702190D01*
X210900609Y-93654571D01*
X210805371Y-93606952D01*
X210757752Y-93559333D01*
X210710133Y-93464095D01*
X210710133Y-93368857D01*
X210757752Y-93273619D01*
X210805371Y-93226000D01*
X210900609Y-93178380D01*
X211138704Y-93178380D01*
X211281561Y-93226000D01*
X211710133Y-93654571D02*
X212043466Y-93654571D01*
X212186323Y-94178380D02*
X211710133Y-94178380D01*
X211710133Y-93178380D01*
X212186323Y-93178380D01*
X212472038Y-93178380D02*
X213043466Y-93178380D01*
X212757752Y-94178380D02*
X212757752Y-93178380D01*
D11*
X200219180Y-62595685D02*
X199995847Y-62238542D01*
X199836323Y-62595685D02*
X199836323Y-61845685D01*
X200091561Y-61845685D01*
X200155371Y-61881400D01*
X200187276Y-61917114D01*
X200219180Y-61988542D01*
X200219180Y-62095685D01*
X200187276Y-62167114D01*
X200155371Y-62202828D01*
X200091561Y-62238542D01*
X199836323Y-62238542D01*
X200474419Y-62381400D02*
X200793466Y-62381400D01*
X200410609Y-62595685D02*
X200633942Y-61845685D01*
X200857276Y-62595685D01*
X201016800Y-61845685D02*
X201176323Y-62595685D01*
X201303942Y-62059971D01*
X201431561Y-62595685D01*
X201591085Y-61845685D01*
X200171323Y-64431400D02*
X200107514Y-64395685D01*
X200011800Y-64395685D01*
X199916085Y-64431400D01*
X199852276Y-64502828D01*
X199820371Y-64574257D01*
X199788466Y-64717114D01*
X199788466Y-64824257D01*
X199820371Y-64967114D01*
X199852276Y-65038542D01*
X199916085Y-65109971D01*
X200011800Y-65145685D01*
X200075609Y-65145685D01*
X200171323Y-65109971D01*
X200203228Y-65074257D01*
X200203228Y-64824257D01*
X200075609Y-64824257D01*
X200490371Y-65145685D02*
X200490371Y-64395685D01*
X200873228Y-65145685D01*
X200873228Y-64395685D01*
X201192276Y-65145685D02*
X201192276Y-64395685D01*
X201351800Y-64395685D01*
X201447514Y-64431400D01*
X201511323Y-64502828D01*
X201543228Y-64574257D01*
X201575133Y-64717114D01*
X201575133Y-64824257D01*
X201543228Y-64967114D01*
X201511323Y-65038542D01*
X201447514Y-65109971D01*
X201351800Y-65145685D01*
X201192276Y-65145685D01*
X200314895Y-67695685D02*
X200091561Y-67338542D01*
X199932038Y-67695685D02*
X199932038Y-66945685D01*
X200187276Y-66945685D01*
X200251085Y-66981400D01*
X200282990Y-67017114D01*
X200314895Y-67088542D01*
X200314895Y-67195685D01*
X200282990Y-67267114D01*
X200251085Y-67302828D01*
X200187276Y-67338542D01*
X199932038Y-67338542D01*
X200570133Y-67659971D02*
X200665847Y-67695685D01*
X200825371Y-67695685D01*
X200889180Y-67659971D01*
X200921085Y-67624257D01*
X200952990Y-67552828D01*
X200952990Y-67481400D01*
X200921085Y-67409971D01*
X200889180Y-67374257D01*
X200825371Y-67338542D01*
X200697752Y-67302828D01*
X200633942Y-67267114D01*
X200602038Y-67231400D01*
X200570133Y-67159971D01*
X200570133Y-67088542D01*
X200602038Y-67017114D01*
X200633942Y-66981400D01*
X200697752Y-66945685D01*
X200857276Y-66945685D01*
X200952990Y-66981400D01*
X201144419Y-66945685D02*
X201527276Y-66945685D01*
X201335847Y-67695685D02*
X201335847Y-66945685D01*
X199788466Y-69395685D02*
X200011800Y-70145685D01*
X200235133Y-69395685D01*
X200841323Y-70074257D02*
X200809419Y-70109971D01*
X200713704Y-70145685D01*
X200649895Y-70145685D01*
X200554180Y-70109971D01*
X200490371Y-70038542D01*
X200458466Y-69967114D01*
X200426561Y-69824257D01*
X200426561Y-69717114D01*
X200458466Y-69574257D01*
X200490371Y-69502828D01*
X200554180Y-69431400D01*
X200649895Y-69395685D01*
X200713704Y-69395685D01*
X200809419Y-69431400D01*
X200841323Y-69467114D01*
X201511323Y-70074257D02*
X201479419Y-70109971D01*
X201383704Y-70145685D01*
X201319895Y-70145685D01*
X201224180Y-70109971D01*
X201160371Y-70038542D01*
X201128466Y-69967114D01*
X201096561Y-69824257D01*
X201096561Y-69717114D01*
X201128466Y-69574257D01*
X201160371Y-69502828D01*
X201224180Y-69431400D01*
X201319895Y-69395685D01*
X201383704Y-69395685D01*
X201479419Y-69431400D01*
X201511323Y-69467114D01*
X198596085Y-72631400D02*
X198915133Y-72631400D01*
X198532276Y-72845685D02*
X198755609Y-72095685D01*
X198978942Y-72845685D01*
X199138466Y-72095685D02*
X199553228Y-72095685D01*
X199329895Y-72381400D01*
X199425609Y-72381400D01*
X199489419Y-72417114D01*
X199521323Y-72452828D01*
X199553228Y-72524257D01*
X199553228Y-72702828D01*
X199521323Y-72774257D01*
X199489419Y-72809971D01*
X199425609Y-72845685D01*
X199234180Y-72845685D01*
X199170371Y-72809971D01*
X199138466Y-72774257D01*
X200318942Y-72059971D02*
X199744657Y-73024257D01*
X200765609Y-72452828D02*
X200542276Y-72452828D01*
X200542276Y-72845685D02*
X200542276Y-72095685D01*
X200861323Y-72095685D01*
X201403704Y-72345685D02*
X201403704Y-72845685D01*
X201244180Y-72059971D02*
X201084657Y-72595685D01*
X201499419Y-72595685D01*
X198596085Y-75131400D02*
X198915133Y-75131400D01*
X198532276Y-75345685D02*
X198755609Y-74595685D01*
X198978942Y-75345685D01*
X199170371Y-74667114D02*
X199202276Y-74631400D01*
X199266085Y-74595685D01*
X199425609Y-74595685D01*
X199489419Y-74631400D01*
X199521323Y-74667114D01*
X199553228Y-74738542D01*
X199553228Y-74809971D01*
X199521323Y-74917114D01*
X199138466Y-75345685D01*
X199553228Y-75345685D01*
X200318942Y-74559971D02*
X199744657Y-75524257D01*
X200765609Y-74952828D02*
X200542276Y-74952828D01*
X200542276Y-75345685D02*
X200542276Y-74595685D01*
X200861323Y-74595685D01*
X201435609Y-74595685D02*
X201116561Y-74595685D01*
X201084657Y-74952828D01*
X201116561Y-74917114D01*
X201180371Y-74881400D01*
X201339895Y-74881400D01*
X201403704Y-74917114D01*
X201435609Y-74952828D01*
X201467514Y-75024257D01*
X201467514Y-75202828D01*
X201435609Y-75274257D01*
X201403704Y-75309971D01*
X201339895Y-75345685D01*
X201180371Y-75345685D01*
X201116561Y-75309971D01*
X201084657Y-75274257D01*
X198596085Y-77631400D02*
X198915133Y-77631400D01*
X198532276Y-77845685D02*
X198755609Y-77095685D01*
X198978942Y-77845685D01*
X199553228Y-77845685D02*
X199170371Y-77845685D01*
X199361800Y-77845685D02*
X199361800Y-77095685D01*
X199297990Y-77202828D01*
X199234180Y-77274257D01*
X199170371Y-77309971D01*
X200318942Y-77059971D02*
X199744657Y-78024257D01*
X200765609Y-77452828D02*
X200542276Y-77452828D01*
X200542276Y-77845685D02*
X200542276Y-77095685D01*
X200861323Y-77095685D01*
X201403704Y-77095685D02*
X201276085Y-77095685D01*
X201212276Y-77131400D01*
X201180371Y-77167114D01*
X201116561Y-77274257D01*
X201084657Y-77417114D01*
X201084657Y-77702828D01*
X201116561Y-77774257D01*
X201148466Y-77809971D01*
X201212276Y-77845685D01*
X201339895Y-77845685D01*
X201403704Y-77809971D01*
X201435609Y-77774257D01*
X201467514Y-77702828D01*
X201467514Y-77524257D01*
X201435609Y-77452828D01*
X201403704Y-77417114D01*
X201339895Y-77381400D01*
X201212276Y-77381400D01*
X201148466Y-77417114D01*
X201116561Y-77452828D01*
X201084657Y-77524257D01*
X198596085Y-80181400D02*
X198915133Y-80181400D01*
X198532276Y-80395685D02*
X198755609Y-79645685D01*
X198978942Y-80395685D01*
X199329895Y-79645685D02*
X199393704Y-79645685D01*
X199457514Y-79681400D01*
X199489419Y-79717114D01*
X199521323Y-79788542D01*
X199553228Y-79931400D01*
X199553228Y-80109971D01*
X199521323Y-80252828D01*
X199489419Y-80324257D01*
X199457514Y-80359971D01*
X199393704Y-80395685D01*
X199329895Y-80395685D01*
X199266085Y-80359971D01*
X199234180Y-80324257D01*
X199202276Y-80252828D01*
X199170371Y-80109971D01*
X199170371Y-79931400D01*
X199202276Y-79788542D01*
X199234180Y-79717114D01*
X199266085Y-79681400D01*
X199329895Y-79645685D01*
X200318942Y-79609971D02*
X199744657Y-80574257D01*
X200765609Y-80002828D02*
X200542276Y-80002828D01*
X200542276Y-80395685D02*
X200542276Y-79645685D01*
X200861323Y-79645685D01*
X201052752Y-79645685D02*
X201499419Y-79645685D01*
X201212276Y-80395685D01*
X198899180Y-82945685D02*
X198516323Y-82945685D01*
X198707752Y-82945685D02*
X198707752Y-82195685D01*
X198643942Y-82302828D01*
X198580133Y-82374257D01*
X198516323Y-82409971D01*
X199505371Y-82195685D02*
X199186323Y-82195685D01*
X199154419Y-82552828D01*
X199186323Y-82517114D01*
X199250133Y-82481400D01*
X199409657Y-82481400D01*
X199473466Y-82517114D01*
X199505371Y-82552828D01*
X199537276Y-82624257D01*
X199537276Y-82802828D01*
X199505371Y-82874257D01*
X199473466Y-82909971D01*
X199409657Y-82945685D01*
X199250133Y-82945685D01*
X199186323Y-82909971D01*
X199154419Y-82874257D01*
X200302990Y-82159971D02*
X199728704Y-83124257D01*
X200749657Y-82552828D02*
X200845371Y-82588542D01*
X200877276Y-82624257D01*
X200909180Y-82695685D01*
X200909180Y-82802828D01*
X200877276Y-82874257D01*
X200845371Y-82909971D01*
X200781561Y-82945685D01*
X200526323Y-82945685D01*
X200526323Y-82195685D01*
X200749657Y-82195685D01*
X200813466Y-82231400D01*
X200845371Y-82267114D01*
X200877276Y-82338542D01*
X200877276Y-82409971D01*
X200845371Y-82481400D01*
X200813466Y-82517114D01*
X200749657Y-82552828D01*
X200526323Y-82552828D01*
X201547276Y-82945685D02*
X201164419Y-82945685D01*
X201355847Y-82945685D02*
X201355847Y-82195685D01*
X201292038Y-82302828D01*
X201228228Y-82374257D01*
X201164419Y-82409971D01*
X198899180Y-85495685D02*
X198516323Y-85495685D01*
X198707752Y-85495685D02*
X198707752Y-84745685D01*
X198643942Y-84852828D01*
X198580133Y-84924257D01*
X198516323Y-84959971D01*
X199473466Y-84995685D02*
X199473466Y-85495685D01*
X199313942Y-84709971D02*
X199154419Y-85245685D01*
X199569180Y-85245685D01*
X200302990Y-84709971D02*
X199728704Y-85674257D01*
X200749657Y-85102828D02*
X200845371Y-85138542D01*
X200877276Y-85174257D01*
X200909180Y-85245685D01*
X200909180Y-85352828D01*
X200877276Y-85424257D01*
X200845371Y-85459971D01*
X200781561Y-85495685D01*
X200526323Y-85495685D01*
X200526323Y-84745685D01*
X200749657Y-84745685D01*
X200813466Y-84781400D01*
X200845371Y-84817114D01*
X200877276Y-84888542D01*
X200877276Y-84959971D01*
X200845371Y-85031400D01*
X200813466Y-85067114D01*
X200749657Y-85102828D01*
X200526323Y-85102828D01*
X201132514Y-84745685D02*
X201547276Y-84745685D01*
X201323942Y-85031400D01*
X201419657Y-85031400D01*
X201483466Y-85067114D01*
X201515371Y-85102828D01*
X201547276Y-85174257D01*
X201547276Y-85352828D01*
X201515371Y-85424257D01*
X201483466Y-85459971D01*
X201419657Y-85495685D01*
X201228228Y-85495685D01*
X201164419Y-85459971D01*
X201132514Y-85424257D01*
X198899180Y-90545685D02*
X198516323Y-90545685D01*
X198707752Y-90545685D02*
X198707752Y-89795685D01*
X198643942Y-89902828D01*
X198580133Y-89974257D01*
X198516323Y-90009971D01*
X199313942Y-89795685D02*
X199377752Y-89795685D01*
X199441561Y-89831400D01*
X199473466Y-89867114D01*
X199505371Y-89938542D01*
X199537276Y-90081400D01*
X199537276Y-90259971D01*
X199505371Y-90402828D01*
X199473466Y-90474257D01*
X199441561Y-90509971D01*
X199377752Y-90545685D01*
X199313942Y-90545685D01*
X199250133Y-90509971D01*
X199218228Y-90474257D01*
X199186323Y-90402828D01*
X199154419Y-90259971D01*
X199154419Y-90081400D01*
X199186323Y-89938542D01*
X199218228Y-89867114D01*
X199250133Y-89831400D01*
X199313942Y-89795685D01*
X200302990Y-89759971D02*
X199728704Y-90724257D01*
X200749657Y-90152828D02*
X200845371Y-90188542D01*
X200877276Y-90224257D01*
X200909180Y-90295685D01*
X200909180Y-90402828D01*
X200877276Y-90474257D01*
X200845371Y-90509971D01*
X200781561Y-90545685D01*
X200526323Y-90545685D01*
X200526323Y-89795685D01*
X200749657Y-89795685D01*
X200813466Y-89831400D01*
X200845371Y-89867114D01*
X200877276Y-89938542D01*
X200877276Y-90009971D01*
X200845371Y-90081400D01*
X200813466Y-90117114D01*
X200749657Y-90152828D01*
X200526323Y-90152828D01*
X201483466Y-89795685D02*
X201355847Y-89795685D01*
X201292038Y-89831400D01*
X201260133Y-89867114D01*
X201196323Y-89974257D01*
X201164419Y-90117114D01*
X201164419Y-90402828D01*
X201196323Y-90474257D01*
X201228228Y-90509971D01*
X201292038Y-90545685D01*
X201419657Y-90545685D01*
X201483466Y-90509971D01*
X201515371Y-90474257D01*
X201547276Y-90402828D01*
X201547276Y-90224257D01*
X201515371Y-90152828D01*
X201483466Y-90117114D01*
X201419657Y-90081400D01*
X201292038Y-90081400D01*
X201228228Y-90117114D01*
X201196323Y-90152828D01*
X201164419Y-90224257D01*
X198899180Y-88045685D02*
X198516323Y-88045685D01*
X198707752Y-88045685D02*
X198707752Y-87295685D01*
X198643942Y-87402828D01*
X198580133Y-87474257D01*
X198516323Y-87509971D01*
X199473466Y-87295685D02*
X199345847Y-87295685D01*
X199282038Y-87331400D01*
X199250133Y-87367114D01*
X199186323Y-87474257D01*
X199154419Y-87617114D01*
X199154419Y-87902828D01*
X199186323Y-87974257D01*
X199218228Y-88009971D01*
X199282038Y-88045685D01*
X199409657Y-88045685D01*
X199473466Y-88009971D01*
X199505371Y-87974257D01*
X199537276Y-87902828D01*
X199537276Y-87724257D01*
X199505371Y-87652828D01*
X199473466Y-87617114D01*
X199409657Y-87581400D01*
X199282038Y-87581400D01*
X199218228Y-87617114D01*
X199186323Y-87652828D01*
X199154419Y-87724257D01*
X200302990Y-87259971D02*
X199728704Y-88224257D01*
X200749657Y-87652828D02*
X200845371Y-87688542D01*
X200877276Y-87724257D01*
X200909180Y-87795685D01*
X200909180Y-87902828D01*
X200877276Y-87974257D01*
X200845371Y-88009971D01*
X200781561Y-88045685D01*
X200526323Y-88045685D01*
X200526323Y-87295685D01*
X200749657Y-87295685D01*
X200813466Y-87331400D01*
X200845371Y-87367114D01*
X200877276Y-87438542D01*
X200877276Y-87509971D01*
X200845371Y-87581400D01*
X200813466Y-87617114D01*
X200749657Y-87652828D01*
X200526323Y-87652828D01*
X201164419Y-87367114D02*
X201196323Y-87331400D01*
X201260133Y-87295685D01*
X201419657Y-87295685D01*
X201483466Y-87331400D01*
X201515371Y-87367114D01*
X201547276Y-87438542D01*
X201547276Y-87509971D01*
X201515371Y-87617114D01*
X201132514Y-88045685D01*
X201547276Y-88045685D01*
X220349180Y-85052828D02*
X220572514Y-85052828D01*
X220668228Y-85445685D02*
X220349180Y-85445685D01*
X220349180Y-84695685D01*
X220668228Y-84695685D01*
X221242514Y-84695685D02*
X221114895Y-84695685D01*
X221051085Y-84731400D01*
X221019180Y-84767114D01*
X220955371Y-84874257D01*
X220923466Y-85017114D01*
X220923466Y-85302828D01*
X220955371Y-85374257D01*
X220987276Y-85409971D01*
X221051085Y-85445685D01*
X221178704Y-85445685D01*
X221242514Y-85409971D01*
X221274419Y-85374257D01*
X221306323Y-85302828D01*
X221306323Y-85124257D01*
X221274419Y-85052828D01*
X221242514Y-85017114D01*
X221178704Y-84981400D01*
X221051085Y-84981400D01*
X220987276Y-85017114D01*
X220955371Y-85052828D01*
X220923466Y-85124257D01*
X222072038Y-84659971D02*
X221497752Y-85624257D01*
X222231561Y-84695685D02*
X222678228Y-84695685D01*
X222391085Y-85445685D01*
X220317276Y-82895685D02*
X220317276Y-82145685D01*
X220476800Y-82145685D01*
X220572514Y-82181400D01*
X220636323Y-82252828D01*
X220668228Y-82324257D01*
X220700133Y-82467114D01*
X220700133Y-82574257D01*
X220668228Y-82717114D01*
X220636323Y-82788542D01*
X220572514Y-82859971D01*
X220476800Y-82895685D01*
X220317276Y-82895685D01*
X220923466Y-82145685D02*
X221370133Y-82145685D01*
X221082990Y-82895685D01*
X222103942Y-82109971D02*
X221529657Y-83074257D01*
X222614419Y-82145685D02*
X222486800Y-82145685D01*
X222422990Y-82181400D01*
X222391085Y-82217114D01*
X222327276Y-82324257D01*
X222295371Y-82467114D01*
X222295371Y-82752828D01*
X222327276Y-82824257D01*
X222359180Y-82859971D01*
X222422990Y-82895685D01*
X222550609Y-82895685D01*
X222614419Y-82859971D01*
X222646323Y-82824257D01*
X222678228Y-82752828D01*
X222678228Y-82574257D01*
X222646323Y-82502828D01*
X222614419Y-82467114D01*
X222550609Y-82431400D01*
X222422990Y-82431400D01*
X222359180Y-82467114D01*
X222327276Y-82502828D01*
X222295371Y-82574257D01*
X220471323Y-67081400D02*
X220407514Y-67045685D01*
X220311800Y-67045685D01*
X220216085Y-67081400D01*
X220152276Y-67152828D01*
X220120371Y-67224257D01*
X220088466Y-67367114D01*
X220088466Y-67474257D01*
X220120371Y-67617114D01*
X220152276Y-67688542D01*
X220216085Y-67759971D01*
X220311800Y-67795685D01*
X220375609Y-67795685D01*
X220471323Y-67759971D01*
X220503228Y-67724257D01*
X220503228Y-67474257D01*
X220375609Y-67474257D01*
X220790371Y-67795685D02*
X220790371Y-67045685D01*
X221173228Y-67795685D01*
X221173228Y-67045685D01*
X221492276Y-67795685D02*
X221492276Y-67045685D01*
X221651800Y-67045685D01*
X221747514Y-67081400D01*
X221811323Y-67152828D01*
X221843228Y-67224257D01*
X221875133Y-67367114D01*
X221875133Y-67474257D01*
X221843228Y-67617114D01*
X221811323Y-67688542D01*
X221747514Y-67759971D01*
X221651800Y-67795685D01*
X221492276Y-67795685D01*
X220471323Y-69531400D02*
X220407514Y-69495685D01*
X220311800Y-69495685D01*
X220216085Y-69531400D01*
X220152276Y-69602828D01*
X220120371Y-69674257D01*
X220088466Y-69817114D01*
X220088466Y-69924257D01*
X220120371Y-70067114D01*
X220152276Y-70138542D01*
X220216085Y-70209971D01*
X220311800Y-70245685D01*
X220375609Y-70245685D01*
X220471323Y-70209971D01*
X220503228Y-70174257D01*
X220503228Y-69924257D01*
X220375609Y-69924257D01*
X220790371Y-70245685D02*
X220790371Y-69495685D01*
X221173228Y-70245685D01*
X221173228Y-69495685D01*
X221492276Y-70245685D02*
X221492276Y-69495685D01*
X221651800Y-69495685D01*
X221747514Y-69531400D01*
X221811323Y-69602828D01*
X221843228Y-69674257D01*
X221875133Y-69817114D01*
X221875133Y-69924257D01*
X221843228Y-70067114D01*
X221811323Y-70138542D01*
X221747514Y-70209971D01*
X221651800Y-70245685D01*
X221492276Y-70245685D01*
X220192990Y-62645685D02*
X220192990Y-61895685D01*
X220352514Y-61895685D01*
X220448228Y-61931400D01*
X220512038Y-62002828D01*
X220543942Y-62074257D01*
X220575847Y-62217114D01*
X220575847Y-62324257D01*
X220543942Y-62467114D01*
X220512038Y-62538542D01*
X220448228Y-62609971D01*
X220352514Y-62645685D01*
X220192990Y-62645685D01*
X220799180Y-61895685D02*
X221213942Y-61895685D01*
X220990609Y-62181400D01*
X221086323Y-62181400D01*
X221150133Y-62217114D01*
X221182038Y-62252828D01*
X221213942Y-62324257D01*
X221213942Y-62502828D01*
X221182038Y-62574257D01*
X221150133Y-62609971D01*
X221086323Y-62645685D01*
X220894895Y-62645685D01*
X220831085Y-62609971D01*
X220799180Y-62574257D01*
X221979657Y-61859971D02*
X221405371Y-62824257D01*
X222107276Y-61895685D02*
X222490133Y-61895685D01*
X222298704Y-62645685D02*
X222298704Y-61895685D01*
X222649657Y-61895685D02*
X223096323Y-62645685D01*
X223096323Y-61895685D02*
X222649657Y-62645685D01*
X223479180Y-61895685D02*
X223542990Y-61895685D01*
X223606800Y-61931400D01*
X223638704Y-61967114D01*
X223670609Y-62038542D01*
X223702514Y-62181400D01*
X223702514Y-62359971D01*
X223670609Y-62502828D01*
X223638704Y-62574257D01*
X223606800Y-62609971D01*
X223542990Y-62645685D01*
X223479180Y-62645685D01*
X223415371Y-62609971D01*
X223383466Y-62574257D01*
X223351561Y-62502828D01*
X223319657Y-62359971D01*
X223319657Y-62181400D01*
X223351561Y-62038542D01*
X223383466Y-61967114D01*
X223415371Y-61931400D01*
X223479180Y-61895685D01*
X220317276Y-77795685D02*
X220317276Y-77045685D01*
X220476800Y-77045685D01*
X220572514Y-77081400D01*
X220636323Y-77152828D01*
X220668228Y-77224257D01*
X220700133Y-77367114D01*
X220700133Y-77474257D01*
X220668228Y-77617114D01*
X220636323Y-77688542D01*
X220572514Y-77759971D01*
X220476800Y-77795685D01*
X220317276Y-77795685D01*
X221274419Y-77295685D02*
X221274419Y-77795685D01*
X221114895Y-77009971D02*
X220955371Y-77545685D01*
X221370133Y-77545685D01*
X222103942Y-77009971D02*
X221529657Y-77974257D01*
X222614419Y-77295685D02*
X222614419Y-77795685D01*
X222454895Y-77009971D02*
X222295371Y-77545685D01*
X222710133Y-77545685D01*
X220143228Y-72859971D02*
X220238942Y-72895685D01*
X220398466Y-72895685D01*
X220462276Y-72859971D01*
X220494180Y-72824257D01*
X220526085Y-72752828D01*
X220526085Y-72681400D01*
X220494180Y-72609971D01*
X220462276Y-72574257D01*
X220398466Y-72538542D01*
X220270847Y-72502828D01*
X220207038Y-72467114D01*
X220175133Y-72431400D01*
X220143228Y-72359971D01*
X220143228Y-72288542D01*
X220175133Y-72217114D01*
X220207038Y-72181400D01*
X220270847Y-72145685D01*
X220430371Y-72145685D01*
X220526085Y-72181400D01*
X220813228Y-72895685D02*
X220813228Y-72145685D01*
X220972752Y-72145685D01*
X221068466Y-72181400D01*
X221132276Y-72252828D01*
X221164180Y-72324257D01*
X221196085Y-72467114D01*
X221196085Y-72574257D01*
X221164180Y-72717114D01*
X221132276Y-72788542D01*
X221068466Y-72859971D01*
X220972752Y-72895685D01*
X220813228Y-72895685D01*
X221451323Y-72681400D02*
X221770371Y-72681400D01*
X221387514Y-72895685D02*
X221610847Y-72145685D01*
X221834180Y-72895685D01*
X222536085Y-72109971D02*
X221961800Y-73074257D01*
X222759419Y-72895685D02*
X222759419Y-72145685D01*
X222918942Y-72145685D01*
X223014657Y-72181400D01*
X223078466Y-72252828D01*
X223110371Y-72324257D01*
X223142276Y-72467114D01*
X223142276Y-72574257D01*
X223110371Y-72717114D01*
X223078466Y-72788542D01*
X223014657Y-72859971D01*
X222918942Y-72895685D01*
X222759419Y-72895685D01*
X223780371Y-72895685D02*
X223397514Y-72895685D01*
X223588942Y-72895685D02*
X223588942Y-72145685D01*
X223525133Y-72252828D01*
X223461323Y-72324257D01*
X223397514Y-72359971D01*
X224546085Y-72109971D02*
X223971800Y-73074257D01*
X224737514Y-72217114D02*
X224769419Y-72181400D01*
X224833228Y-72145685D01*
X224992752Y-72145685D01*
X225056561Y-72181400D01*
X225088466Y-72217114D01*
X225120371Y-72288542D01*
X225120371Y-72359971D01*
X225088466Y-72467114D01*
X224705609Y-72895685D01*
X225120371Y-72895685D01*
X220159180Y-75359971D02*
X220254895Y-75395685D01*
X220414419Y-75395685D01*
X220478228Y-75359971D01*
X220510133Y-75324257D01*
X220542038Y-75252828D01*
X220542038Y-75181400D01*
X220510133Y-75109971D01*
X220478228Y-75074257D01*
X220414419Y-75038542D01*
X220286800Y-75002828D01*
X220222990Y-74967114D01*
X220191085Y-74931400D01*
X220159180Y-74859971D01*
X220159180Y-74788542D01*
X220191085Y-74717114D01*
X220222990Y-74681400D01*
X220286800Y-74645685D01*
X220446323Y-74645685D01*
X220542038Y-74681400D01*
X221212038Y-75324257D02*
X221180133Y-75359971D01*
X221084419Y-75395685D01*
X221020609Y-75395685D01*
X220924895Y-75359971D01*
X220861085Y-75288542D01*
X220829180Y-75217114D01*
X220797276Y-75074257D01*
X220797276Y-74967114D01*
X220829180Y-74824257D01*
X220861085Y-74752828D01*
X220924895Y-74681400D01*
X221020609Y-74645685D01*
X221084419Y-74645685D01*
X221180133Y-74681400D01*
X221212038Y-74717114D01*
X221818228Y-75395685D02*
X221499180Y-75395685D01*
X221499180Y-74645685D01*
X222520133Y-74609971D02*
X221945847Y-75574257D01*
X222743466Y-75395685D02*
X222743466Y-74645685D01*
X222902990Y-74645685D01*
X222998704Y-74681400D01*
X223062514Y-74752828D01*
X223094419Y-74824257D01*
X223126323Y-74967114D01*
X223126323Y-75074257D01*
X223094419Y-75217114D01*
X223062514Y-75288542D01*
X222998704Y-75359971D01*
X222902990Y-75395685D01*
X222743466Y-75395685D01*
X223541085Y-74645685D02*
X223604895Y-74645685D01*
X223668704Y-74681400D01*
X223700609Y-74717114D01*
X223732514Y-74788542D01*
X223764419Y-74931400D01*
X223764419Y-75109971D01*
X223732514Y-75252828D01*
X223700609Y-75324257D01*
X223668704Y-75359971D01*
X223604895Y-75395685D01*
X223541085Y-75395685D01*
X223477276Y-75359971D01*
X223445371Y-75324257D01*
X223413466Y-75252828D01*
X223381561Y-75109971D01*
X223381561Y-74931400D01*
X223413466Y-74788542D01*
X223445371Y-74717114D01*
X223477276Y-74681400D01*
X223541085Y-74645685D01*
X224530133Y-74609971D02*
X223955847Y-75574257D01*
X224689657Y-74645685D02*
X225104419Y-74645685D01*
X224881085Y-74931400D01*
X224976800Y-74931400D01*
X225040609Y-74967114D01*
X225072514Y-75002828D01*
X225104419Y-75074257D01*
X225104419Y-75252828D01*
X225072514Y-75324257D01*
X225040609Y-75359971D01*
X224976800Y-75395685D01*
X224785371Y-75395685D01*
X224721561Y-75359971D01*
X224689657Y-75324257D01*
X220700133Y-80274257D02*
X220668228Y-80309971D01*
X220572514Y-80345685D01*
X220508704Y-80345685D01*
X220412990Y-80309971D01*
X220349180Y-80238542D01*
X220317276Y-80167114D01*
X220285371Y-80024257D01*
X220285371Y-79917114D01*
X220317276Y-79774257D01*
X220349180Y-79702828D01*
X220412990Y-79631400D01*
X220508704Y-79595685D01*
X220572514Y-79595685D01*
X220668228Y-79631400D01*
X220700133Y-79667114D01*
X221274419Y-79595685D02*
X221146800Y-79595685D01*
X221082990Y-79631400D01*
X221051085Y-79667114D01*
X220987276Y-79774257D01*
X220955371Y-79917114D01*
X220955371Y-80202828D01*
X220987276Y-80274257D01*
X221019180Y-80309971D01*
X221082990Y-80345685D01*
X221210609Y-80345685D01*
X221274419Y-80309971D01*
X221306323Y-80274257D01*
X221338228Y-80202828D01*
X221338228Y-80024257D01*
X221306323Y-79952828D01*
X221274419Y-79917114D01*
X221210609Y-79881400D01*
X221082990Y-79881400D01*
X221019180Y-79917114D01*
X220987276Y-79952828D01*
X220955371Y-80024257D01*
X222103942Y-79559971D02*
X221529657Y-80524257D01*
X222646323Y-79595685D02*
X222327276Y-79595685D01*
X222295371Y-79952828D01*
X222327276Y-79917114D01*
X222391085Y-79881400D01*
X222550609Y-79881400D01*
X222614419Y-79917114D01*
X222646323Y-79952828D01*
X222678228Y-80024257D01*
X222678228Y-80202828D01*
X222646323Y-80274257D01*
X222614419Y-80309971D01*
X222550609Y-80345685D01*
X222391085Y-80345685D01*
X222327276Y-80309971D01*
X222295371Y-80274257D01*
X220540609Y-90102828D02*
X220636323Y-90138542D01*
X220668228Y-90174257D01*
X220700133Y-90245685D01*
X220700133Y-90352828D01*
X220668228Y-90424257D01*
X220636323Y-90459971D01*
X220572514Y-90495685D01*
X220317276Y-90495685D01*
X220317276Y-89745685D01*
X220540609Y-89745685D01*
X220604419Y-89781400D01*
X220636323Y-89817114D01*
X220668228Y-89888542D01*
X220668228Y-89959971D01*
X220636323Y-90031400D01*
X220604419Y-90067114D01*
X220540609Y-90102828D01*
X220317276Y-90102828D01*
X221306323Y-89745685D02*
X220987276Y-89745685D01*
X220955371Y-90102828D01*
X220987276Y-90067114D01*
X221051085Y-90031400D01*
X221210609Y-90031400D01*
X221274419Y-90067114D01*
X221306323Y-90102828D01*
X221338228Y-90174257D01*
X221338228Y-90352828D01*
X221306323Y-90424257D01*
X221274419Y-90459971D01*
X221210609Y-90495685D01*
X221051085Y-90495685D01*
X220987276Y-90459971D01*
X220955371Y-90424257D01*
X222103942Y-89709971D02*
X221529657Y-90674257D01*
X222359180Y-90495685D02*
X222486800Y-90495685D01*
X222550609Y-90459971D01*
X222582514Y-90424257D01*
X222646323Y-90317114D01*
X222678228Y-90174257D01*
X222678228Y-89888542D01*
X222646323Y-89817114D01*
X222614419Y-89781400D01*
X222550609Y-89745685D01*
X222422990Y-89745685D01*
X222359180Y-89781400D01*
X222327276Y-89817114D01*
X222295371Y-89888542D01*
X222295371Y-90067114D01*
X222327276Y-90138542D01*
X222359180Y-90174257D01*
X222422990Y-90209971D01*
X222550609Y-90209971D01*
X222614419Y-90174257D01*
X222646323Y-90138542D01*
X222678228Y-90067114D01*
X220113228Y-65195685D02*
X220113228Y-64445685D01*
X220272752Y-64445685D01*
X220368466Y-64481400D01*
X220432276Y-64552828D01*
X220464180Y-64624257D01*
X220496085Y-64767114D01*
X220496085Y-64874257D01*
X220464180Y-65017114D01*
X220432276Y-65088542D01*
X220368466Y-65159971D01*
X220272752Y-65195685D01*
X220113228Y-65195685D01*
X220751323Y-64517114D02*
X220783228Y-64481400D01*
X220847038Y-64445685D01*
X221006561Y-64445685D01*
X221070371Y-64481400D01*
X221102276Y-64517114D01*
X221134180Y-64588542D01*
X221134180Y-64659971D01*
X221102276Y-64767114D01*
X220719419Y-65195685D01*
X221134180Y-65195685D01*
X221899895Y-64409971D02*
X221325609Y-65374257D01*
X222506085Y-65195685D02*
X222282752Y-64838542D01*
X222123228Y-65195685D02*
X222123228Y-64445685D01*
X222378466Y-64445685D01*
X222442276Y-64481400D01*
X222474180Y-64517114D01*
X222506085Y-64588542D01*
X222506085Y-64695685D01*
X222474180Y-64767114D01*
X222442276Y-64802828D01*
X222378466Y-64838542D01*
X222123228Y-64838542D01*
X222729419Y-64445685D02*
X223176085Y-65195685D01*
X223176085Y-64445685D02*
X222729419Y-65195685D01*
X223782276Y-65195685D02*
X223399419Y-65195685D01*
X223590847Y-65195685D02*
X223590847Y-64445685D01*
X223527038Y-64552828D01*
X223463228Y-64624257D01*
X223399419Y-64659971D01*
X220540609Y-87602828D02*
X220636323Y-87638542D01*
X220668228Y-87674257D01*
X220700133Y-87745685D01*
X220700133Y-87852828D01*
X220668228Y-87924257D01*
X220636323Y-87959971D01*
X220572514Y-87995685D01*
X220317276Y-87995685D01*
X220317276Y-87245685D01*
X220540609Y-87245685D01*
X220604419Y-87281400D01*
X220636323Y-87317114D01*
X220668228Y-87388542D01*
X220668228Y-87459971D01*
X220636323Y-87531400D01*
X220604419Y-87567114D01*
X220540609Y-87602828D01*
X220317276Y-87602828D01*
X221274419Y-87495685D02*
X221274419Y-87995685D01*
X221114895Y-87209971D02*
X220955371Y-87745685D01*
X221370133Y-87745685D01*
X222103942Y-87209971D02*
X221529657Y-88174257D01*
X222422990Y-87567114D02*
X222359180Y-87531400D01*
X222327276Y-87495685D01*
X222295371Y-87424257D01*
X222295371Y-87388542D01*
X222327276Y-87317114D01*
X222359180Y-87281400D01*
X222422990Y-87245685D01*
X222550609Y-87245685D01*
X222614419Y-87281400D01*
X222646323Y-87317114D01*
X222678228Y-87388542D01*
X222678228Y-87424257D01*
X222646323Y-87495685D01*
X222614419Y-87531400D01*
X222550609Y-87567114D01*
X222422990Y-87567114D01*
X222359180Y-87602828D01*
X222327276Y-87638542D01*
X222295371Y-87709971D01*
X222295371Y-87852828D01*
X222327276Y-87924257D01*
X222359180Y-87959971D01*
X222422990Y-87995685D01*
X222550609Y-87995685D01*
X222614419Y-87959971D01*
X222646323Y-87924257D01*
X222678228Y-87852828D01*
X222678228Y-87709971D01*
X222646323Y-87638542D01*
X222614419Y-87602828D01*
X222550609Y-87567114D01*
D12*
X208380371Y-58145685D02*
X208380371Y-57395685D01*
X208630371Y-57931400D01*
X208880371Y-57395685D01*
X208880371Y-58145685D01*
X209237514Y-58145685D02*
X209237514Y-57645685D01*
X209237514Y-57395685D02*
X209201800Y-57431400D01*
X209237514Y-57467114D01*
X209273228Y-57431400D01*
X209237514Y-57395685D01*
X209237514Y-57467114D01*
X209916085Y-58109971D02*
X209844657Y-58145685D01*
X209701800Y-58145685D01*
X209630371Y-58109971D01*
X209594657Y-58074257D01*
X209558942Y-58002828D01*
X209558942Y-57788542D01*
X209594657Y-57717114D01*
X209630371Y-57681400D01*
X209701800Y-57645685D01*
X209844657Y-57645685D01*
X209916085Y-57681400D01*
X210237514Y-58145685D02*
X210237514Y-57645685D01*
X210237514Y-57788542D02*
X210273228Y-57717114D01*
X210308942Y-57681400D01*
X210380371Y-57645685D01*
X210451800Y-57645685D01*
X210808942Y-58145685D02*
X210737514Y-58109971D01*
X210701800Y-58074257D01*
X210666085Y-58002828D01*
X210666085Y-57788542D01*
X210701800Y-57717114D01*
X210737514Y-57681400D01*
X210808942Y-57645685D01*
X210916085Y-57645685D01*
X210987514Y-57681400D01*
X211023228Y-57717114D01*
X211058942Y-57788542D01*
X211058942Y-58002828D01*
X211023228Y-58074257D01*
X210987514Y-58109971D01*
X210916085Y-58145685D01*
X210808942Y-58145685D01*
X211380371Y-57395685D02*
X211380371Y-58002828D01*
X211416085Y-58074257D01*
X211451800Y-58109971D01*
X211523228Y-58145685D01*
X211666085Y-58145685D01*
X211737514Y-58109971D01*
X211773228Y-58074257D01*
X211808942Y-58002828D01*
X211808942Y-57395685D01*
X212130371Y-58109971D02*
X212237514Y-58145685D01*
X212416085Y-58145685D01*
X212487514Y-58109971D01*
X212523228Y-58074257D01*
X212558942Y-58002828D01*
X212558942Y-57931400D01*
X212523228Y-57859971D01*
X212487514Y-57824257D01*
X212416085Y-57788542D01*
X212273228Y-57752828D01*
X212201800Y-57717114D01*
X212166085Y-57681400D01*
X212130371Y-57609971D01*
X212130371Y-57538542D01*
X212166085Y-57467114D01*
X212201800Y-57431400D01*
X212273228Y-57395685D01*
X212451800Y-57395685D01*
X212558942Y-57431400D01*
X213130371Y-57752828D02*
X213237514Y-57788542D01*
X213273228Y-57824257D01*
X213308942Y-57895685D01*
X213308942Y-58002828D01*
X213273228Y-58074257D01*
X213237514Y-58109971D01*
X213166085Y-58145685D01*
X212880371Y-58145685D01*
X212880371Y-57395685D01*
X213130371Y-57395685D01*
X213201800Y-57431400D01*
X213237514Y-57467114D01*
X213273228Y-57538542D01*
X213273228Y-57609971D01*
X213237514Y-57681400D01*
X213201800Y-57717114D01*
X213130371Y-57752828D01*
X212880371Y-57752828D01*
%LPC*%
D13*
X207626800Y-93726000D03*
X214126800Y-93726000D03*
D14*
X144610691Y-93619674D03*
X134605045Y-91855408D03*
D15*
X139607868Y-92737541D03*
D14*
X362262011Y-51600531D03*
X352256365Y-53364797D03*
D15*
X357259188Y-52482664D03*
D14*
X170146209Y-126737400D03*
X161347391Y-121657400D03*
D15*
X165746800Y-124197400D03*
D14*
X181263627Y-105159708D03*
X171257981Y-103395442D03*
D15*
X176260804Y-104277575D03*
D14*
X101784565Y-117089555D03*
X91778919Y-115325289D03*
D15*
X96781742Y-116207422D03*
D14*
X108400560Y-79568380D03*
X98394914Y-77804114D03*
D15*
X103397737Y-78686247D03*
D16*
X94815524Y-104899194D03*
X102497024Y-106253650D03*
D17*
G36*
X103423789Y-105604722D02*
G01*
X103145952Y-107180415D01*
X101570259Y-106902578D01*
X101848096Y-105326885D01*
X103423789Y-105604722D01*
X103423789Y-105604722D01*
G37*
D16*
X236469516Y-75563216D03*
X244151016Y-74208760D03*
D17*
G36*
X244799944Y-73281995D02*
G01*
X245077781Y-74857688D01*
X243502088Y-75135525D01*
X243224251Y-73559832D01*
X244799944Y-73281995D01*
X244799944Y-73281995D01*
G37*
D16*
X115138946Y-99343922D03*
X122820446Y-100698378D03*
D17*
G36*
X123747211Y-100049450D02*
G01*
X123469374Y-101625143D01*
X121893681Y-101347306D01*
X122171518Y-99771613D01*
X123747211Y-100049450D01*
X123747211Y-100049450D01*
G37*
D16*
X121754941Y-61822747D03*
X129436441Y-63177203D03*
D17*
G36*
X130363206Y-62528275D02*
G01*
X130085369Y-64103968D01*
X128509676Y-63826131D01*
X128787513Y-62250438D01*
X130363206Y-62528275D01*
X130363206Y-62528275D01*
G37*
D16*
X152660121Y-105959918D03*
X160341621Y-107314374D03*
D17*
G36*
X161268386Y-106665446D02*
G01*
X160990549Y-108241139D01*
X159414856Y-107963302D01*
X159692693Y-106387609D01*
X161268386Y-106665446D01*
X161268386Y-106665446D01*
G37*
D16*
X322564574Y-125014238D03*
X330246074Y-123659782D03*
D17*
G36*
X330895002Y-122733017D02*
G01*
X331172839Y-124308710D01*
X329597146Y-124586547D01*
X329319309Y-123010854D01*
X330895002Y-122733017D01*
X330895002Y-122733017D01*
G37*
D16*
X254795984Y-69793199D03*
X262477484Y-68438743D03*
D17*
G36*
X263126412Y-67511978D02*
G01*
X263404249Y-69087671D01*
X261828556Y-69365508D01*
X261550719Y-67789815D01*
X263126412Y-67511978D01*
X263126412Y-67511978D01*
G37*
D16*
X77980784Y-63243022D03*
X85662284Y-64597478D03*
D17*
G36*
X86589049Y-63948550D02*
G01*
X86311212Y-65524243D01*
X84735519Y-65246406D01*
X85013356Y-63670713D01*
X86589049Y-63948550D01*
X86589049Y-63948550D01*
G37*
D16*
X177602584Y-74208760D03*
X185284084Y-75563216D03*
D17*
G36*
X186210849Y-74914288D02*
G01*
X185933012Y-76489981D01*
X184357319Y-76212144D01*
X184635156Y-74636451D01*
X186210849Y-74914288D01*
X186210849Y-74914288D01*
G37*
D16*
X111830948Y-118104510D03*
X119512448Y-119458966D03*
D17*
G36*
X120439213Y-118810038D02*
G01*
X120161376Y-120385731D01*
X118585683Y-120107894D01*
X118863520Y-118532201D01*
X120439213Y-118810038D01*
X120439213Y-118810038D01*
G37*
D16*
X331401169Y-65424477D03*
X339082669Y-64070021D03*
D17*
G36*
X339731597Y-63143256D02*
G01*
X340009434Y-64718949D01*
X338433741Y-64996786D01*
X338155904Y-63421093D01*
X339731597Y-63143256D01*
X339731597Y-63143256D01*
G37*
D16*
X256756801Y-133296440D03*
X263511799Y-129396440D03*
D17*
G36*
X263804619Y-128303620D02*
G01*
X264604619Y-129689260D01*
X263218979Y-130489260D01*
X262418979Y-129103620D01*
X263804619Y-128303620D01*
X263804619Y-128303620D01*
G37*
D16*
X319256576Y-106253650D03*
X326938076Y-104899194D03*
D17*
G36*
X327587004Y-103972429D02*
G01*
X327864841Y-105548122D01*
X326289148Y-105825959D01*
X326011311Y-104250266D01*
X327587004Y-103972429D01*
X327587004Y-103972429D01*
G37*
D16*
X64329568Y-99523698D03*
X72011068Y-100878154D03*
D17*
G36*
X72937833Y-100229226D02*
G01*
X72659996Y-101804919D01*
X71084303Y-101527082D01*
X71362140Y-99951389D01*
X72937833Y-100229226D01*
X72937833Y-100229226D01*
G37*
D16*
X354432679Y-100051154D03*
X362114179Y-98696698D03*
D17*
G36*
X362763107Y-97769933D02*
G01*
X363040944Y-99345626D01*
X361465251Y-99623463D01*
X361187414Y-98047770D01*
X362763107Y-97769933D01*
X362763107Y-97769933D01*
G37*
D16*
X315948579Y-87493063D03*
X323630079Y-86138607D03*
D17*
G36*
X324279007Y-85211842D02*
G01*
X324556844Y-86787535D01*
X322981151Y-87065372D01*
X322703314Y-85489679D01*
X324279007Y-85211842D01*
X324279007Y-85211842D01*
G37*
D16*
X118446944Y-80583335D03*
X126128444Y-81937791D03*
D17*
G36*
X127055209Y-81288863D02*
G01*
X126777372Y-82864556D01*
X125201679Y-82586719D01*
X125479516Y-81011026D01*
X127055209Y-81288863D01*
X127055209Y-81288863D01*
G37*
D16*
X341325162Y-121706240D03*
X349006662Y-120351784D03*
D17*
G36*
X349655590Y-119425019D02*
G01*
X349933427Y-121000712D01*
X348357734Y-121278549D01*
X348079897Y-119702856D01*
X349655590Y-119425019D01*
X349655590Y-119425019D01*
G37*
D16*
X159276116Y-68438743D03*
X166957616Y-69793199D03*
D17*
G36*
X167884381Y-69144271D02*
G01*
X167606544Y-70719964D01*
X166030851Y-70442127D01*
X166308688Y-68866434D01*
X167884381Y-69144271D01*
X167884381Y-69144271D01*
G37*
D16*
X334709167Y-84185065D03*
X342390667Y-82830609D03*
D17*
G36*
X343039595Y-81903844D02*
G01*
X343317432Y-83479537D01*
X341741739Y-83757374D01*
X341463902Y-82181681D01*
X343039595Y-81903844D01*
X343039595Y-81903844D01*
G37*
D16*
X101431519Y-67378019D03*
X109113019Y-68732475D03*
D17*
G36*
X110039784Y-68083547D02*
G01*
X109761947Y-69659240D01*
X108186254Y-69381403D01*
X108464091Y-67805710D01*
X110039784Y-68083547D01*
X110039784Y-68083547D01*
G37*
D16*
X312640581Y-68732475D03*
X320322081Y-67378019D03*
D17*
G36*
X320971009Y-66451254D02*
G01*
X321248846Y-68026947D01*
X319673153Y-68304784D01*
X319395316Y-66729091D01*
X320971009Y-66451254D01*
X320971009Y-66451254D01*
G37*
D16*
X292317159Y-63177203D03*
X299998659Y-61822747D03*
D17*
G36*
X300647587Y-60895982D02*
G01*
X300925424Y-62471675D01*
X299349731Y-62749512D01*
X299071894Y-61173819D01*
X300647587Y-60895982D01*
X300647587Y-60895982D01*
G37*
D16*
X243085511Y-113084391D03*
X250767011Y-111729935D03*
D17*
G36*
X251415939Y-110803170D02*
G01*
X251693776Y-112378863D01*
X250118083Y-112656700D01*
X249840246Y-111081007D01*
X251415939Y-110803170D01*
X251415939Y-110803170D01*
G37*
D16*
X131025655Y-118950489D03*
X138707155Y-120304945D03*
D17*
G36*
X139633920Y-119656017D02*
G01*
X139356083Y-121231710D01*
X137780390Y-120953873D01*
X138058227Y-119378180D01*
X139633920Y-119656017D01*
X139633920Y-119656017D01*
G37*
D16*
X261411979Y-107314374D03*
X269093479Y-105959918D03*
D17*
G36*
X269742407Y-105033153D02*
G01*
X270020244Y-106608846D01*
X268444551Y-106886683D01*
X268166714Y-105310990D01*
X269742407Y-105033153D01*
X269742407Y-105033153D01*
G37*
D16*
X283046445Y-120304945D03*
X290727945Y-118950489D03*
D17*
G36*
X291376873Y-118023724D02*
G01*
X291654710Y-119599417D01*
X290079017Y-119877254D01*
X289801180Y-118301561D01*
X291376873Y-118023724D01*
X291376873Y-118023724D01*
G37*
D16*
X295625157Y-81937791D03*
X303306657Y-80583335D03*
D17*
G36*
X303955585Y-79656570D02*
G01*
X304233422Y-81232263D01*
X302657729Y-81510100D01*
X302379892Y-79934407D01*
X303955585Y-79656570D01*
X303955585Y-79656570D01*
G37*
D16*
X276430450Y-82783770D03*
X284111950Y-81429314D03*
D17*
G36*
X284760878Y-80502549D02*
G01*
X285038715Y-82078242D01*
X283463022Y-82356079D01*
X283185185Y-80780386D01*
X284760878Y-80502549D01*
X284760878Y-80502549D01*
G37*
D16*
X258103982Y-88553787D03*
X265785482Y-87199331D03*
D17*
G36*
X266434410Y-86272566D02*
G01*
X266712247Y-87848259D01*
X265136554Y-88126096D01*
X264858717Y-86550403D01*
X266434410Y-86272566D01*
X266434410Y-86272566D01*
G37*
D16*
X273122452Y-64023182D03*
X280803952Y-62668726D03*
D17*
G36*
X281452880Y-61741961D02*
G01*
X281730717Y-63317654D01*
X280155024Y-63595491D01*
X279877187Y-62019798D01*
X281452880Y-61741961D01*
X281452880Y-61741961D01*
G37*
D16*
X239777514Y-94323804D03*
X247459014Y-92969348D03*
D17*
G36*
X248107942Y-92042583D02*
G01*
X248385779Y-93618276D01*
X246810086Y-93896113D01*
X246532249Y-92320420D01*
X248107942Y-92042583D01*
X248107942Y-92042583D01*
G37*
D16*
X174294587Y-92969348D03*
X181976087Y-94323804D03*
D17*
G36*
X182902852Y-93674876D02*
G01*
X182625015Y-95250569D01*
X181049322Y-94972732D01*
X181327159Y-93397039D01*
X182902852Y-93674876D01*
X182902852Y-93674876D01*
G37*
D16*
X155968119Y-87199331D03*
X163649619Y-88553787D03*
D17*
G36*
X164576384Y-87904859D02*
G01*
X164298547Y-89480552D01*
X162722854Y-89202715D01*
X163000691Y-87627022D01*
X164576384Y-87904859D01*
X164576384Y-87904859D01*
G37*
D16*
X365195122Y-78809569D03*
X372876622Y-77455113D03*
D17*
G36*
X373525550Y-76528348D02*
G01*
X373803387Y-78104041D01*
X372227694Y-78381878D01*
X371949857Y-76806185D01*
X373525550Y-76528348D01*
X373525550Y-76528348D01*
G37*
D16*
X140949648Y-62668726D03*
X148631148Y-64023182D03*
D17*
G36*
X149557913Y-63374254D02*
G01*
X149280076Y-64949947D01*
X147704383Y-64672110D01*
X147982220Y-63096417D01*
X149557913Y-63374254D01*
X149557913Y-63374254D01*
G37*
D16*
X302241152Y-119458966D03*
X309922652Y-118104510D03*
D17*
G36*
X310571580Y-117177745D02*
G01*
X310849417Y-118753438D01*
X309273724Y-119031275D01*
X308995887Y-117455582D01*
X310571580Y-117177745D01*
X310571580Y-117177745D01*
G37*
D16*
X298933154Y-100698378D03*
X306614654Y-99343922D03*
D17*
G36*
X307263582Y-98417157D02*
G01*
X307541419Y-99992850D01*
X305965726Y-100270687D01*
X305687889Y-98694994D01*
X307263582Y-98417157D01*
X307263582Y-98417157D01*
G37*
D16*
X137641651Y-81429314D03*
X145323151Y-82783770D03*
D17*
G36*
X146249916Y-82134842D02*
G01*
X145972079Y-83710535D01*
X144396386Y-83432698D01*
X144674223Y-81857005D01*
X146249916Y-82134842D01*
X146249916Y-82134842D01*
G37*
D16*
X70401865Y-119938285D03*
X78083365Y-121292741D03*
D17*
G36*
X79010130Y-120643813D02*
G01*
X78732293Y-122219506D01*
X77156600Y-121941669D01*
X77434437Y-120365976D01*
X79010130Y-120643813D01*
X79010130Y-120643813D01*
G37*
D16*
X194268347Y-134169132D03*
X198168347Y-127414134D03*
D17*
G36*
X197875527Y-126321314D02*
G01*
X199261167Y-127121314D01*
X198461167Y-128506954D01*
X197075527Y-127706954D01*
X197875527Y-126321314D01*
X197875527Y-126321314D01*
G37*
D16*
X279738447Y-101544357D03*
X287419947Y-100189901D03*
D17*
G36*
X288068875Y-99263136D02*
G01*
X288346712Y-100838829D01*
X286771019Y-101116666D01*
X286493182Y-99540973D01*
X288068875Y-99263136D01*
X288068875Y-99263136D01*
G37*
D16*
X72327713Y-81590110D03*
X80009213Y-82944566D03*
D17*
G36*
X80935978Y-82295638D02*
G01*
X80658141Y-83871331D01*
X79082448Y-83593494D01*
X79360285Y-82017801D01*
X80935978Y-82295638D01*
X80935978Y-82295638D01*
G37*
D16*
X134333653Y-100189901D03*
X142015153Y-101544357D03*
D17*
G36*
X142941918Y-100895429D02*
G01*
X142664081Y-102471122D01*
X141088388Y-102193285D01*
X141366225Y-100617592D01*
X142941918Y-100895429D01*
X142941918Y-100895429D01*
G37*
D16*
X354851904Y-61289480D03*
X362533404Y-59935024D03*
D17*
G36*
X363182332Y-59008259D02*
G01*
X363460169Y-60583952D01*
X361884476Y-60861789D01*
X361606639Y-59286096D01*
X363182332Y-59008259D01*
X363182332Y-59008259D01*
G37*
D16*
X158241801Y-129396440D03*
X164996799Y-133296440D03*
D17*
G36*
X166089619Y-133003620D02*
G01*
X165289619Y-134389260D01*
X163903979Y-133589260D01*
X164703979Y-132203620D01*
X166089619Y-133003620D01*
X166089619Y-133003620D01*
G37*
D16*
X170986589Y-111729935D03*
X178668089Y-113084391D03*
D17*
G36*
X179594854Y-112435463D02*
G01*
X179317017Y-114011156D01*
X177741324Y-113733319D01*
X178019161Y-112157626D01*
X179594854Y-112435463D01*
X179594854Y-112435463D01*
G37*
D16*
X91507526Y-123659782D03*
X99189026Y-125014238D03*
D17*
G36*
X100115791Y-124365310D02*
G01*
X99837954Y-125941003D01*
X98262261Y-125663166D01*
X98540098Y-124087473D01*
X100115791Y-124365310D01*
X100115791Y-124365310D01*
G37*
D16*
X223585253Y-127414134D03*
X227485253Y-134169132D03*
D17*
G36*
X228578073Y-134461952D02*
G01*
X227192433Y-135261952D01*
X226392433Y-133876312D01*
X227778073Y-133076312D01*
X228578073Y-134461952D01*
X228578073Y-134461952D01*
G37*
D16*
X98123522Y-86138607D03*
X105805022Y-87493063D03*
D17*
G36*
X106731787Y-86844135D02*
G01*
X106453950Y-88419828D01*
X104878257Y-88141991D01*
X105156094Y-86566298D01*
X106731787Y-86844135D01*
X106731787Y-86844135D01*
G37*
D14*
X111708558Y-60807792D03*
X101702912Y-59043526D03*
D15*
X106705735Y-59925659D03*
X202187347Y-120453022D03*
X190249347Y-141130244D03*
D18*
X188989120Y-112833022D03*
X177051120Y-133510244D03*
D14*
X191609307Y-122264724D03*
X186529307Y-131063542D03*
D15*
X189069307Y-126664133D03*
X231504253Y-141130244D03*
X219566253Y-120453022D03*
D18*
X244702480Y-133510244D03*
X232764480Y-112833022D03*
D14*
X235224293Y-131063542D03*
X230144293Y-122264724D03*
D15*
X232684293Y-126664133D03*
D14*
X348735269Y-112017291D03*
X338729623Y-113781557D03*
D15*
X343732446Y-112899424D03*
D14*
X105092562Y-98328967D03*
X95086916Y-96564701D03*
D15*
X100089739Y-97446834D03*
D14*
X243879623Y-65874267D03*
X233873977Y-67638533D03*
D15*
X238876800Y-66756400D03*
D14*
X125415984Y-92773695D03*
X115410338Y-91009429D03*
D15*
X120413161Y-91891562D03*
D14*
X132031980Y-55252520D03*
X122026334Y-53488254D03*
D15*
X127029157Y-54370387D03*
D14*
X162937159Y-99389691D03*
X152931513Y-97625425D03*
D15*
X157934336Y-98507558D03*
D14*
X329974681Y-115325289D03*
X319969035Y-117089555D03*
D15*
X324971858Y-116207422D03*
D14*
X262206091Y-60104250D03*
X252200445Y-61868516D03*
D15*
X257203268Y-60986383D03*
D14*
X88257823Y-56672795D03*
X78252177Y-54908529D03*
D15*
X83255000Y-55790662D03*
D14*
X187879623Y-67638533D03*
X177873977Y-65874267D03*
D15*
X182876800Y-66756400D03*
D14*
X122107987Y-111534283D03*
X112102341Y-109770017D03*
D15*
X117105164Y-110652150D03*
D14*
X338811276Y-55735528D03*
X328805630Y-57499794D03*
D15*
X333808453Y-56617661D03*
D14*
X260406209Y-121657400D03*
X251607391Y-126737400D03*
D15*
X256006800Y-124197400D03*
D14*
X326666684Y-96564701D03*
X316661038Y-98328967D03*
D15*
X321663861Y-97446834D03*
X79926953Y-102273938D03*
X56413683Y-98127914D03*
D18*
X82573351Y-87265468D03*
X59060082Y-83119444D03*
D14*
X74606607Y-92953471D03*
X64600961Y-91189205D03*
D15*
X69603784Y-92071338D03*
X370030064Y-97300914D03*
X346516794Y-101446938D03*
D18*
X367383665Y-82292444D03*
X343870396Y-86438468D03*
D14*
X361842786Y-90362205D03*
X351837140Y-92126471D03*
D15*
X356839963Y-91244338D03*
D14*
X323358686Y-77804114D03*
X313353040Y-79568380D03*
D15*
X318355863Y-78686247D03*
D14*
X128723982Y-74013108D03*
X118718336Y-72248842D03*
D15*
X123721159Y-73130975D03*
D14*
X169553155Y-61868516D03*
X159547509Y-60104250D03*
D15*
X164550332Y-60986383D03*
D14*
X342119274Y-74496116D03*
X332113628Y-76260382D03*
D15*
X337116451Y-75378249D03*
D14*
X320050688Y-59043526D03*
X310045042Y-60807792D03*
D15*
X315047865Y-59925659D03*
D14*
X299727266Y-53488254D03*
X289721620Y-55252520D03*
D15*
X294724443Y-54370387D03*
D14*
X250495619Y-103395442D03*
X240489973Y-105159708D03*
D15*
X245492796Y-104277575D03*
D14*
X141302694Y-112380262D03*
X131297048Y-110615996D03*
D15*
X136299871Y-111498129D03*
D14*
X268822087Y-97625425D03*
X258816441Y-99389691D03*
D15*
X263819264Y-98507558D03*
D14*
X290456552Y-110615996D03*
X280450906Y-112380262D03*
D15*
X285453729Y-111498129D03*
D14*
X303035264Y-72248842D03*
X293029618Y-74013108D03*
D15*
X298032441Y-73130975D03*
D14*
X283840557Y-73094821D03*
X273834911Y-74859087D03*
D15*
X278837734Y-73976954D03*
D14*
X265514089Y-78864838D03*
X255508443Y-80629104D03*
D15*
X260511266Y-79746971D03*
D14*
X280532559Y-54334233D03*
X270526913Y-56098499D03*
D15*
X275529736Y-55216366D03*
D14*
X247187621Y-84634855D03*
X237181975Y-86399121D03*
D15*
X242184798Y-85516988D03*
D14*
X184571625Y-86399121D03*
X174565979Y-84634855D03*
D15*
X179568802Y-85516988D03*
D14*
X166245157Y-80629104D03*
X156239511Y-78864838D03*
D15*
X161242334Y-79746971D03*
X380792507Y-76059329D03*
X357279237Y-80205353D03*
D18*
X378146108Y-61050859D03*
X354632839Y-65196883D03*
D14*
X372605229Y-69120620D03*
X362599583Y-70884886D03*
D15*
X367602406Y-70002753D03*
D14*
X151226687Y-56098499D03*
X141221041Y-54334233D03*
D15*
X146223864Y-55216366D03*
D14*
X309651259Y-109770017D03*
X299645613Y-111534283D03*
D15*
X304648436Y-110652150D03*
D14*
X306343262Y-91009429D03*
X296337616Y-92773695D03*
D15*
X301340439Y-91891562D03*
D14*
X147918689Y-74859087D03*
X137913043Y-73094821D03*
D15*
X142915866Y-73976954D03*
D14*
X80678904Y-113368058D03*
X70673258Y-111603792D03*
D15*
X75676081Y-112485925D03*
D14*
X287148555Y-91855408D03*
X277142909Y-93619674D03*
D15*
X282145732Y-92737541D03*
D14*
X82604752Y-75019883D03*
X72599106Y-73255617D03*
D15*
X77601929Y-74137750D03*
M02*
