G04 #@! TF.GenerationSoftware,KiCad,Pcbnew,(5.1.4-0-10_14)*
G04 #@! TF.CreationDate,2022-04-14T23:27:19-04:00*
G04 #@! TF.ProjectId,keyboard,6b657962-6f61-4726-942e-6b696361645f,rev?*
G04 #@! TF.SameCoordinates,Original*
G04 #@! TF.FileFunction,Copper,L1,Top*
G04 #@! TF.FilePolarity,Positive*
%FSLAX46Y46*%
G04 Gerber Fmt 4.6, Leading zero omitted, Abs format (unit mm)*
G04 Created by KiCad (PCBNEW (5.1.4-0-10_14)) date 2022-04-14 23:27:19*
%MOMM*%
%LPD*%
G04 APERTURE LIST*
%ADD10C,2.000000*%
%ADD11C,1.905000*%
%ADD12C,0.100000*%
%ADD13C,2.250000*%
%ADD14C,2.250000*%
%ADD15C,1.600000*%
%ADD16C,1.524000*%
%ADD17C,0.800000*%
%ADD18C,0.250000*%
G04 APERTURE END LIST*
D10*
X207626800Y-93726000D03*
X214126800Y-93726000D03*
D11*
X139976441Y-97960898D03*
D12*
G36*
X138873012Y-98733527D02*
G01*
X139203812Y-96857469D01*
X141079870Y-97188269D01*
X140749070Y-99064327D01*
X138873012Y-98733527D01*
X138873012Y-98733527D01*
G37*
D11*
X137475029Y-97519831D03*
D13*
X137840441Y-88364190D03*
X137068630Y-88969360D03*
D14*
X136296817Y-89574530D02*
X137840443Y-88364190D01*
D13*
X142991412Y-88175784D03*
X142921358Y-88457906D03*
D14*
X142851304Y-88740027D02*
X142991412Y-88175785D01*
D11*
X359392027Y-57264954D03*
D12*
G36*
X358619398Y-58368383D02*
G01*
X358288598Y-56492325D01*
X360164656Y-56161525D01*
X360495456Y-58037583D01*
X358619398Y-58368383D01*
X358619398Y-58368383D01*
G37*
D11*
X356890615Y-57706021D03*
D13*
X354102576Y-48977553D03*
X353584291Y-49810203D03*
D14*
X353066004Y-50642852D02*
X354102578Y-48977554D01*
D13*
X358878467Y-47038774D03*
X358909129Y-47327842D03*
D14*
X358939791Y-47616909D02*
X358878467Y-47038775D01*
D11*
X164306652Y-129231809D03*
D12*
G36*
X163005513Y-129580448D02*
G01*
X163958013Y-127930670D01*
X165607791Y-128883170D01*
X164655291Y-130532948D01*
X163005513Y-129580448D01*
X163005513Y-129580448D01*
G37*
D11*
X162106948Y-127961809D03*
D13*
X165581736Y-119483298D03*
X164649490Y-119787997D03*
D14*
X163717243Y-120092695D02*
X165581737Y-119483299D01*
D13*
X170486505Y-121067991D03*
X170324185Y-121309139D03*
D14*
X170161864Y-121550286D02*
X170486506Y-121067992D01*
D11*
X176629377Y-109500932D03*
D12*
G36*
X175525948Y-110273561D02*
G01*
X175856748Y-108397503D01*
X177732806Y-108728303D01*
X177402006Y-110604361D01*
X175525948Y-110273561D01*
X175525948Y-110273561D01*
G37*
D11*
X174127965Y-109059865D03*
D13*
X174493377Y-99904224D03*
X173721566Y-100509394D03*
D14*
X172949753Y-101114564D02*
X174493379Y-99904224D01*
D13*
X179644348Y-99715818D03*
X179574294Y-99997940D03*
D14*
X179504240Y-100280061D02*
X179644348Y-99715819D01*
D11*
X97150315Y-121430779D03*
D12*
G36*
X96046886Y-122203408D02*
G01*
X96377686Y-120327350D01*
X98253744Y-120658150D01*
X97922944Y-122534208D01*
X96046886Y-122203408D01*
X96046886Y-122203408D01*
G37*
D11*
X94648903Y-120989712D03*
D13*
X95014315Y-111834071D03*
X94242504Y-112439241D03*
D14*
X93470691Y-113044411D02*
X95014317Y-111834071D01*
D13*
X100165286Y-111645665D03*
X100095232Y-111927787D03*
D14*
X100025178Y-112209908D02*
X100165286Y-111645666D01*
D11*
X103766310Y-83909604D03*
D12*
G36*
X102662881Y-84682233D02*
G01*
X102993681Y-82806175D01*
X104869739Y-83136975D01*
X104538939Y-85013033D01*
X102662881Y-84682233D01*
X102662881Y-84682233D01*
G37*
D11*
X101264898Y-83468537D03*
D13*
X101630310Y-74312896D03*
X100858499Y-74918066D03*
D14*
X100086686Y-75523236D02*
X101630312Y-74312896D01*
D13*
X106781281Y-74124490D03*
X106711227Y-74406612D03*
D14*
X106641173Y-74688733D02*
X106781281Y-74124491D01*
D15*
X94815524Y-104899194D03*
X102497024Y-106253650D03*
D12*
G36*
X103423789Y-105604722D02*
G01*
X103145952Y-107180415D01*
X101570259Y-106902578D01*
X101848096Y-105326885D01*
X103423789Y-105604722D01*
X103423789Y-105604722D01*
G37*
D15*
X236469516Y-75563216D03*
X244151016Y-74208760D03*
D12*
G36*
X244799944Y-73281995D02*
G01*
X245077781Y-74857688D01*
X243502088Y-75135525D01*
X243224251Y-73559832D01*
X244799944Y-73281995D01*
X244799944Y-73281995D01*
G37*
D15*
X115138946Y-99343922D03*
X122820446Y-100698378D03*
D12*
G36*
X123747211Y-100049450D02*
G01*
X123469374Y-101625143D01*
X121893681Y-101347306D01*
X122171518Y-99771613D01*
X123747211Y-100049450D01*
X123747211Y-100049450D01*
G37*
D15*
X121754941Y-61822747D03*
X129436441Y-63177203D03*
D12*
G36*
X130363206Y-62528275D02*
G01*
X130085369Y-64103968D01*
X128509676Y-63826131D01*
X128787513Y-62250438D01*
X130363206Y-62528275D01*
X130363206Y-62528275D01*
G37*
D15*
X152660121Y-105959918D03*
X160341621Y-107314374D03*
D12*
G36*
X161268386Y-106665446D02*
G01*
X160990549Y-108241139D01*
X159414856Y-107963302D01*
X159692693Y-106387609D01*
X161268386Y-106665446D01*
X161268386Y-106665446D01*
G37*
D15*
X322564574Y-125014238D03*
X330246074Y-123659782D03*
D12*
G36*
X330895002Y-122733017D02*
G01*
X331172839Y-124308710D01*
X329597146Y-124586547D01*
X329319309Y-123010854D01*
X330895002Y-122733017D01*
X330895002Y-122733017D01*
G37*
D15*
X254795984Y-69793199D03*
X262477484Y-68438743D03*
D12*
G36*
X263126412Y-67511978D02*
G01*
X263404249Y-69087671D01*
X261828556Y-69365508D01*
X261550719Y-67789815D01*
X263126412Y-67511978D01*
X263126412Y-67511978D01*
G37*
D15*
X77980784Y-63243022D03*
X85662284Y-64597478D03*
D12*
G36*
X86589049Y-63948550D02*
G01*
X86311212Y-65524243D01*
X84735519Y-65246406D01*
X85013356Y-63670713D01*
X86589049Y-63948550D01*
X86589049Y-63948550D01*
G37*
D15*
X177602584Y-74208760D03*
X185284084Y-75563216D03*
D12*
G36*
X186210849Y-74914288D02*
G01*
X185933012Y-76489981D01*
X184357319Y-76212144D01*
X184635156Y-74636451D01*
X186210849Y-74914288D01*
X186210849Y-74914288D01*
G37*
D15*
X111830948Y-118104510D03*
X119512448Y-119458966D03*
D12*
G36*
X120439213Y-118810038D02*
G01*
X120161376Y-120385731D01*
X118585683Y-120107894D01*
X118863520Y-118532201D01*
X120439213Y-118810038D01*
X120439213Y-118810038D01*
G37*
D15*
X331401169Y-65424477D03*
X339082669Y-64070021D03*
D12*
G36*
X339731597Y-63143256D02*
G01*
X340009434Y-64718949D01*
X338433741Y-64996786D01*
X338155904Y-63421093D01*
X339731597Y-63143256D01*
X339731597Y-63143256D01*
G37*
D15*
X256756801Y-133296440D03*
X263511799Y-129396440D03*
D12*
G36*
X263804619Y-128303620D02*
G01*
X264604619Y-129689260D01*
X263218979Y-130489260D01*
X262418979Y-129103620D01*
X263804619Y-128303620D01*
X263804619Y-128303620D01*
G37*
D15*
X319256576Y-106253650D03*
X326938076Y-104899194D03*
D12*
G36*
X327587004Y-103972429D02*
G01*
X327864841Y-105548122D01*
X326289148Y-105825959D01*
X326011311Y-104250266D01*
X327587004Y-103972429D01*
X327587004Y-103972429D01*
G37*
D15*
X64329568Y-99523698D03*
X72011068Y-100878154D03*
D12*
G36*
X72937833Y-100229226D02*
G01*
X72659996Y-101804919D01*
X71084303Y-101527082D01*
X71362140Y-99951389D01*
X72937833Y-100229226D01*
X72937833Y-100229226D01*
G37*
D15*
X354432679Y-100051154D03*
X362114179Y-98696698D03*
D12*
G36*
X362763107Y-97769933D02*
G01*
X363040944Y-99345626D01*
X361465251Y-99623463D01*
X361187414Y-98047770D01*
X362763107Y-97769933D01*
X362763107Y-97769933D01*
G37*
D15*
X315948579Y-87493063D03*
X323630079Y-86138607D03*
D12*
G36*
X324279007Y-85211842D02*
G01*
X324556844Y-86787535D01*
X322981151Y-87065372D01*
X322703314Y-85489679D01*
X324279007Y-85211842D01*
X324279007Y-85211842D01*
G37*
D15*
X118446944Y-80583335D03*
X126128444Y-81937791D03*
D12*
G36*
X127055209Y-81288863D02*
G01*
X126777372Y-82864556D01*
X125201679Y-82586719D01*
X125479516Y-81011026D01*
X127055209Y-81288863D01*
X127055209Y-81288863D01*
G37*
D15*
X341325162Y-121706240D03*
X349006662Y-120351784D03*
D12*
G36*
X349655590Y-119425019D02*
G01*
X349933427Y-121000712D01*
X348357734Y-121278549D01*
X348079897Y-119702856D01*
X349655590Y-119425019D01*
X349655590Y-119425019D01*
G37*
D15*
X159276116Y-68438743D03*
X166957616Y-69793199D03*
D12*
G36*
X167884381Y-69144271D02*
G01*
X167606544Y-70719964D01*
X166030851Y-70442127D01*
X166308688Y-68866434D01*
X167884381Y-69144271D01*
X167884381Y-69144271D01*
G37*
D15*
X334709167Y-84185065D03*
X342390667Y-82830609D03*
D12*
G36*
X343039595Y-81903844D02*
G01*
X343317432Y-83479537D01*
X341741739Y-83757374D01*
X341463902Y-82181681D01*
X343039595Y-81903844D01*
X343039595Y-81903844D01*
G37*
D15*
X101431519Y-67378019D03*
X109113019Y-68732475D03*
D12*
G36*
X110039784Y-68083547D02*
G01*
X109761947Y-69659240D01*
X108186254Y-69381403D01*
X108464091Y-67805710D01*
X110039784Y-68083547D01*
X110039784Y-68083547D01*
G37*
D15*
X312640581Y-68732475D03*
X320322081Y-67378019D03*
D12*
G36*
X320971009Y-66451254D02*
G01*
X321248846Y-68026947D01*
X319673153Y-68304784D01*
X319395316Y-66729091D01*
X320971009Y-66451254D01*
X320971009Y-66451254D01*
G37*
D15*
X292317159Y-63177203D03*
X299998659Y-61822747D03*
D12*
G36*
X300647587Y-60895982D02*
G01*
X300925424Y-62471675D01*
X299349731Y-62749512D01*
X299071894Y-61173819D01*
X300647587Y-60895982D01*
X300647587Y-60895982D01*
G37*
D15*
X243085511Y-113084391D03*
X250767011Y-111729935D03*
D12*
G36*
X251415939Y-110803170D02*
G01*
X251693776Y-112378863D01*
X250118083Y-112656700D01*
X249840246Y-111081007D01*
X251415939Y-110803170D01*
X251415939Y-110803170D01*
G37*
D15*
X131025655Y-118950489D03*
X138707155Y-120304945D03*
D12*
G36*
X139633920Y-119656017D02*
G01*
X139356083Y-121231710D01*
X137780390Y-120953873D01*
X138058227Y-119378180D01*
X139633920Y-119656017D01*
X139633920Y-119656017D01*
G37*
D15*
X261411979Y-107314374D03*
X269093479Y-105959918D03*
D12*
G36*
X269742407Y-105033153D02*
G01*
X270020244Y-106608846D01*
X268444551Y-106886683D01*
X268166714Y-105310990D01*
X269742407Y-105033153D01*
X269742407Y-105033153D01*
G37*
D15*
X283046445Y-120304945D03*
X290727945Y-118950489D03*
D12*
G36*
X291376873Y-118023724D02*
G01*
X291654710Y-119599417D01*
X290079017Y-119877254D01*
X289801180Y-118301561D01*
X291376873Y-118023724D01*
X291376873Y-118023724D01*
G37*
D15*
X295625157Y-81937791D03*
X303306657Y-80583335D03*
D12*
G36*
X303955585Y-79656570D02*
G01*
X304233422Y-81232263D01*
X302657729Y-81510100D01*
X302379892Y-79934407D01*
X303955585Y-79656570D01*
X303955585Y-79656570D01*
G37*
D15*
X276430450Y-82783770D03*
X284111950Y-81429314D03*
D12*
G36*
X284760878Y-80502549D02*
G01*
X285038715Y-82078242D01*
X283463022Y-82356079D01*
X283185185Y-80780386D01*
X284760878Y-80502549D01*
X284760878Y-80502549D01*
G37*
D15*
X258103982Y-88553787D03*
X265785482Y-87199331D03*
D12*
G36*
X266434410Y-86272566D02*
G01*
X266712247Y-87848259D01*
X265136554Y-88126096D01*
X264858717Y-86550403D01*
X266434410Y-86272566D01*
X266434410Y-86272566D01*
G37*
D15*
X273122452Y-64023182D03*
X280803952Y-62668726D03*
D12*
G36*
X281452880Y-61741961D02*
G01*
X281730717Y-63317654D01*
X280155024Y-63595491D01*
X279877187Y-62019798D01*
X281452880Y-61741961D01*
X281452880Y-61741961D01*
G37*
D15*
X239777514Y-94323804D03*
X247459014Y-92969348D03*
D12*
G36*
X248107942Y-92042583D02*
G01*
X248385779Y-93618276D01*
X246810086Y-93896113D01*
X246532249Y-92320420D01*
X248107942Y-92042583D01*
X248107942Y-92042583D01*
G37*
D15*
X174294587Y-92969348D03*
X181976087Y-94323804D03*
D12*
G36*
X182902852Y-93674876D02*
G01*
X182625015Y-95250569D01*
X181049322Y-94972732D01*
X181327159Y-93397039D01*
X182902852Y-93674876D01*
X182902852Y-93674876D01*
G37*
D15*
X155968119Y-87199331D03*
X163649619Y-88553787D03*
D12*
G36*
X164576384Y-87904859D02*
G01*
X164298547Y-89480552D01*
X162722854Y-89202715D01*
X163000691Y-87627022D01*
X164576384Y-87904859D01*
X164576384Y-87904859D01*
G37*
D15*
X365195122Y-78809569D03*
X372876622Y-77455113D03*
D12*
G36*
X373525550Y-76528348D02*
G01*
X373803387Y-78104041D01*
X372227694Y-78381878D01*
X371949857Y-76806185D01*
X373525550Y-76528348D01*
X373525550Y-76528348D01*
G37*
D15*
X140949648Y-62668726D03*
X148631148Y-64023182D03*
D12*
G36*
X149557913Y-63374254D02*
G01*
X149280076Y-64949947D01*
X147704383Y-64672110D01*
X147982220Y-63096417D01*
X149557913Y-63374254D01*
X149557913Y-63374254D01*
G37*
D15*
X302241152Y-119458966D03*
X309922652Y-118104510D03*
D12*
G36*
X310571580Y-117177745D02*
G01*
X310849417Y-118753438D01*
X309273724Y-119031275D01*
X308995887Y-117455582D01*
X310571580Y-117177745D01*
X310571580Y-117177745D01*
G37*
D15*
X298933154Y-100698378D03*
X306614654Y-99343922D03*
D12*
G36*
X307263582Y-98417157D02*
G01*
X307541419Y-99992850D01*
X305965726Y-100270687D01*
X305687889Y-98694994D01*
X307263582Y-98417157D01*
X307263582Y-98417157D01*
G37*
D15*
X137641651Y-81429314D03*
X145323151Y-82783770D03*
D12*
G36*
X146249916Y-82134842D02*
G01*
X145972079Y-83710535D01*
X144396386Y-83432698D01*
X144674223Y-81857005D01*
X146249916Y-82134842D01*
X146249916Y-82134842D01*
G37*
D15*
X70401865Y-119938285D03*
X78083365Y-121292741D03*
D12*
G36*
X79010130Y-120643813D02*
G01*
X78732293Y-122219506D01*
X77156600Y-121941669D01*
X77434437Y-120365976D01*
X79010130Y-120643813D01*
X79010130Y-120643813D01*
G37*
D15*
X194268347Y-134169132D03*
X198168347Y-127414134D03*
D12*
G36*
X197875527Y-126321314D02*
G01*
X199261167Y-127121314D01*
X198461167Y-128506954D01*
X197075527Y-127706954D01*
X197875527Y-126321314D01*
X197875527Y-126321314D01*
G37*
D15*
X279738447Y-101544357D03*
X287419947Y-100189901D03*
D12*
G36*
X288068875Y-99263136D02*
G01*
X288346712Y-100838829D01*
X286771019Y-101116666D01*
X286493182Y-99540973D01*
X288068875Y-99263136D01*
X288068875Y-99263136D01*
G37*
D15*
X72327713Y-81590110D03*
X80009213Y-82944566D03*
D12*
G36*
X80935978Y-82295638D02*
G01*
X80658141Y-83871331D01*
X79082448Y-83593494D01*
X79360285Y-82017801D01*
X80935978Y-82295638D01*
X80935978Y-82295638D01*
G37*
D15*
X134333653Y-100189901D03*
X142015153Y-101544357D03*
D12*
G36*
X142941918Y-100895429D02*
G01*
X142664081Y-102471122D01*
X141088388Y-102193285D01*
X141366225Y-100617592D01*
X142941918Y-100895429D01*
X142941918Y-100895429D01*
G37*
D15*
X354851904Y-61289480D03*
X362533404Y-59935024D03*
D12*
G36*
X363182332Y-59008259D02*
G01*
X363460169Y-60583952D01*
X361884476Y-60861789D01*
X361606639Y-59286096D01*
X363182332Y-59008259D01*
X363182332Y-59008259D01*
G37*
D15*
X158241801Y-129396440D03*
X164996799Y-133296440D03*
D12*
G36*
X166089619Y-133003620D02*
G01*
X165289619Y-134389260D01*
X163903979Y-133589260D01*
X164703979Y-132203620D01*
X166089619Y-133003620D01*
X166089619Y-133003620D01*
G37*
D15*
X170986589Y-111729935D03*
X178668089Y-113084391D03*
D12*
G36*
X179594854Y-112435463D02*
G01*
X179317017Y-114011156D01*
X177741324Y-113733319D01*
X178019161Y-112157626D01*
X179594854Y-112435463D01*
X179594854Y-112435463D01*
G37*
D15*
X91507526Y-123659782D03*
X99189026Y-125014238D03*
D12*
G36*
X100115791Y-124365310D02*
G01*
X99837954Y-125941003D01*
X98262261Y-125663166D01*
X98540098Y-124087473D01*
X100115791Y-124365310D01*
X100115791Y-124365310D01*
G37*
D15*
X223585253Y-127414134D03*
X227485253Y-134169132D03*
D12*
G36*
X228578073Y-134461952D02*
G01*
X227192433Y-135261952D01*
X226392433Y-133876312D01*
X227778073Y-133076312D01*
X228578073Y-134461952D01*
X228578073Y-134461952D01*
G37*
D15*
X98123522Y-86138607D03*
X105805022Y-87493063D03*
D12*
G36*
X106731787Y-86844135D02*
G01*
X106453950Y-88419828D01*
X104878257Y-88141991D01*
X105156094Y-86566298D01*
X106731787Y-86844135D01*
X106731787Y-86844135D01*
G37*
D11*
X107074308Y-65149016D03*
D12*
G36*
X105970879Y-65921645D02*
G01*
X106301679Y-64045587D01*
X108177737Y-64376387D01*
X107846937Y-66252445D01*
X105970879Y-65921645D01*
X105970879Y-65921645D01*
G37*
D11*
X104572896Y-64707949D03*
D13*
X104938308Y-55552308D03*
X104166497Y-56157478D03*
D14*
X103394684Y-56762648D02*
X104938310Y-55552308D01*
D13*
X110089279Y-55363902D03*
X110019225Y-55646024D03*
D14*
X109949171Y-55928145D02*
X110089279Y-55363903D01*
D11*
X194103716Y-128104281D03*
D12*
G36*
X194452355Y-129405420D02*
G01*
X192802577Y-128452920D01*
X193755077Y-126803142D01*
X195404855Y-127755642D01*
X194452355Y-129405420D01*
X194452355Y-129405420D01*
G37*
D11*
X192833716Y-130303985D03*
D13*
X184355205Y-126829197D03*
X184659904Y-127761443D03*
D14*
X184964602Y-128693690D02*
X184355206Y-126829196D01*
D13*
X185939898Y-121924428D03*
X186181046Y-122086748D03*
D14*
X186422193Y-122249069D02*
X185939899Y-121924427D01*
D11*
X228919884Y-130303985D03*
D12*
G36*
X227618745Y-129955346D02*
G01*
X229268523Y-129002846D01*
X230221023Y-130652624D01*
X228571245Y-131605124D01*
X227618745Y-129955346D01*
X227618745Y-129955346D01*
G37*
D11*
X227649884Y-128104281D03*
D13*
X234898395Y-122499069D03*
X233938697Y-122296823D03*
D14*
X232978998Y-122094576D02*
X234898396Y-122499070D01*
D13*
X238353702Y-126323838D03*
X238092555Y-126451517D03*
D14*
X237831407Y-126579197D02*
X238353703Y-126323837D01*
D11*
X345865285Y-117681714D03*
D12*
G36*
X345092656Y-118785143D02*
G01*
X344761856Y-116909085D01*
X346637914Y-116578285D01*
X346968714Y-118454343D01*
X345092656Y-118785143D01*
X345092656Y-118785143D01*
G37*
D11*
X343363873Y-118122781D03*
D13*
X340575834Y-109394313D03*
X340057549Y-110226963D03*
D14*
X339539262Y-111059612D02*
X340575836Y-109394314D01*
D13*
X345351725Y-107455534D03*
X345382387Y-107744602D03*
D14*
X345413049Y-108033669D02*
X345351725Y-107455535D01*
D16*
X203268200Y-62278400D03*
X203268200Y-64818400D03*
X203268200Y-67358400D03*
X203268200Y-69898400D03*
X203268200Y-72438400D03*
X203268200Y-74978400D03*
X203268200Y-77518400D03*
X203268200Y-80058400D03*
X203268200Y-82598400D03*
X203268200Y-85138400D03*
X203268200Y-87678400D03*
X203268200Y-90218400D03*
X218488200Y-90218400D03*
X218488200Y-87678400D03*
X218488200Y-85138400D03*
X218488200Y-82598400D03*
X218488200Y-80058400D03*
X218488200Y-77518400D03*
X218488200Y-74978400D03*
X218488200Y-72438400D03*
X218488200Y-69898400D03*
X218488200Y-67358400D03*
X218488200Y-64818400D03*
X218488200Y-62278400D03*
D11*
X100458312Y-102670191D03*
D12*
G36*
X99354883Y-103442820D02*
G01*
X99685683Y-101566762D01*
X101561741Y-101897562D01*
X101230941Y-103773620D01*
X99354883Y-103442820D01*
X99354883Y-103442820D01*
G37*
D11*
X97956900Y-102229124D03*
D13*
X98322312Y-93073483D03*
X97550501Y-93678653D03*
D14*
X96778688Y-94283823D02*
X98322314Y-93073483D01*
D13*
X103473283Y-92885077D03*
X103403229Y-93167199D03*
D14*
X103333175Y-93449320D02*
X103473283Y-92885078D01*
D11*
X241009639Y-71538690D03*
D12*
G36*
X240237010Y-72642119D02*
G01*
X239906210Y-70766061D01*
X241782268Y-70435261D01*
X242113068Y-72311319D01*
X240237010Y-72642119D01*
X240237010Y-72642119D01*
G37*
D11*
X238508227Y-71979757D03*
D13*
X235720188Y-63251289D03*
X235201903Y-64083939D03*
D14*
X234683616Y-64916588D02*
X235720190Y-63251290D01*
D13*
X240496079Y-61312510D03*
X240526741Y-61601578D03*
D14*
X240557403Y-61890645D02*
X240496079Y-61312511D01*
D11*
X120781734Y-97114919D03*
D12*
G36*
X119678305Y-97887548D02*
G01*
X120009105Y-96011490D01*
X121885163Y-96342290D01*
X121554363Y-98218348D01*
X119678305Y-97887548D01*
X119678305Y-97887548D01*
G37*
D11*
X118280322Y-96673852D03*
D13*
X118645734Y-87518211D03*
X117873923Y-88123381D03*
D14*
X117102110Y-88728551D02*
X118645736Y-87518211D01*
D13*
X123796705Y-87329805D03*
X123726651Y-87611927D03*
D14*
X123656597Y-87894048D02*
X123796705Y-87329806D01*
D11*
X127397730Y-59593744D03*
D12*
G36*
X126294301Y-60366373D02*
G01*
X126625101Y-58490315D01*
X128501159Y-58821115D01*
X128170359Y-60697173D01*
X126294301Y-60366373D01*
X126294301Y-60366373D01*
G37*
D11*
X124896318Y-59152677D03*
D13*
X125261730Y-49997036D03*
X124489919Y-50602206D03*
D14*
X123718106Y-51207376D02*
X125261732Y-49997036D01*
D13*
X130412701Y-49808630D03*
X130342647Y-50090752D03*
D14*
X130272593Y-50372873D02*
X130412701Y-49808631D01*
D11*
X158302909Y-103730915D03*
D12*
G36*
X157199480Y-104503544D02*
G01*
X157530280Y-102627486D01*
X159406338Y-102958286D01*
X159075538Y-104834344D01*
X157199480Y-104503544D01*
X157199480Y-104503544D01*
G37*
D11*
X155801497Y-103289848D03*
D13*
X156166909Y-94134207D03*
X155395098Y-94739377D03*
D14*
X154623285Y-95344547D02*
X156166911Y-94134207D01*
D13*
X161317880Y-93945801D03*
X161247826Y-94227923D03*
D14*
X161177772Y-94510044D02*
X161317880Y-93945802D01*
D11*
X327104697Y-120989712D03*
D12*
G36*
X326332068Y-122093141D02*
G01*
X326001268Y-120217083D01*
X327877326Y-119886283D01*
X328208126Y-121762341D01*
X326332068Y-122093141D01*
X326332068Y-122093141D01*
G37*
D11*
X324603285Y-121430779D03*
D13*
X321815246Y-112702311D03*
X321296961Y-113534961D03*
D14*
X320778674Y-114367610D02*
X321815248Y-112702312D01*
D13*
X326591137Y-110763532D03*
X326621799Y-111052600D03*
D14*
X326652461Y-111341667D02*
X326591137Y-110763533D01*
D11*
X259336107Y-65768673D03*
D12*
G36*
X258563478Y-66872102D02*
G01*
X258232678Y-64996044D01*
X260108736Y-64665244D01*
X260439536Y-66541302D01*
X258563478Y-66872102D01*
X258563478Y-66872102D01*
G37*
D11*
X256834695Y-66209740D03*
D13*
X254046656Y-57481272D03*
X253528371Y-58313922D03*
D14*
X253010084Y-59146571D02*
X254046658Y-57481273D01*
D13*
X258822547Y-55542493D03*
X258853209Y-55831561D03*
D14*
X258883871Y-56120628D02*
X258822547Y-55542494D01*
D11*
X83623573Y-61014019D03*
D12*
G36*
X82520144Y-61786648D02*
G01*
X82850944Y-59910590D01*
X84727002Y-60241390D01*
X84396202Y-62117448D01*
X82520144Y-61786648D01*
X82520144Y-61786648D01*
G37*
D11*
X81122161Y-60572952D03*
D13*
X81487573Y-51417311D03*
X80715762Y-52022481D03*
D14*
X79943949Y-52627651D02*
X81487575Y-51417311D01*
D13*
X86638544Y-51228905D03*
X86568490Y-51511027D03*
D14*
X86498436Y-51793148D02*
X86638544Y-51228906D01*
D11*
X183245373Y-71979757D03*
D12*
G36*
X182141944Y-72752386D02*
G01*
X182472744Y-70876328D01*
X184348802Y-71207128D01*
X184018002Y-73083186D01*
X182141944Y-72752386D01*
X182141944Y-72752386D01*
G37*
D11*
X180743961Y-71538690D03*
D13*
X181109373Y-62383049D03*
X180337562Y-62988219D03*
D14*
X179565749Y-63593389D02*
X181109375Y-62383049D01*
D13*
X186260344Y-62194643D03*
X186190290Y-62476765D03*
D14*
X186120236Y-62758886D02*
X186260344Y-62194644D01*
D11*
X117473737Y-115875507D03*
D12*
G36*
X116370308Y-116648136D02*
G01*
X116701108Y-114772078D01*
X118577166Y-115102878D01*
X118246366Y-116978936D01*
X116370308Y-116648136D01*
X116370308Y-116648136D01*
G37*
D11*
X114972325Y-115434440D03*
D13*
X115337737Y-106278799D03*
X114565926Y-106883969D03*
D14*
X113794113Y-107489139D02*
X115337739Y-106278799D01*
D13*
X120488708Y-106090393D03*
X120418654Y-106372515D03*
D14*
X120348600Y-106654636D02*
X120488708Y-106090394D01*
D11*
X335941292Y-61399951D03*
D12*
G36*
X335168663Y-62503380D02*
G01*
X334837863Y-60627322D01*
X336713921Y-60296522D01*
X337044721Y-62172580D01*
X335168663Y-62503380D01*
X335168663Y-62503380D01*
G37*
D11*
X333439880Y-61841018D03*
D13*
X330651841Y-53112550D03*
X330133556Y-53945200D03*
D14*
X329615269Y-54777849D02*
X330651843Y-53112551D01*
D13*
X335427732Y-51173771D03*
X335458394Y-51462839D03*
D14*
X335489056Y-51751906D02*
X335427732Y-51173772D01*
D11*
X259646652Y-127961809D03*
D12*
G36*
X259298013Y-129262948D02*
G01*
X258345513Y-127613170D01*
X259995291Y-126660670D01*
X260947791Y-128310448D01*
X259298013Y-129262948D01*
X259298013Y-129262948D01*
G37*
D11*
X257446948Y-129231809D03*
D13*
X251841736Y-121983298D03*
X251639490Y-122942996D03*
D14*
X251437243Y-123902695D02*
X251841737Y-121983297D01*
D13*
X255666505Y-118527991D03*
X255794184Y-118789138D03*
D14*
X255921864Y-119050286D02*
X255666504Y-118527990D01*
D11*
X323796700Y-102229124D03*
D12*
G36*
X323024071Y-103332553D02*
G01*
X322693271Y-101456495D01*
X324569329Y-101125695D01*
X324900129Y-103001753D01*
X323024071Y-103332553D01*
X323024071Y-103332553D01*
G37*
D11*
X321295288Y-102670191D03*
D13*
X318507249Y-93941723D03*
X317988964Y-94774373D03*
D14*
X317470677Y-95607022D02*
X318507251Y-93941724D01*
D13*
X323283140Y-92002944D03*
X323313802Y-92292012D03*
D14*
X323344464Y-92581079D02*
X323283140Y-92002945D01*
D11*
X69972357Y-97294695D03*
D12*
G36*
X68868928Y-98067324D02*
G01*
X69199728Y-96191266D01*
X71075786Y-96522066D01*
X70744986Y-98398124D01*
X68868928Y-98067324D01*
X68868928Y-98067324D01*
G37*
D11*
X67470945Y-96853628D03*
D13*
X67836357Y-87697987D03*
X67064546Y-88303157D03*
D14*
X66292733Y-88908327D02*
X67836359Y-87697987D01*
D13*
X72987328Y-87509581D03*
X72917274Y-87791703D03*
D14*
X72847220Y-88073824D02*
X72987328Y-87509582D01*
D11*
X358972802Y-96026628D03*
D12*
G36*
X358200173Y-97130057D02*
G01*
X357869373Y-95253999D01*
X359745431Y-94923199D01*
X360076231Y-96799257D01*
X358200173Y-97130057D01*
X358200173Y-97130057D01*
G37*
D11*
X356471390Y-96467695D03*
D13*
X353683351Y-87739227D03*
X353165066Y-88571877D03*
D14*
X352646779Y-89404526D02*
X353683353Y-87739228D01*
D13*
X358459242Y-85800448D03*
X358489904Y-86089516D03*
D14*
X358520566Y-86378583D02*
X358459242Y-85800449D01*
D11*
X320488702Y-83468537D03*
D12*
G36*
X319716073Y-84571966D02*
G01*
X319385273Y-82695908D01*
X321261331Y-82365108D01*
X321592131Y-84241166D01*
X319716073Y-84571966D01*
X319716073Y-84571966D01*
G37*
D11*
X317987290Y-83909604D03*
D13*
X315199251Y-75181136D03*
X314680966Y-76013786D03*
D14*
X314162679Y-76846435D02*
X315199253Y-75181137D01*
D13*
X319975142Y-73242357D03*
X320005804Y-73531425D03*
D14*
X320036466Y-73820492D02*
X319975142Y-73242358D01*
D11*
X124089732Y-78354332D03*
D12*
G36*
X122986303Y-79126961D02*
G01*
X123317103Y-77250903D01*
X125193161Y-77581703D01*
X124862361Y-79457761D01*
X122986303Y-79126961D01*
X122986303Y-79126961D01*
G37*
D11*
X121588320Y-77913265D03*
D13*
X121953732Y-68757624D03*
X121181921Y-69362794D03*
D14*
X120410108Y-69967964D02*
X121953734Y-68757624D01*
D13*
X127104703Y-68569218D03*
X127034649Y-68851340D03*
D14*
X126964595Y-69133461D02*
X127104703Y-68569219D01*
D11*
X164918905Y-66209740D03*
D12*
G36*
X163815476Y-66982369D02*
G01*
X164146276Y-65106311D01*
X166022334Y-65437111D01*
X165691534Y-67313169D01*
X163815476Y-66982369D01*
X163815476Y-66982369D01*
G37*
D11*
X162417493Y-65768673D03*
D13*
X162782905Y-56613032D03*
X162011094Y-57218202D03*
D14*
X161239281Y-57823372D02*
X162782907Y-56613032D01*
D13*
X167933876Y-56424626D03*
X167863822Y-56706748D03*
D14*
X167793768Y-56988869D02*
X167933876Y-56424627D01*
D11*
X339249290Y-80160539D03*
D12*
G36*
X338476661Y-81263968D02*
G01*
X338145861Y-79387910D01*
X340021919Y-79057110D01*
X340352719Y-80933168D01*
X338476661Y-81263968D01*
X338476661Y-81263968D01*
G37*
D11*
X336747878Y-80601606D03*
D13*
X333959839Y-71873138D03*
X333441554Y-72705788D03*
D14*
X332923267Y-73538437D02*
X333959841Y-71873139D01*
D13*
X338735730Y-69934359D03*
X338766392Y-70223427D03*
D14*
X338797054Y-70512494D02*
X338735730Y-69934360D01*
D11*
X317180704Y-64707949D03*
D12*
G36*
X316408075Y-65811378D02*
G01*
X316077275Y-63935320D01*
X317953333Y-63604520D01*
X318284133Y-65480578D01*
X316408075Y-65811378D01*
X316408075Y-65811378D01*
G37*
D11*
X314679292Y-65149016D03*
D13*
X311891253Y-56420548D03*
X311372968Y-57253198D03*
D14*
X310854681Y-58085847D02*
X311891255Y-56420549D01*
D13*
X316667144Y-54481769D03*
X316697806Y-54770837D03*
D14*
X316728468Y-55059904D02*
X316667144Y-54481770D01*
D11*
X296857282Y-59152677D03*
D12*
G36*
X296084653Y-60256106D02*
G01*
X295753853Y-58380048D01*
X297629911Y-58049248D01*
X297960711Y-59925306D01*
X296084653Y-60256106D01*
X296084653Y-60256106D01*
G37*
D11*
X294355870Y-59593744D03*
D13*
X291567831Y-50865276D03*
X291049546Y-51697926D03*
D14*
X290531259Y-52530575D02*
X291567833Y-50865277D01*
D13*
X296343722Y-48926497D03*
X296374384Y-49215565D03*
D14*
X296405046Y-49504632D02*
X296343722Y-48926498D01*
D11*
X247625635Y-109059865D03*
D12*
G36*
X246853006Y-110163294D02*
G01*
X246522206Y-108287236D01*
X248398264Y-107956436D01*
X248729064Y-109832494D01*
X246853006Y-110163294D01*
X246853006Y-110163294D01*
G37*
D11*
X245124223Y-109500932D03*
D13*
X242336184Y-100772464D03*
X241817899Y-101605114D03*
D14*
X241299612Y-102437763D02*
X242336186Y-100772465D01*
D13*
X247112075Y-98833685D03*
X247142737Y-99122753D03*
D14*
X247173399Y-99411820D02*
X247112075Y-98833686D01*
D11*
X136668444Y-116721486D03*
D12*
G36*
X135565015Y-117494115D02*
G01*
X135895815Y-115618057D01*
X137771873Y-115948857D01*
X137441073Y-117824915D01*
X135565015Y-117494115D01*
X135565015Y-117494115D01*
G37*
D11*
X134167032Y-116280419D03*
D13*
X134532444Y-107124778D03*
X133760633Y-107729948D03*
D14*
X132988820Y-108335118D02*
X134532446Y-107124778D01*
D13*
X139683415Y-106936372D03*
X139613361Y-107218494D03*
D14*
X139543307Y-107500615D02*
X139683415Y-106936373D01*
D11*
X265952103Y-103289848D03*
D12*
G36*
X265179474Y-104393277D02*
G01*
X264848674Y-102517219D01*
X266724732Y-102186419D01*
X267055532Y-104062477D01*
X265179474Y-104393277D01*
X265179474Y-104393277D01*
G37*
D11*
X263450691Y-103730915D03*
D13*
X260662652Y-95002447D03*
X260144367Y-95835097D03*
D14*
X259626080Y-96667746D02*
X260662654Y-95002448D01*
D13*
X265438543Y-93063668D03*
X265469205Y-93352736D03*
D14*
X265499867Y-93641803D02*
X265438543Y-93063669D01*
D11*
X287586568Y-116280419D03*
D12*
G36*
X286813939Y-117383848D02*
G01*
X286483139Y-115507790D01*
X288359197Y-115176990D01*
X288689997Y-117053048D01*
X286813939Y-117383848D01*
X286813939Y-117383848D01*
G37*
D11*
X285085156Y-116721486D03*
D13*
X282297117Y-107993018D03*
X281778832Y-108825668D03*
D14*
X281260545Y-109658317D02*
X282297119Y-107993019D01*
D13*
X287073008Y-106054239D03*
X287103670Y-106343307D03*
D14*
X287134332Y-106632374D02*
X287073008Y-106054240D01*
D11*
X300165280Y-77913265D03*
D12*
G36*
X299392651Y-79016694D02*
G01*
X299061851Y-77140636D01*
X300937909Y-76809836D01*
X301268709Y-78685894D01*
X299392651Y-79016694D01*
X299392651Y-79016694D01*
G37*
D11*
X297663868Y-78354332D03*
D13*
X294875829Y-69625864D03*
X294357544Y-70458514D03*
D14*
X293839257Y-71291163D02*
X294875831Y-69625865D01*
D13*
X299651720Y-67687085D03*
X299682382Y-67976153D03*
D14*
X299713044Y-68265220D02*
X299651720Y-67687086D01*
D11*
X280970573Y-78759244D03*
D12*
G36*
X280197944Y-79862673D02*
G01*
X279867144Y-77986615D01*
X281743202Y-77655815D01*
X282074002Y-79531873D01*
X280197944Y-79862673D01*
X280197944Y-79862673D01*
G37*
D11*
X278469161Y-79200311D03*
D13*
X275681122Y-70471843D03*
X275162837Y-71304493D03*
D14*
X274644550Y-72137142D02*
X275681124Y-70471844D01*
D13*
X280457013Y-68533064D03*
X280487675Y-68822132D03*
D14*
X280518337Y-69111199D02*
X280457013Y-68533065D01*
D11*
X262644105Y-84529261D03*
D12*
G36*
X261871476Y-85632690D02*
G01*
X261540676Y-83756632D01*
X263416734Y-83425832D01*
X263747534Y-85301890D01*
X261871476Y-85632690D01*
X261871476Y-85632690D01*
G37*
D11*
X260142693Y-84970328D03*
D13*
X257354654Y-76241860D03*
X256836369Y-77074510D03*
D14*
X256318082Y-77907159D02*
X257354656Y-76241861D01*
D13*
X262130545Y-74303081D03*
X262161207Y-74592149D03*
D14*
X262191869Y-74881216D02*
X262130545Y-74303082D01*
D11*
X277662575Y-59998656D03*
D12*
G36*
X276889946Y-61102085D02*
G01*
X276559146Y-59226027D01*
X278435204Y-58895227D01*
X278766004Y-60771285D01*
X276889946Y-61102085D01*
X276889946Y-61102085D01*
G37*
D11*
X275161163Y-60439723D03*
D13*
X272373124Y-51711255D03*
X271854839Y-52543905D03*
D14*
X271336552Y-53376554D02*
X272373126Y-51711256D01*
D13*
X277149015Y-49772476D03*
X277179677Y-50061544D03*
D14*
X277210339Y-50350611D02*
X277149015Y-49772477D01*
D11*
X244317637Y-90299278D03*
D12*
G36*
X243545008Y-91402707D02*
G01*
X243214208Y-89526649D01*
X245090266Y-89195849D01*
X245421066Y-91071907D01*
X243545008Y-91402707D01*
X243545008Y-91402707D01*
G37*
D11*
X241816225Y-90740345D03*
D13*
X239028186Y-82011877D03*
X238509901Y-82844527D03*
D14*
X237991614Y-83677176D02*
X239028188Y-82011878D01*
D13*
X243804077Y-80073098D03*
X243834739Y-80362166D03*
D14*
X243865401Y-80651233D02*
X243804077Y-80073099D01*
D11*
X179937375Y-90740345D03*
D12*
G36*
X178833946Y-91512974D02*
G01*
X179164746Y-89636916D01*
X181040804Y-89967716D01*
X180710004Y-91843774D01*
X178833946Y-91512974D01*
X178833946Y-91512974D01*
G37*
D11*
X177435963Y-90299278D03*
D13*
X177801375Y-81143637D03*
X177029564Y-81748807D03*
D14*
X176257751Y-82353977D02*
X177801377Y-81143637D01*
D13*
X182952346Y-80955231D03*
X182882292Y-81237353D03*
D14*
X182812238Y-81519474D02*
X182952346Y-80955232D01*
D11*
X161610907Y-84970328D03*
D12*
G36*
X160507478Y-85742957D02*
G01*
X160838278Y-83866899D01*
X162714336Y-84197699D01*
X162383536Y-86073757D01*
X160507478Y-85742957D01*
X160507478Y-85742957D01*
G37*
D11*
X159109495Y-84529261D03*
D13*
X159474907Y-75373620D03*
X158703096Y-75978790D03*
D14*
X157931283Y-76583960D02*
X159474909Y-75373620D01*
D13*
X164625878Y-75185214D03*
X164555824Y-75467336D03*
D14*
X164485770Y-75749457D02*
X164625878Y-75185215D01*
D11*
X369735245Y-74785043D03*
D12*
G36*
X368962616Y-75888472D02*
G01*
X368631816Y-74012414D01*
X370507874Y-73681614D01*
X370838674Y-75557672D01*
X368962616Y-75888472D01*
X368962616Y-75888472D01*
G37*
D11*
X367233833Y-75226110D03*
D13*
X364445794Y-66497642D03*
X363927509Y-67330292D03*
D14*
X363409222Y-68162941D02*
X364445796Y-66497643D01*
D13*
X369221685Y-64558863D03*
X369252347Y-64847931D03*
D14*
X369283009Y-65136998D02*
X369221685Y-64558864D01*
D11*
X146592437Y-60439723D03*
D12*
G36*
X145489008Y-61212352D02*
G01*
X145819808Y-59336294D01*
X147695866Y-59667094D01*
X147365066Y-61543152D01*
X145489008Y-61212352D01*
X145489008Y-61212352D01*
G37*
D11*
X144091025Y-59998656D03*
D13*
X144456437Y-50843015D03*
X143684626Y-51448185D03*
D14*
X142912813Y-52053355D02*
X144456439Y-50843015D01*
D13*
X149607408Y-50654609D03*
X149537354Y-50936731D03*
D14*
X149467300Y-51218852D02*
X149607408Y-50654610D01*
D11*
X306781275Y-115434440D03*
D12*
G36*
X306008646Y-116537869D02*
G01*
X305677846Y-114661811D01*
X307553904Y-114331011D01*
X307884704Y-116207069D01*
X306008646Y-116537869D01*
X306008646Y-116537869D01*
G37*
D11*
X304279863Y-115875507D03*
D13*
X301491824Y-107147039D03*
X300973539Y-107979689D03*
D14*
X300455252Y-108812338D02*
X301491826Y-107147040D01*
D13*
X306267715Y-105208260D03*
X306298377Y-105497328D03*
D14*
X306329039Y-105786395D02*
X306267715Y-105208261D01*
D11*
X303473278Y-96673852D03*
D12*
G36*
X302700649Y-97777281D02*
G01*
X302369849Y-95901223D01*
X304245907Y-95570423D01*
X304576707Y-97446481D01*
X302700649Y-97777281D01*
X302700649Y-97777281D01*
G37*
D11*
X300971866Y-97114919D03*
D13*
X298183827Y-88386451D03*
X297665542Y-89219101D03*
D14*
X297147255Y-90051750D02*
X298183829Y-88386452D01*
D13*
X302959718Y-86447672D03*
X302990380Y-86736740D03*
D14*
X303021042Y-87025807D02*
X302959718Y-86447673D01*
D11*
X143284439Y-79200311D03*
D12*
G36*
X142181010Y-79972940D02*
G01*
X142511810Y-78096882D01*
X144387868Y-78427682D01*
X144057068Y-80303740D01*
X142181010Y-79972940D01*
X142181010Y-79972940D01*
G37*
D11*
X140783027Y-78759244D03*
D13*
X141148439Y-69603603D03*
X140376628Y-70208773D03*
D14*
X139604815Y-70813943D02*
X141148441Y-69603603D01*
D13*
X146299410Y-69415197D03*
X146229356Y-69697319D03*
D14*
X146159302Y-69979440D02*
X146299410Y-69415198D01*
D11*
X76044654Y-117709282D03*
D12*
G36*
X74941225Y-118481911D02*
G01*
X75272025Y-116605853D01*
X77148083Y-116936653D01*
X76817283Y-118812711D01*
X74941225Y-118481911D01*
X74941225Y-118481911D01*
G37*
D11*
X73543242Y-117268215D03*
D13*
X73908654Y-108112574D03*
X73136843Y-108717744D03*
D14*
X72365030Y-109322914D02*
X73908656Y-108112574D01*
D13*
X79059625Y-107924168D03*
X78989571Y-108206290D03*
D14*
X78919517Y-108488411D02*
X79059625Y-107924169D01*
D11*
X284278571Y-97519831D03*
D12*
G36*
X283505942Y-98623260D02*
G01*
X283175142Y-96747202D01*
X285051200Y-96416402D01*
X285382000Y-98292460D01*
X283505942Y-98623260D01*
X283505942Y-98623260D01*
G37*
D11*
X281777159Y-97960898D03*
D13*
X278989120Y-89232430D03*
X278470835Y-90065080D03*
D14*
X277952548Y-90897729D02*
X278989122Y-89232431D01*
D13*
X283765011Y-87293651D03*
X283795673Y-87582719D03*
D14*
X283826335Y-87871786D02*
X283765011Y-87293652D01*
D11*
X77970502Y-79361107D03*
D12*
G36*
X76867073Y-80133736D02*
G01*
X77197873Y-78257678D01*
X79073931Y-78588478D01*
X78743131Y-80464536D01*
X76867073Y-80133736D01*
X76867073Y-80133736D01*
G37*
D11*
X75469090Y-78920040D03*
D13*
X75834502Y-69764399D03*
X75062691Y-70369569D03*
D14*
X74290878Y-70974739D02*
X75834504Y-69764399D01*
D13*
X80985473Y-69575993D03*
X80915419Y-69858115D03*
D14*
X80845365Y-70140236D02*
X80985473Y-69575994D01*
D17*
X230632000Y-59944000D03*
X212221653Y-67441653D03*
X208411653Y-67441653D03*
D18*
X355858189Y-95190194D02*
X354432679Y-96615704D01*
X356421806Y-95190194D02*
X355858189Y-95190194D01*
X354432679Y-98919784D02*
X354432679Y-100051154D01*
X359158864Y-92453136D02*
X356421806Y-95190194D01*
X359158864Y-90131265D02*
X359158864Y-92453136D01*
X358520566Y-89492967D02*
X359158864Y-90131265D01*
X354432679Y-96615704D02*
X354432679Y-98919784D01*
X358520566Y-86378583D02*
X358520566Y-89492967D01*
X193468348Y-133369133D02*
X194268347Y-134169132D01*
X191556215Y-131457000D02*
X193468348Y-133369133D01*
X189301873Y-123464725D02*
X191556215Y-125719067D01*
X191556215Y-125719067D02*
X191556215Y-131457000D01*
X187637849Y-123464725D02*
X189301873Y-123464725D01*
X186422193Y-122249069D02*
X187637849Y-123464725D01*
X228050440Y-126614135D02*
X224385252Y-126614135D01*
X230419339Y-128983034D02*
X228050440Y-126614135D01*
X235427570Y-128983034D02*
X230419339Y-128983034D01*
X224385252Y-126614135D02*
X223585253Y-127414134D01*
X237831407Y-126579197D02*
X235427570Y-128983034D01*
X258325701Y-126462354D02*
X255956802Y-128831253D01*
X255956802Y-132496441D02*
X256756801Y-133296440D01*
X255956802Y-128831253D02*
X255956802Y-132496441D01*
X258325701Y-123084327D02*
X258325701Y-126462354D01*
X255921864Y-120680490D02*
X258325701Y-123084327D01*
X255921864Y-119050286D02*
X255921864Y-120680490D01*
X98123522Y-84719211D02*
X98123522Y-85007237D01*
X101054733Y-81788000D02*
X98123522Y-84719211D01*
X103727958Y-81788000D02*
X101054733Y-81788000D01*
X106641173Y-78874785D02*
X103727958Y-81788000D01*
X98123522Y-85007237D02*
X98123522Y-86138607D01*
X106641173Y-74688733D02*
X106641173Y-78874785D01*
X91507526Y-122240387D02*
X91507526Y-122528412D01*
X94035702Y-119712211D02*
X91507526Y-122240387D01*
X96708927Y-119712211D02*
X94035702Y-119712211D01*
X91507526Y-122528412D02*
X91507526Y-123659782D01*
X100025178Y-116395960D02*
X96708927Y-119712211D01*
X100025178Y-112209908D02*
X100025178Y-116395960D01*
X170986589Y-110598565D02*
X170986589Y-111729935D01*
X170986589Y-110310539D02*
X170986589Y-110598565D01*
X173514764Y-107782364D02*
X170986589Y-110310539D01*
X176187989Y-107782364D02*
X173514764Y-107782364D01*
X179504240Y-104466113D02*
X176187989Y-107782364D01*
X179504240Y-100280061D02*
X179504240Y-104466113D01*
X159041800Y-128596441D02*
X158241801Y-129396440D01*
X160953933Y-126684308D02*
X159041800Y-128596441D01*
X170161864Y-123214310D02*
X166691866Y-126684308D01*
X166691866Y-126684308D02*
X160953933Y-126684308D01*
X170161864Y-121550286D02*
X170161864Y-123214310D01*
X354851904Y-60158110D02*
X354851904Y-61289480D01*
X354851904Y-57854030D02*
X354851904Y-60158110D01*
X356277414Y-56428520D02*
X354851904Y-57854030D01*
X357083480Y-56428520D02*
X356277414Y-56428520D01*
X359918000Y-53594000D02*
X357083480Y-56428520D01*
X359918000Y-48595118D02*
X359918000Y-53594000D01*
X358939791Y-47616909D02*
X359918000Y-48595118D01*
X134333653Y-98770505D02*
X134333653Y-99058531D01*
X136861828Y-96242330D02*
X134333653Y-98770505D01*
X141173825Y-96242330D02*
X136861828Y-96242330D01*
X142851304Y-94564851D02*
X141173825Y-96242330D01*
X134333653Y-99058531D02*
X134333653Y-100189901D01*
X142851304Y-88740027D02*
X142851304Y-94564851D01*
X74855889Y-77642539D02*
X72327713Y-80170715D01*
X77805461Y-77642539D02*
X74855889Y-77642539D01*
X72327713Y-80458740D02*
X72327713Y-81590110D01*
X72327713Y-80170715D02*
X72327713Y-80458740D01*
X80845365Y-74602635D02*
X77805461Y-77642539D01*
X80845365Y-70140236D02*
X80845365Y-74602635D01*
X279738447Y-100412987D02*
X279738447Y-101544357D01*
X279738447Y-98108908D02*
X279738447Y-100412987D01*
X281631850Y-96683397D02*
X281163958Y-96683397D01*
X281163958Y-96683397D02*
X279738447Y-98108908D01*
X284464633Y-93850614D02*
X281631850Y-96683397D01*
X284464633Y-91624468D02*
X284464633Y-93850614D01*
X283826335Y-90986170D02*
X284464633Y-91624468D01*
X283826335Y-87871786D02*
X283826335Y-90986170D01*
X70401865Y-118806915D02*
X70401865Y-119938285D01*
X70401865Y-118518890D02*
X70401865Y-118806915D01*
X72930041Y-115990714D02*
X70401865Y-118518890D01*
X75603266Y-115990714D02*
X72930041Y-115990714D01*
X78919517Y-112674463D02*
X75603266Y-115990714D01*
X78919517Y-108488411D02*
X78919517Y-112674463D01*
X137641651Y-80297944D02*
X137641651Y-81429314D01*
X137641651Y-80009918D02*
X137641651Y-80297944D01*
X142843051Y-77481743D02*
X140169826Y-77481743D01*
X140169826Y-77481743D02*
X137641651Y-80009918D01*
X146159302Y-74165492D02*
X142843051Y-77481743D01*
X146159302Y-69979440D02*
X146159302Y-74165492D01*
X298933154Y-99567008D02*
X298933154Y-100698378D01*
X300148582Y-95837418D02*
X298933154Y-97052846D01*
X300826557Y-95837418D02*
X300148582Y-95837418D01*
X298933154Y-97052846D02*
X298933154Y-99567008D01*
X303659340Y-93004635D02*
X300826557Y-95837418D01*
X303659340Y-90778489D02*
X303659340Y-93004635D01*
X303021042Y-90140191D02*
X303659340Y-90778489D01*
X303021042Y-87025807D02*
X303021042Y-90140191D01*
X302241152Y-118327596D02*
X302241152Y-119458966D01*
X303666662Y-114598006D02*
X302241152Y-116023516D01*
X304134554Y-114598006D02*
X303666662Y-114598006D01*
X306967337Y-111765223D02*
X304134554Y-114598006D01*
X306967337Y-106424693D02*
X306967337Y-111765223D01*
X302241152Y-116023516D02*
X302241152Y-118327596D01*
X306329039Y-105786395D02*
X306967337Y-106424693D01*
X140949648Y-61537356D02*
X140949648Y-62668726D01*
X140949648Y-61249331D02*
X140949648Y-61537356D01*
X143477824Y-58721155D02*
X140949648Y-61249331D01*
X146151049Y-58721155D02*
X143477824Y-58721155D01*
X149467300Y-55404904D02*
X146151049Y-58721155D01*
X149467300Y-51218852D02*
X149467300Y-55404904D01*
X364744000Y-78358447D02*
X365195122Y-78809569D01*
X368235985Y-73948609D02*
X366487391Y-73948609D01*
X366487391Y-73948609D02*
X364744000Y-75692000D01*
X370332000Y-71852594D02*
X368235985Y-73948609D01*
X370332000Y-66185989D02*
X370332000Y-71852594D01*
X364744000Y-75692000D02*
X364744000Y-78358447D01*
X369283009Y-65136998D02*
X370332000Y-66185989D01*
X155968119Y-86067961D02*
X155968119Y-87199331D01*
X155968119Y-85779935D02*
X155968119Y-86067961D01*
X158496294Y-83251760D02*
X155968119Y-85779935D01*
X161169519Y-83251760D02*
X158496294Y-83251760D01*
X164485770Y-79935509D02*
X161169519Y-83251760D01*
X164485770Y-75749457D02*
X164485770Y-79935509D01*
X174294587Y-91837978D02*
X174294587Y-92969348D01*
X174294587Y-91549952D02*
X174294587Y-91837978D01*
X179495987Y-89021777D02*
X176822762Y-89021777D01*
X176822762Y-89021777D02*
X174294587Y-91549952D01*
X182812238Y-85705526D02*
X179495987Y-89021777D01*
X182812238Y-81519474D02*
X182812238Y-85705526D01*
X239777514Y-90888354D02*
X239777514Y-93192434D01*
X241203024Y-89462844D02*
X239777514Y-90888354D01*
X241670916Y-89462844D02*
X241203024Y-89462844D01*
X239777514Y-93192434D02*
X239777514Y-94323804D01*
X244503699Y-86630061D02*
X241670916Y-89462844D01*
X243865401Y-83088637D02*
X244503699Y-83726935D01*
X244503699Y-83726935D02*
X244503699Y-86630061D01*
X243865401Y-80651233D02*
X243865401Y-83088637D01*
X274547962Y-59162222D02*
X273122452Y-60587732D01*
X275774364Y-59162222D02*
X274547962Y-59162222D01*
X273122452Y-62891812D02*
X273122452Y-64023182D01*
X277876000Y-57060586D02*
X275774364Y-59162222D01*
X273122452Y-60587732D02*
X273122452Y-62891812D01*
X277876000Y-51016272D02*
X277876000Y-57060586D01*
X277210339Y-50350611D02*
X277876000Y-51016272D01*
X258103982Y-84542018D02*
X258103982Y-87422417D01*
X258953173Y-83692827D02*
X258103982Y-84542018D01*
X259997384Y-83692827D02*
X258953173Y-83692827D01*
X262830167Y-80860044D02*
X259997384Y-83692827D01*
X258103982Y-87422417D02*
X258103982Y-88553787D01*
X262830167Y-78633898D02*
X262830167Y-80860044D01*
X262191869Y-77995600D02*
X262830167Y-78633898D01*
X262191869Y-74881216D02*
X262191869Y-77995600D01*
X276430450Y-81652400D02*
X276430450Y-82783770D01*
X276430450Y-79348320D02*
X276430450Y-81652400D01*
X277855960Y-77922810D02*
X276430450Y-79348320D01*
X281156635Y-75848537D02*
X279082362Y-77922810D01*
X281156635Y-69749497D02*
X281156635Y-75848537D01*
X279082362Y-77922810D02*
X277855960Y-77922810D01*
X280518337Y-69111199D02*
X281156635Y-69749497D01*
X295625157Y-80806421D02*
X295625157Y-81937791D01*
X295625157Y-78502341D02*
X295625157Y-80806421D01*
X297050667Y-77076831D02*
X295625157Y-78502341D01*
X300351342Y-74298658D02*
X297573169Y-77076831D01*
X300351342Y-68903518D02*
X300351342Y-74298658D01*
X297573169Y-77076831D02*
X297050667Y-77076831D01*
X299713044Y-68265220D02*
X300351342Y-68903518D01*
X283046445Y-116869495D02*
X283046445Y-119173575D01*
X283046445Y-119173575D02*
X283046445Y-120304945D01*
X284471955Y-115443985D02*
X283046445Y-116869495D01*
X284939847Y-115443985D02*
X284471955Y-115443985D01*
X287772630Y-112611202D02*
X284939847Y-115443985D01*
X287772630Y-107270672D02*
X287772630Y-112611202D01*
X287134332Y-106632374D02*
X287772630Y-107270672D01*
X261411979Y-103878925D02*
X261411979Y-106183004D01*
X264452843Y-102453414D02*
X262837490Y-102453414D01*
X262837490Y-102453414D02*
X261411979Y-103878925D01*
X266446000Y-100460257D02*
X264452843Y-102453414D01*
X266446000Y-94587936D02*
X266446000Y-100460257D01*
X261411979Y-106183004D02*
X261411979Y-107314374D01*
X265499867Y-93641803D02*
X266446000Y-94587936D01*
X131025655Y-117819119D02*
X131025655Y-118950489D01*
X133553831Y-115002918D02*
X131025655Y-117531094D01*
X136227056Y-115002918D02*
X133553831Y-115002918D01*
X131025655Y-117531094D02*
X131025655Y-117819119D01*
X139543307Y-111686667D02*
X136227056Y-115002918D01*
X139543307Y-107500615D02*
X139543307Y-111686667D01*
X243085511Y-111953021D02*
X243085511Y-113084391D01*
X244511022Y-108223431D02*
X243085511Y-109648942D01*
X244978914Y-108223431D02*
X244511022Y-108223431D01*
X247811697Y-105390648D02*
X244978914Y-108223431D01*
X247811697Y-100050118D02*
X247811697Y-105390648D01*
X243085511Y-109648942D02*
X243085511Y-111953021D01*
X247173399Y-99411820D02*
X247811697Y-100050118D01*
X293742669Y-58316243D02*
X292317159Y-59741753D01*
X294235757Y-58316243D02*
X293742669Y-58316243D01*
X297043344Y-55508656D02*
X294235757Y-58316243D01*
X292317159Y-59741753D02*
X292317159Y-62045833D01*
X297043344Y-53257314D02*
X297043344Y-55508656D01*
X296405046Y-52619016D02*
X297043344Y-53257314D01*
X292317159Y-62045833D02*
X292317159Y-63177203D01*
X296405046Y-49504632D02*
X296405046Y-52619016D01*
X312640581Y-67601105D02*
X312640581Y-68732475D01*
X312640581Y-65297025D02*
X312640581Y-67601105D01*
X314066091Y-63871515D02*
X312640581Y-65297025D01*
X314533983Y-63871515D02*
X314066091Y-63871515D01*
X317754000Y-60651498D02*
X314533983Y-63871515D01*
X317754000Y-56085436D02*
X317754000Y-60651498D01*
X316728468Y-55059904D02*
X317754000Y-56085436D01*
X101431519Y-66246649D02*
X101431519Y-67378019D01*
X101431519Y-65958624D02*
X101431519Y-66246649D01*
X106632920Y-63430448D02*
X103959695Y-63430448D01*
X109949171Y-60114197D02*
X106632920Y-63430448D01*
X103959695Y-63430448D02*
X101431519Y-65958624D01*
X109949171Y-55928145D02*
X109949171Y-60114197D01*
X334709167Y-83053695D02*
X334709167Y-84185065D01*
X334709167Y-80749615D02*
X334709167Y-83053695D01*
X336134677Y-79324105D02*
X334709167Y-80749615D01*
X336602569Y-79324105D02*
X336134677Y-79324105D01*
X339435352Y-74265176D02*
X339435352Y-76491322D01*
X338797054Y-73626878D02*
X339435352Y-74265176D01*
X339435352Y-76491322D02*
X336602569Y-79324105D01*
X338797054Y-70512494D02*
X338797054Y-73626878D01*
X159276116Y-67307373D02*
X159276116Y-68438743D01*
X159276116Y-67019348D02*
X159276116Y-67307373D01*
X161804292Y-64491172D02*
X159276116Y-67019348D01*
X164477517Y-64491172D02*
X161804292Y-64491172D01*
X167793768Y-61174921D02*
X164477517Y-64491172D01*
X167793768Y-56988869D02*
X167793768Y-61174921D01*
X341325162Y-120574870D02*
X341325162Y-121706240D01*
X342750672Y-116845280D02*
X341325162Y-118270790D01*
X343148720Y-116845280D02*
X342750672Y-116845280D01*
X346051347Y-113942653D02*
X343148720Y-116845280D01*
X341325162Y-118270790D02*
X341325162Y-120574870D01*
X346051347Y-111786351D02*
X346051347Y-113942653D01*
X345413049Y-111148053D02*
X346051347Y-111786351D01*
X345413049Y-108033669D02*
X345413049Y-111148053D01*
X124024236Y-76635764D02*
X120975119Y-76635764D01*
X126964595Y-73695405D02*
X124024236Y-76635764D01*
X118446944Y-79163939D02*
X118446944Y-79673056D01*
X126964595Y-69133461D02*
X126964595Y-73695405D01*
X120975119Y-76635764D02*
X118446944Y-79163939D01*
X118446944Y-79673056D02*
X118446944Y-80583335D01*
X315948579Y-86361693D02*
X315948579Y-87493063D01*
X315948579Y-84057613D02*
X315948579Y-86361693D01*
X317374089Y-82632103D02*
X315948579Y-84057613D01*
X317841981Y-82632103D02*
X317374089Y-82632103D01*
X321564000Y-78910084D02*
X317841981Y-82632103D01*
X321564000Y-75348026D02*
X321564000Y-78910084D01*
X320036466Y-73820492D02*
X321564000Y-75348026D01*
X64329568Y-98392328D02*
X64329568Y-99523698D01*
X66857744Y-95576127D02*
X64329568Y-98104303D01*
X69530969Y-95576127D02*
X66857744Y-95576127D01*
X64329568Y-98104303D02*
X64329568Y-98392328D01*
X72847220Y-92259876D02*
X69530969Y-95576127D01*
X72847220Y-88073824D02*
X72847220Y-92259876D01*
X319256576Y-105122280D02*
X319256576Y-106253650D01*
X319256576Y-102818201D02*
X319256576Y-105122280D01*
X320682087Y-101392690D02*
X319256576Y-102818201D01*
X323982762Y-99181238D02*
X321771310Y-101392690D01*
X323982762Y-96333761D02*
X323982762Y-99181238D01*
X321771310Y-101392690D02*
X320682087Y-101392690D01*
X323344464Y-95695463D02*
X323982762Y-96333761D01*
X323344464Y-92581079D02*
X323344464Y-95695463D01*
X331401169Y-64293107D02*
X331401169Y-65424477D01*
X332826679Y-60563517D02*
X331401169Y-61989027D01*
X331401169Y-61989027D02*
X331401169Y-64293107D01*
X333294571Y-60563517D02*
X332826679Y-60563517D01*
X336127354Y-57730734D02*
X333294571Y-60563517D01*
X335489056Y-54866290D02*
X336127354Y-55504588D01*
X336127354Y-55504588D02*
X336127354Y-57730734D01*
X335489056Y-51751906D02*
X335489056Y-54866290D01*
X111830948Y-116973140D02*
X111830948Y-118104510D01*
X111830948Y-116685115D02*
X111830948Y-116973140D01*
X114359124Y-114156939D02*
X111830948Y-116685115D01*
X117032349Y-114156939D02*
X114359124Y-114156939D01*
X120348600Y-110840688D02*
X117032349Y-114156939D01*
X120348600Y-106654636D02*
X120348600Y-110840688D01*
X177602584Y-72789365D02*
X177602584Y-73077390D01*
X180130760Y-70261189D02*
X177602584Y-72789365D01*
X182803985Y-70261189D02*
X180130760Y-70261189D01*
X186120236Y-66944938D02*
X182803985Y-70261189D01*
X177602584Y-73077390D02*
X177602584Y-74208760D01*
X186120236Y-62758886D02*
X186120236Y-66944938D01*
X77980784Y-61823627D02*
X81257411Y-58547000D01*
X77980784Y-63243022D02*
X77980784Y-61823627D01*
X86498436Y-55979200D02*
X86498436Y-51793148D01*
X83930636Y-58547000D02*
X86498436Y-55979200D01*
X81257411Y-58547000D02*
X83930636Y-58547000D01*
X254795984Y-66357749D02*
X254795984Y-68661829D01*
X256221494Y-64932239D02*
X254795984Y-66357749D01*
X256689386Y-64932239D02*
X256221494Y-64932239D01*
X259588000Y-62033625D02*
X256689386Y-64932239D01*
X254795984Y-68661829D02*
X254795984Y-69793199D01*
X259588000Y-56824757D02*
X259588000Y-62033625D01*
X258883871Y-56120628D02*
X259588000Y-56824757D01*
X322564574Y-123882868D02*
X322564574Y-125014238D01*
X323990084Y-120153278D02*
X322564574Y-121578788D01*
X324346722Y-120153278D02*
X323990084Y-120153278D01*
X327660000Y-116840000D02*
X324346722Y-120153278D01*
X327660000Y-112349206D02*
X327660000Y-116840000D01*
X322564574Y-121578788D02*
X322564574Y-123882868D01*
X326652461Y-111341667D02*
X327660000Y-112349206D01*
X152660121Y-104540522D02*
X152660121Y-104828548D01*
X155188296Y-102012347D02*
X152660121Y-104540522D01*
X157861521Y-102012347D02*
X155188296Y-102012347D01*
X160253237Y-99620631D02*
X157861521Y-102012347D01*
X160253237Y-95434579D02*
X160253237Y-99620631D01*
X152660121Y-104828548D02*
X152660121Y-105959918D01*
X161177772Y-94510044D02*
X160253237Y-95434579D01*
X124283117Y-57875176D02*
X121754941Y-60403352D01*
X121754941Y-60403352D02*
X121754941Y-60691377D01*
X128052824Y-57875176D02*
X124283117Y-57875176D01*
X121754941Y-60691377D02*
X121754941Y-61822747D01*
X130272593Y-55655407D02*
X128052824Y-57875176D01*
X130272593Y-50372873D02*
X130272593Y-55655407D01*
X115138946Y-98212552D02*
X115138946Y-99343922D01*
X117667121Y-95396351D02*
X115138946Y-97924526D01*
X120340346Y-95396351D02*
X117667121Y-95396351D01*
X115138946Y-97924526D02*
X115138946Y-98212552D01*
X123656597Y-92080100D02*
X120340346Y-95396351D01*
X123656597Y-87894048D02*
X123656597Y-92080100D01*
X237895026Y-70702256D02*
X236469516Y-72127766D01*
X236469516Y-74431846D02*
X236469516Y-75563216D01*
X236469516Y-72127766D02*
X236469516Y-74431846D01*
X238362918Y-70702256D02*
X237895026Y-70702256D01*
X241554000Y-67511174D02*
X238362918Y-70702256D01*
X241554000Y-62887242D02*
X241554000Y-67511174D01*
X240557403Y-61890645D02*
X241554000Y-62887242D01*
X94815524Y-103767824D02*
X94815524Y-104899194D01*
X94815524Y-103479798D02*
X94815524Y-103767824D01*
X100978377Y-100951623D02*
X97343699Y-100951623D01*
X97343699Y-100951623D02*
X94815524Y-103479798D01*
X103333175Y-98596825D02*
X100978377Y-100951623D01*
X103333175Y-93449320D02*
X103333175Y-98596825D01*
X99060000Y-74496550D02*
X100086686Y-75523236D01*
X103295395Y-63074605D02*
X99060000Y-67310000D01*
X99060000Y-67310000D02*
X99060000Y-74496550D01*
X103295395Y-56861937D02*
X103295395Y-63074605D01*
X103394684Y-56762648D02*
X103295395Y-56861937D01*
X95250000Y-92755135D02*
X96778688Y-94283823D01*
X95250000Y-86360000D02*
X95250000Y-92755135D01*
X100086686Y-81523314D02*
X95250000Y-86360000D01*
X100086686Y-75523236D02*
X100086686Y-81523314D01*
X96778688Y-94283823D02*
X96778688Y-100071312D01*
X96778688Y-100071312D02*
X91440000Y-105410000D01*
X91440000Y-111013720D02*
X93470691Y-113044411D01*
X91440000Y-105410000D02*
X91440000Y-111013720D01*
X194358400Y-74978400D02*
X203268200Y-74978400D01*
X192670020Y-61220790D02*
X192670020Y-74052020D01*
X184977615Y-53528385D02*
X192670020Y-61220790D01*
X103394684Y-56762648D02*
X103394684Y-51545316D01*
X175451205Y-53528385D02*
X184977615Y-53528385D01*
X173092801Y-51169981D02*
X175451205Y-53528385D01*
X110120020Y-44819980D02*
X152772800Y-44819980D01*
X193596400Y-74978400D02*
X194358400Y-74978400D01*
X103394684Y-51545316D02*
X110120020Y-44819980D01*
X192670020Y-74052020D02*
X193596400Y-74978400D01*
X159122800Y-51169980D02*
X173092801Y-51169981D01*
X152772800Y-44819980D02*
X159122800Y-51169980D01*
X238652513Y-99790664D02*
X241299612Y-102437763D01*
X238652513Y-84338075D02*
X238652513Y-99790664D01*
X237991614Y-83677176D02*
X238652513Y-84338075D01*
X242570000Y-103708151D02*
X242570000Y-109220000D01*
X241299612Y-102437763D02*
X242570000Y-103708151D01*
X234898395Y-116891605D02*
X234898395Y-122499069D01*
X242570000Y-109220000D02*
X234898395Y-116891605D01*
X235073978Y-80759540D02*
X237991614Y-83677176D01*
X235073978Y-65306950D02*
X235073978Y-80759540D01*
X234683616Y-64916588D02*
X235073978Y-65306950D01*
X205171790Y-87678400D02*
X203268200Y-87678400D01*
X210369990Y-82480200D02*
X205171790Y-87678400D01*
X218819590Y-59182000D02*
X210369990Y-67631600D01*
X231650899Y-59182000D02*
X218819590Y-59182000D01*
X210369990Y-67631600D02*
X210369990Y-82480200D01*
X235720188Y-63251289D02*
X231650899Y-59182000D01*
X179565749Y-63593389D02*
X179565749Y-69354251D01*
X176257751Y-72662249D02*
X176257751Y-82353977D01*
X179565749Y-69354251D02*
X176257751Y-72662249D01*
X176257751Y-82353977D02*
X176257751Y-87902249D01*
X172949753Y-91210247D02*
X172949753Y-101114564D01*
X176257751Y-87902249D02*
X172949753Y-91210247D01*
X168910000Y-111383992D02*
X184355205Y-126829197D01*
X168910000Y-109220000D02*
X168910000Y-111383992D01*
X172949753Y-105180247D02*
X168910000Y-109220000D01*
X172949753Y-101114564D02*
X172949753Y-105180247D01*
X202181199Y-84051399D02*
X203268200Y-85138400D01*
X190754000Y-61976000D02*
X190754000Y-80264000D01*
X179565749Y-60464251D02*
X180340000Y-59690000D01*
X188468000Y-59690000D02*
X190754000Y-61976000D01*
X194541399Y-84051399D02*
X202181199Y-84051399D01*
X190754000Y-80264000D02*
X194541399Y-84051399D01*
X180340000Y-59690000D02*
X188468000Y-59690000D01*
X179565749Y-63593389D02*
X179565749Y-60464251D01*
X161239281Y-57823372D02*
X161239281Y-62280719D01*
X157931283Y-65588717D02*
X157931283Y-76583960D01*
X161239281Y-62280719D02*
X157931283Y-65588717D01*
X157931283Y-76583960D02*
X157931283Y-82098717D01*
X154623285Y-85406715D02*
X157931283Y-82098717D01*
X154623285Y-95344547D02*
X154623285Y-85406715D01*
X154623285Y-95344547D02*
X154623285Y-100646715D01*
X154623285Y-100646715D02*
X151130000Y-104140000D01*
X151130000Y-107505452D02*
X163717243Y-120092695D01*
X151130000Y-104140000D02*
X151130000Y-107505452D01*
X161239281Y-57823372D02*
X161239281Y-57200719D01*
X191262000Y-79502000D02*
X194358400Y-82598400D01*
X194358400Y-82598400D02*
X203268200Y-82598400D01*
X191262000Y-61722000D02*
X191262000Y-79502000D01*
X184514625Y-54974625D02*
X191262000Y-61722000D01*
X167275375Y-54974625D02*
X184514625Y-54974625D01*
X164426628Y-57823372D02*
X167275375Y-54974625D01*
X161239281Y-57823372D02*
X164426628Y-57823372D01*
X353912941Y-68162941D02*
X363409222Y-68162941D01*
X352298000Y-66548000D02*
X353912941Y-68162941D01*
X352298000Y-62992000D02*
X352298000Y-66548000D01*
X353456366Y-61833634D02*
X352298000Y-62992000D01*
X353456366Y-51033214D02*
X353456366Y-61833634D01*
X353066004Y-50642852D02*
X353456366Y-51033214D01*
X360401241Y-85319241D02*
X360401241Y-71307226D01*
X360401241Y-71307226D02*
X363409222Y-68299245D01*
X364490000Y-113792000D02*
X364490000Y-89408000D01*
X364490000Y-89408000D02*
X360401241Y-85319241D01*
X348234000Y-122936000D02*
X355346000Y-122936000D01*
X355346000Y-122936000D02*
X364490000Y-113792000D01*
X345751990Y-125418010D02*
X348234000Y-122936000D01*
X327338401Y-129990009D02*
X331910400Y-125418010D01*
X261874000Y-138938000D02*
X281814410Y-138938000D01*
X363409222Y-68299245D02*
X363409222Y-68162941D01*
X290762400Y-129990010D02*
X327338401Y-129990009D01*
X218057590Y-147320000D02*
X253492000Y-147320000D01*
X212138300Y-141400710D02*
X218057590Y-147320000D01*
X212138300Y-99008880D02*
X212138300Y-141400710D01*
X331910400Y-125418010D02*
X345751990Y-125418010D01*
X281814410Y-138938000D02*
X290762400Y-129990010D01*
X218488200Y-77518400D02*
X215819970Y-80186630D01*
X215819970Y-95327210D02*
X212138300Y-99008880D01*
X215819970Y-80186630D02*
X215819970Y-95327210D01*
X253492000Y-147320000D02*
X261874000Y-138938000D01*
X142912813Y-52053355D02*
X142912813Y-56477187D01*
X142912813Y-56477187D02*
X139700000Y-59690000D01*
X139700000Y-70718758D02*
X139604815Y-70813943D01*
X139700000Y-59690000D02*
X139700000Y-70718758D01*
X139604815Y-70813943D02*
X139604815Y-75025185D01*
X136296817Y-78333183D02*
X136296817Y-89574530D01*
X139604815Y-75025185D02*
X136296817Y-78333183D01*
X136296817Y-91939638D02*
X135890000Y-92346455D01*
X136296817Y-89574530D02*
X136296817Y-91939638D01*
X135890000Y-92346455D02*
X135890000Y-95250000D01*
X132988820Y-98151180D02*
X132988820Y-108335118D01*
X135890000Y-95250000D02*
X132988820Y-98151180D01*
X193088400Y-80058400D02*
X203268200Y-80058400D01*
X191770000Y-61593590D02*
X191770000Y-78740000D01*
X184701026Y-54524616D02*
X191770000Y-61593590D01*
X172720000Y-52070000D02*
X175174615Y-54524615D01*
X158750000Y-52070000D02*
X172720000Y-52070000D01*
X191770000Y-78740000D02*
X193088400Y-80058400D01*
X175174615Y-54524615D02*
X184701026Y-54524616D01*
X152400000Y-45720000D02*
X158750000Y-52070000D01*
X142912813Y-50127187D02*
X147320000Y-45720000D01*
X147320000Y-45720000D02*
X152400000Y-45720000D01*
X142912813Y-52053355D02*
X142912813Y-50127187D01*
X79943949Y-52627651D02*
X79943949Y-58353949D01*
X74290878Y-64007020D02*
X79943949Y-58353949D01*
X74290878Y-70974739D02*
X74290878Y-64007020D01*
X74290878Y-76830878D02*
X74290878Y-76839122D01*
X74290878Y-70974739D02*
X74290878Y-76830878D01*
X66292733Y-88908327D02*
X66292733Y-93727267D01*
X66292733Y-93727267D02*
X62230000Y-97790000D01*
X62230000Y-97790000D02*
X62230000Y-104140000D01*
X67412914Y-109322914D02*
X72365030Y-109322914D01*
X62230000Y-104140000D02*
X67412914Y-109322914D01*
X65786000Y-88401594D02*
X66292733Y-88908327D01*
X65786000Y-85335756D02*
X65786000Y-88401594D01*
X74290878Y-76830878D02*
X65786000Y-85335756D01*
X194358400Y-72432760D02*
X194358400Y-72438400D01*
X193169820Y-71244180D02*
X194358400Y-72432760D01*
X194358400Y-72438400D02*
X203268200Y-72438400D01*
X81487573Y-51417311D02*
X88534914Y-44369970D01*
X193169820Y-61084180D02*
X193169820Y-71244180D01*
X185164015Y-53078375D02*
X193169820Y-61084180D01*
X175637605Y-53078375D02*
X185164015Y-53078375D01*
X173279202Y-50719972D02*
X175637605Y-53078375D01*
X173147972Y-50719972D02*
X173279202Y-50719972D01*
X88534914Y-44369970D02*
X152959200Y-44369970D01*
X159309200Y-50719970D02*
X173147970Y-50719970D01*
X152959200Y-44369970D02*
X159309200Y-50719970D01*
X173147970Y-50719970D02*
X173147972Y-50719972D01*
X271997451Y-69490043D02*
X274644550Y-72137142D01*
X271997451Y-54037453D02*
X271997451Y-69490043D01*
X271336552Y-53376554D02*
X271997451Y-54037453D01*
X275034912Y-87980093D02*
X277952548Y-90897729D01*
X275034912Y-72527504D02*
X275034912Y-87980093D01*
X274644550Y-72137142D02*
X275034912Y-72527504D01*
X278613446Y-93314209D02*
X278613446Y-107011218D01*
X277952548Y-92653311D02*
X278613446Y-93314209D01*
X278613446Y-107011218D02*
X281260545Y-109658317D01*
X277952548Y-90897729D02*
X277952548Y-92653311D01*
X281650907Y-110048679D02*
X281260545Y-109658317D01*
X281650907Y-136179093D02*
X281650907Y-110048679D01*
X281178000Y-136652000D02*
X281650907Y-136179093D01*
X214122000Y-140838770D02*
X218571230Y-145288000D01*
X252476000Y-145288000D02*
X261112000Y-136652000D01*
X218571230Y-145288000D02*
X252476000Y-145288000D01*
X261112000Y-136652000D02*
X281178000Y-136652000D01*
X217620009Y-96198401D02*
X214064010Y-99754400D01*
X217620010Y-91086590D02*
X217620009Y-96198401D01*
X218488200Y-90218400D02*
X217620010Y-91086590D01*
X214064010Y-101034010D02*
X214122000Y-101092000D01*
X214064010Y-99754400D02*
X214064010Y-101034010D01*
X214122000Y-101092000D02*
X214122000Y-140838770D01*
X290921621Y-68373527D02*
X293839257Y-71291163D01*
X290921621Y-52920937D02*
X290921621Y-68373527D01*
X290531259Y-52530575D02*
X290921621Y-52920937D01*
X294229619Y-71681525D02*
X294229619Y-87134114D01*
X294229619Y-87134114D02*
X297147255Y-90051750D01*
X293839257Y-71291163D02*
X294229619Y-71681525D01*
X297537617Y-105894703D02*
X300455252Y-108812338D01*
X297537617Y-92197694D02*
X297537617Y-105894703D01*
X297147255Y-91807332D02*
X297537617Y-92197694D01*
X297147255Y-90051750D02*
X297147255Y-91807332D01*
X300845614Y-109202700D02*
X300455252Y-108812338D01*
X293312010Y-128581990D02*
X300845614Y-121048386D01*
X290261190Y-128581990D02*
X293312010Y-128581990D01*
X261237590Y-137414000D02*
X281429180Y-137414000D01*
X281429180Y-137414000D02*
X290261190Y-128581990D01*
X253041991Y-145609599D02*
X261237590Y-137414000D01*
X300845614Y-121048386D02*
X300845614Y-109202700D01*
X253041991Y-145735189D02*
X253041991Y-145609599D01*
X252981180Y-145796000D02*
X253041991Y-145735189D01*
X218442820Y-145796000D02*
X252981180Y-145796000D01*
X213810010Y-141163190D02*
X218442820Y-145796000D01*
X281313200Y-137529980D02*
X290261190Y-128581990D01*
X252797600Y-145853990D02*
X261121610Y-137529980D01*
X218500810Y-145853990D02*
X252797600Y-145853990D01*
X217170000Y-96012000D02*
X213614000Y-99568000D01*
X213614000Y-99568000D02*
X213614000Y-140967180D01*
X217170000Y-87918970D02*
X217170000Y-96012000D01*
X213614000Y-140967180D02*
X218500810Y-145853990D01*
X217410570Y-87678400D02*
X217170000Y-87918970D01*
X261121610Y-137529980D02*
X281313200Y-137529980D01*
X218488200Y-87678400D02*
X217410570Y-87678400D01*
X253670983Y-75260060D02*
X256318082Y-77907159D01*
X253670983Y-59807470D02*
X253670983Y-75260060D01*
X253010084Y-59146571D02*
X253670983Y-59807470D01*
X256708444Y-93750110D02*
X259626080Y-96667746D01*
X256708444Y-78297521D02*
X256708444Y-93750110D01*
X256318082Y-77907159D02*
X256708444Y-78297521D01*
X260016442Y-97058108D02*
X260016442Y-111426442D01*
X259626080Y-96667746D02*
X260016442Y-97058108D01*
X250716737Y-123182189D02*
X250716737Y-116313263D01*
X251437243Y-123902695D02*
X250716737Y-123182189D01*
X250716737Y-116313263D02*
X254000000Y-113030000D01*
X258412884Y-113030000D02*
X260016442Y-111426442D01*
X254000000Y-113030000D02*
X258412884Y-113030000D01*
X251437243Y-124038959D02*
X251437243Y-123902695D01*
X203268200Y-90218400D02*
X210820000Y-82666600D01*
X210820000Y-82666600D02*
X210820000Y-67818000D01*
X210820000Y-67818000D02*
X218440000Y-60198000D01*
X230378000Y-60198000D02*
X230632000Y-59944000D01*
X218440000Y-60198000D02*
X230378000Y-60198000D01*
X311515580Y-74199336D02*
X314162679Y-76846435D01*
X311515580Y-58746746D02*
X311515580Y-74199336D01*
X310854681Y-58085847D02*
X311515580Y-58746746D01*
X314823578Y-78795640D02*
X314823578Y-92959923D01*
X314162679Y-78134741D02*
X314823578Y-78795640D01*
X314823578Y-92959923D02*
X317470677Y-95607022D01*
X314162679Y-76846435D02*
X314162679Y-78134741D01*
X317861039Y-95997384D02*
X317861039Y-111449975D01*
X317861039Y-111449975D02*
X320778674Y-114367610D01*
X317470677Y-95607022D02*
X317861039Y-95997384D01*
X218314410Y-146304000D02*
X213106000Y-141095590D01*
X253109590Y-146304000D02*
X218314410Y-146304000D01*
X253492000Y-145796000D02*
X253492000Y-145921590D01*
X321169036Y-114757972D02*
X321169036Y-123076964D01*
X315214000Y-129032000D02*
X290447590Y-129032000D01*
X261308010Y-137979990D02*
X253492000Y-145796000D01*
X281499600Y-137979990D02*
X261308010Y-137979990D01*
X290447590Y-129032000D02*
X281499600Y-137979990D01*
X321169036Y-123076964D02*
X315214000Y-129032000D01*
X253492000Y-145921590D02*
X253109590Y-146304000D01*
X320778674Y-114367610D02*
X321169036Y-114757972D01*
X216719990Y-84366610D02*
X216719990Y-95700010D01*
X218488200Y-82598400D02*
X216719990Y-84366610D01*
X216719990Y-95700010D02*
X213106000Y-99314000D01*
X213106000Y-141095590D02*
X213106000Y-99314000D01*
X330200000Y-70815170D02*
X332923267Y-73538437D01*
X330200000Y-55362580D02*
X330200000Y-70815170D01*
X329615269Y-54777849D02*
X330200000Y-55362580D01*
X332923267Y-73538437D02*
X332923267Y-73843267D01*
X332923267Y-73843267D02*
X334010000Y-74930000D01*
X334010000Y-74930000D02*
X334010000Y-82550000D01*
X334010000Y-82550000D02*
X333584166Y-82975834D01*
X352646779Y-89404526D02*
X337054526Y-89404526D01*
X333584166Y-85934166D02*
X333584166Y-82975834D01*
X337054526Y-89404526D02*
X333584166Y-85934166D01*
X353060000Y-89817747D02*
X353060000Y-93980000D01*
X352646779Y-89404526D02*
X353060000Y-89817747D01*
X353060000Y-93980000D02*
X350520000Y-96520000D01*
X350520000Y-96520000D02*
X348011758Y-96520000D01*
X339539262Y-111059612D02*
X339539262Y-97340738D01*
X339539262Y-97340738D02*
X340360000Y-96520000D01*
X340360000Y-96520000D02*
X347980000Y-96520000D01*
X339929624Y-120318376D02*
X339929624Y-111449974D01*
X335280000Y-124968000D02*
X339929624Y-120318376D01*
X331724000Y-124968000D02*
X335280000Y-124968000D01*
X261620000Y-138430000D02*
X281686000Y-138430000D01*
X327152000Y-129540000D02*
X331724000Y-124968000D01*
X253238000Y-146812000D02*
X261620000Y-138430000D01*
X218186000Y-146812000D02*
X253238000Y-146812000D01*
X290576000Y-129540000D02*
X327152000Y-129540000D01*
X212598000Y-99185590D02*
X212598000Y-141224000D01*
X339929624Y-111449974D02*
X339539262Y-111059612D01*
X281686000Y-138430000D02*
X290576000Y-129540000D01*
X216269980Y-82276620D02*
X216269980Y-95513610D01*
X212598000Y-141224000D02*
X218186000Y-146812000D01*
X216269980Y-95513610D02*
X212598000Y-99185590D01*
X218488200Y-80058400D02*
X216269980Y-82276620D01*
X123718106Y-51207376D02*
X123718106Y-56621894D01*
X120410108Y-59929892D02*
X120410108Y-69967964D01*
X123718106Y-56621894D02*
X120410108Y-59929892D01*
X117102110Y-79747890D02*
X117102110Y-88728551D01*
X120410108Y-76439892D02*
X117102110Y-79747890D01*
X120410108Y-69967964D02*
X120410108Y-76439892D01*
X117102110Y-88728551D02*
X117102110Y-93717890D01*
X113794113Y-97025887D02*
X113794113Y-107489139D01*
X117102110Y-93717890D02*
X113794113Y-97025887D01*
X175361016Y-54074606D02*
X172906400Y-51619990D01*
X123718106Y-50271894D02*
X123718106Y-51207376D01*
X128720010Y-45269990D02*
X123718106Y-50271894D01*
X152586400Y-45269990D02*
X128720010Y-45269990D01*
X203268200Y-77518400D02*
X193088400Y-77518400D01*
X158936400Y-51619990D02*
X152586400Y-45269990D01*
X172906400Y-51619990D02*
X158936400Y-51619990D01*
X184887427Y-54074607D02*
X175361016Y-54074606D01*
X192220010Y-61407190D02*
X184887427Y-54074607D01*
X192220010Y-76650010D02*
X192220010Y-61407190D01*
X193088400Y-77518400D02*
X192220010Y-76650010D01*
X203268200Y-64818400D02*
X205788400Y-64818400D01*
X205788400Y-64818400D02*
X208280000Y-67310000D01*
X212304906Y-67358400D02*
X212221653Y-67441653D01*
X218488200Y-67358400D02*
X212304906Y-67358400D01*
X218488200Y-69898400D02*
X218488200Y-67358400D01*
X214126800Y-93726000D02*
X215369960Y-92482840D01*
X215369960Y-73016640D02*
X218488200Y-69898400D01*
X215369960Y-92482840D02*
X215369960Y-73016640D01*
M02*
