G04 #@! TF.GenerationSoftware,KiCad,Pcbnew,(5.1.4-0-10_14)*
G04 #@! TF.CreationDate,2022-04-12T16:32:30-04:00*
G04 #@! TF.ProjectId,keyboard,6b657962-6f61-4726-942e-6b696361645f,rev?*
G04 #@! TF.SameCoordinates,Original*
G04 #@! TF.FileFunction,Soldermask,Top*
G04 #@! TF.FilePolarity,Negative*
%FSLAX46Y46*%
G04 Gerber Fmt 4.6, Leading zero omitted, Abs format (unit mm)*
G04 Created by KiCad (PCBNEW (5.1.4-0-10_14)) date 2022-04-12 16:32:30*
%MOMM*%
%LPD*%
G04 APERTURE LIST*
%ADD10C,2.000000*%
%ADD11C,1.750000*%
%ADD12C,3.987800*%
%ADD13C,1.600000*%
%ADD14C,0.100000*%
%ADD15C,3.048000*%
G04 APERTURE END LIST*
D10*
X207626800Y-93726000D03*
X214126800Y-93726000D03*
D11*
X144610691Y-93619674D03*
X134605045Y-91855408D03*
D12*
X139607868Y-92737541D03*
D11*
X362262011Y-51600531D03*
X352256365Y-53364797D03*
D12*
X357259188Y-52482664D03*
D11*
X170146209Y-126737400D03*
X161347391Y-121657400D03*
D12*
X165746800Y-124197400D03*
D11*
X181263627Y-105159708D03*
X171257981Y-103395442D03*
D12*
X176260804Y-104277575D03*
D11*
X101784565Y-117089555D03*
X91778919Y-115325289D03*
D12*
X96781742Y-116207422D03*
D11*
X108400560Y-79568380D03*
X98394914Y-77804114D03*
D12*
X103397737Y-78686247D03*
D13*
X94815524Y-104899194D03*
X102497024Y-106253650D03*
D14*
G36*
X103423789Y-105604722D02*
G01*
X103145952Y-107180415D01*
X101570259Y-106902578D01*
X101848096Y-105326885D01*
X103423789Y-105604722D01*
X103423789Y-105604722D01*
G37*
D13*
X236469516Y-75563216D03*
X244151016Y-74208760D03*
D14*
G36*
X244799944Y-73281995D02*
G01*
X245077781Y-74857688D01*
X243502088Y-75135525D01*
X243224251Y-73559832D01*
X244799944Y-73281995D01*
X244799944Y-73281995D01*
G37*
D13*
X115138946Y-99343922D03*
X122820446Y-100698378D03*
D14*
G36*
X123747211Y-100049450D02*
G01*
X123469374Y-101625143D01*
X121893681Y-101347306D01*
X122171518Y-99771613D01*
X123747211Y-100049450D01*
X123747211Y-100049450D01*
G37*
D13*
X121754941Y-61822747D03*
X129436441Y-63177203D03*
D14*
G36*
X130363206Y-62528275D02*
G01*
X130085369Y-64103968D01*
X128509676Y-63826131D01*
X128787513Y-62250438D01*
X130363206Y-62528275D01*
X130363206Y-62528275D01*
G37*
D13*
X152660121Y-105959918D03*
X160341621Y-107314374D03*
D14*
G36*
X161268386Y-106665446D02*
G01*
X160990549Y-108241139D01*
X159414856Y-107963302D01*
X159692693Y-106387609D01*
X161268386Y-106665446D01*
X161268386Y-106665446D01*
G37*
D13*
X322564574Y-125014238D03*
X330246074Y-123659782D03*
D14*
G36*
X330895002Y-122733017D02*
G01*
X331172839Y-124308710D01*
X329597146Y-124586547D01*
X329319309Y-123010854D01*
X330895002Y-122733017D01*
X330895002Y-122733017D01*
G37*
D13*
X254795984Y-69793199D03*
X262477484Y-68438743D03*
D14*
G36*
X263126412Y-67511978D02*
G01*
X263404249Y-69087671D01*
X261828556Y-69365508D01*
X261550719Y-67789815D01*
X263126412Y-67511978D01*
X263126412Y-67511978D01*
G37*
D13*
X77980784Y-63243022D03*
X85662284Y-64597478D03*
D14*
G36*
X86589049Y-63948550D02*
G01*
X86311212Y-65524243D01*
X84735519Y-65246406D01*
X85013356Y-63670713D01*
X86589049Y-63948550D01*
X86589049Y-63948550D01*
G37*
D13*
X177602584Y-74208760D03*
X185284084Y-75563216D03*
D14*
G36*
X186210849Y-74914288D02*
G01*
X185933012Y-76489981D01*
X184357319Y-76212144D01*
X184635156Y-74636451D01*
X186210849Y-74914288D01*
X186210849Y-74914288D01*
G37*
D13*
X111830948Y-118104510D03*
X119512448Y-119458966D03*
D14*
G36*
X120439213Y-118810038D02*
G01*
X120161376Y-120385731D01*
X118585683Y-120107894D01*
X118863520Y-118532201D01*
X120439213Y-118810038D01*
X120439213Y-118810038D01*
G37*
D13*
X331401169Y-65424477D03*
X339082669Y-64070021D03*
D14*
G36*
X339731597Y-63143256D02*
G01*
X340009434Y-64718949D01*
X338433741Y-64996786D01*
X338155904Y-63421093D01*
X339731597Y-63143256D01*
X339731597Y-63143256D01*
G37*
D13*
X256756801Y-133296440D03*
X263511799Y-129396440D03*
D14*
G36*
X263804619Y-128303620D02*
G01*
X264604619Y-129689260D01*
X263218979Y-130489260D01*
X262418979Y-129103620D01*
X263804619Y-128303620D01*
X263804619Y-128303620D01*
G37*
D13*
X319256576Y-106253650D03*
X326938076Y-104899194D03*
D14*
G36*
X327587004Y-103972429D02*
G01*
X327864841Y-105548122D01*
X326289148Y-105825959D01*
X326011311Y-104250266D01*
X327587004Y-103972429D01*
X327587004Y-103972429D01*
G37*
D13*
X64329568Y-99523698D03*
X72011068Y-100878154D03*
D14*
G36*
X72937833Y-100229226D02*
G01*
X72659996Y-101804919D01*
X71084303Y-101527082D01*
X71362140Y-99951389D01*
X72937833Y-100229226D01*
X72937833Y-100229226D01*
G37*
D13*
X354432679Y-100051154D03*
X362114179Y-98696698D03*
D14*
G36*
X362763107Y-97769933D02*
G01*
X363040944Y-99345626D01*
X361465251Y-99623463D01*
X361187414Y-98047770D01*
X362763107Y-97769933D01*
X362763107Y-97769933D01*
G37*
D13*
X315948579Y-87493063D03*
X323630079Y-86138607D03*
D14*
G36*
X324279007Y-85211842D02*
G01*
X324556844Y-86787535D01*
X322981151Y-87065372D01*
X322703314Y-85489679D01*
X324279007Y-85211842D01*
X324279007Y-85211842D01*
G37*
D13*
X118446944Y-80583335D03*
X126128444Y-81937791D03*
D14*
G36*
X127055209Y-81288863D02*
G01*
X126777372Y-82864556D01*
X125201679Y-82586719D01*
X125479516Y-81011026D01*
X127055209Y-81288863D01*
X127055209Y-81288863D01*
G37*
D13*
X341325162Y-121706240D03*
X349006662Y-120351784D03*
D14*
G36*
X349655590Y-119425019D02*
G01*
X349933427Y-121000712D01*
X348357734Y-121278549D01*
X348079897Y-119702856D01*
X349655590Y-119425019D01*
X349655590Y-119425019D01*
G37*
D13*
X159276116Y-68438743D03*
X166957616Y-69793199D03*
D14*
G36*
X167884381Y-69144271D02*
G01*
X167606544Y-70719964D01*
X166030851Y-70442127D01*
X166308688Y-68866434D01*
X167884381Y-69144271D01*
X167884381Y-69144271D01*
G37*
D13*
X334709167Y-84185065D03*
X342390667Y-82830609D03*
D14*
G36*
X343039595Y-81903844D02*
G01*
X343317432Y-83479537D01*
X341741739Y-83757374D01*
X341463902Y-82181681D01*
X343039595Y-81903844D01*
X343039595Y-81903844D01*
G37*
D13*
X101431519Y-67378019D03*
X109113019Y-68732475D03*
D14*
G36*
X110039784Y-68083547D02*
G01*
X109761947Y-69659240D01*
X108186254Y-69381403D01*
X108464091Y-67805710D01*
X110039784Y-68083547D01*
X110039784Y-68083547D01*
G37*
D13*
X312640581Y-68732475D03*
X320322081Y-67378019D03*
D14*
G36*
X320971009Y-66451254D02*
G01*
X321248846Y-68026947D01*
X319673153Y-68304784D01*
X319395316Y-66729091D01*
X320971009Y-66451254D01*
X320971009Y-66451254D01*
G37*
D13*
X292317159Y-63177203D03*
X299998659Y-61822747D03*
D14*
G36*
X300647587Y-60895982D02*
G01*
X300925424Y-62471675D01*
X299349731Y-62749512D01*
X299071894Y-61173819D01*
X300647587Y-60895982D01*
X300647587Y-60895982D01*
G37*
D13*
X243085511Y-113084391D03*
X250767011Y-111729935D03*
D14*
G36*
X251415939Y-110803170D02*
G01*
X251693776Y-112378863D01*
X250118083Y-112656700D01*
X249840246Y-111081007D01*
X251415939Y-110803170D01*
X251415939Y-110803170D01*
G37*
D13*
X131025655Y-118950489D03*
X138707155Y-120304945D03*
D14*
G36*
X139633920Y-119656017D02*
G01*
X139356083Y-121231710D01*
X137780390Y-120953873D01*
X138058227Y-119378180D01*
X139633920Y-119656017D01*
X139633920Y-119656017D01*
G37*
D13*
X261411979Y-107314374D03*
X269093479Y-105959918D03*
D14*
G36*
X269742407Y-105033153D02*
G01*
X270020244Y-106608846D01*
X268444551Y-106886683D01*
X268166714Y-105310990D01*
X269742407Y-105033153D01*
X269742407Y-105033153D01*
G37*
D13*
X283046445Y-120304945D03*
X290727945Y-118950489D03*
D14*
G36*
X291376873Y-118023724D02*
G01*
X291654710Y-119599417D01*
X290079017Y-119877254D01*
X289801180Y-118301561D01*
X291376873Y-118023724D01*
X291376873Y-118023724D01*
G37*
D13*
X295625157Y-81937791D03*
X303306657Y-80583335D03*
D14*
G36*
X303955585Y-79656570D02*
G01*
X304233422Y-81232263D01*
X302657729Y-81510100D01*
X302379892Y-79934407D01*
X303955585Y-79656570D01*
X303955585Y-79656570D01*
G37*
D13*
X276430450Y-82783770D03*
X284111950Y-81429314D03*
D14*
G36*
X284760878Y-80502549D02*
G01*
X285038715Y-82078242D01*
X283463022Y-82356079D01*
X283185185Y-80780386D01*
X284760878Y-80502549D01*
X284760878Y-80502549D01*
G37*
D13*
X258103982Y-88553787D03*
X265785482Y-87199331D03*
D14*
G36*
X266434410Y-86272566D02*
G01*
X266712247Y-87848259D01*
X265136554Y-88126096D01*
X264858717Y-86550403D01*
X266434410Y-86272566D01*
X266434410Y-86272566D01*
G37*
D13*
X273122452Y-64023182D03*
X280803952Y-62668726D03*
D14*
G36*
X281452880Y-61741961D02*
G01*
X281730717Y-63317654D01*
X280155024Y-63595491D01*
X279877187Y-62019798D01*
X281452880Y-61741961D01*
X281452880Y-61741961D01*
G37*
D13*
X239777514Y-94323804D03*
X247459014Y-92969348D03*
D14*
G36*
X248107942Y-92042583D02*
G01*
X248385779Y-93618276D01*
X246810086Y-93896113D01*
X246532249Y-92320420D01*
X248107942Y-92042583D01*
X248107942Y-92042583D01*
G37*
D13*
X174294587Y-92969348D03*
X181976087Y-94323804D03*
D14*
G36*
X182902852Y-93674876D02*
G01*
X182625015Y-95250569D01*
X181049322Y-94972732D01*
X181327159Y-93397039D01*
X182902852Y-93674876D01*
X182902852Y-93674876D01*
G37*
D13*
X155968119Y-87199331D03*
X163649619Y-88553787D03*
D14*
G36*
X164576384Y-87904859D02*
G01*
X164298547Y-89480552D01*
X162722854Y-89202715D01*
X163000691Y-87627022D01*
X164576384Y-87904859D01*
X164576384Y-87904859D01*
G37*
D13*
X365195122Y-78809569D03*
X372876622Y-77455113D03*
D14*
G36*
X373525550Y-76528348D02*
G01*
X373803387Y-78104041D01*
X372227694Y-78381878D01*
X371949857Y-76806185D01*
X373525550Y-76528348D01*
X373525550Y-76528348D01*
G37*
D13*
X140949648Y-62668726D03*
X148631148Y-64023182D03*
D14*
G36*
X149557913Y-63374254D02*
G01*
X149280076Y-64949947D01*
X147704383Y-64672110D01*
X147982220Y-63096417D01*
X149557913Y-63374254D01*
X149557913Y-63374254D01*
G37*
D13*
X302241152Y-119458966D03*
X309922652Y-118104510D03*
D14*
G36*
X310571580Y-117177745D02*
G01*
X310849417Y-118753438D01*
X309273724Y-119031275D01*
X308995887Y-117455582D01*
X310571580Y-117177745D01*
X310571580Y-117177745D01*
G37*
D13*
X298933154Y-100698378D03*
X306614654Y-99343922D03*
D14*
G36*
X307263582Y-98417157D02*
G01*
X307541419Y-99992850D01*
X305965726Y-100270687D01*
X305687889Y-98694994D01*
X307263582Y-98417157D01*
X307263582Y-98417157D01*
G37*
D13*
X137641651Y-81429314D03*
X145323151Y-82783770D03*
D14*
G36*
X146249916Y-82134842D02*
G01*
X145972079Y-83710535D01*
X144396386Y-83432698D01*
X144674223Y-81857005D01*
X146249916Y-82134842D01*
X146249916Y-82134842D01*
G37*
D13*
X70401865Y-119938285D03*
X78083365Y-121292741D03*
D14*
G36*
X79010130Y-120643813D02*
G01*
X78732293Y-122219506D01*
X77156600Y-121941669D01*
X77434437Y-120365976D01*
X79010130Y-120643813D01*
X79010130Y-120643813D01*
G37*
D13*
X194268347Y-134169132D03*
X198168347Y-127414134D03*
D14*
G36*
X197875527Y-126321314D02*
G01*
X199261167Y-127121314D01*
X198461167Y-128506954D01*
X197075527Y-127706954D01*
X197875527Y-126321314D01*
X197875527Y-126321314D01*
G37*
D13*
X279738447Y-101544357D03*
X287419947Y-100189901D03*
D14*
G36*
X288068875Y-99263136D02*
G01*
X288346712Y-100838829D01*
X286771019Y-101116666D01*
X286493182Y-99540973D01*
X288068875Y-99263136D01*
X288068875Y-99263136D01*
G37*
D13*
X72327713Y-81590110D03*
X80009213Y-82944566D03*
D14*
G36*
X80935978Y-82295638D02*
G01*
X80658141Y-83871331D01*
X79082448Y-83593494D01*
X79360285Y-82017801D01*
X80935978Y-82295638D01*
X80935978Y-82295638D01*
G37*
D13*
X134333653Y-100189901D03*
X142015153Y-101544357D03*
D14*
G36*
X142941918Y-100895429D02*
G01*
X142664081Y-102471122D01*
X141088388Y-102193285D01*
X141366225Y-100617592D01*
X142941918Y-100895429D01*
X142941918Y-100895429D01*
G37*
D13*
X354851904Y-61289480D03*
X362533404Y-59935024D03*
D14*
G36*
X363182332Y-59008259D02*
G01*
X363460169Y-60583952D01*
X361884476Y-60861789D01*
X361606639Y-59286096D01*
X363182332Y-59008259D01*
X363182332Y-59008259D01*
G37*
D13*
X158241801Y-129396440D03*
X164996799Y-133296440D03*
D14*
G36*
X166089619Y-133003620D02*
G01*
X165289619Y-134389260D01*
X163903979Y-133589260D01*
X164703979Y-132203620D01*
X166089619Y-133003620D01*
X166089619Y-133003620D01*
G37*
D13*
X170986589Y-111729935D03*
X178668089Y-113084391D03*
D14*
G36*
X179594854Y-112435463D02*
G01*
X179317017Y-114011156D01*
X177741324Y-113733319D01*
X178019161Y-112157626D01*
X179594854Y-112435463D01*
X179594854Y-112435463D01*
G37*
D13*
X91507526Y-123659782D03*
X99189026Y-125014238D03*
D14*
G36*
X100115791Y-124365310D02*
G01*
X99837954Y-125941003D01*
X98262261Y-125663166D01*
X98540098Y-124087473D01*
X100115791Y-124365310D01*
X100115791Y-124365310D01*
G37*
D13*
X223585253Y-127414134D03*
X227485253Y-134169132D03*
D14*
G36*
X228578073Y-134461952D02*
G01*
X227192433Y-135261952D01*
X226392433Y-133876312D01*
X227778073Y-133076312D01*
X228578073Y-134461952D01*
X228578073Y-134461952D01*
G37*
D13*
X98123522Y-86138607D03*
X105805022Y-87493063D03*
D14*
G36*
X106731787Y-86844135D02*
G01*
X106453950Y-88419828D01*
X104878257Y-88141991D01*
X105156094Y-86566298D01*
X106731787Y-86844135D01*
X106731787Y-86844135D01*
G37*
D11*
X111708558Y-60807792D03*
X101702912Y-59043526D03*
D12*
X106705735Y-59925659D03*
X202187347Y-120453022D03*
X190249347Y-141130244D03*
D15*
X188989120Y-112833022D03*
X177051120Y-133510244D03*
D11*
X191609307Y-122264724D03*
X186529307Y-131063542D03*
D12*
X189069307Y-126664133D03*
X231504253Y-141130244D03*
X219566253Y-120453022D03*
D15*
X244702480Y-133510244D03*
X232764480Y-112833022D03*
D11*
X235224293Y-131063542D03*
X230144293Y-122264724D03*
D12*
X232684293Y-126664133D03*
D11*
X348735269Y-112017291D03*
X338729623Y-113781557D03*
D12*
X343732446Y-112899424D03*
D11*
X105092562Y-98328967D03*
X95086916Y-96564701D03*
D12*
X100089739Y-97446834D03*
D11*
X243879623Y-65874267D03*
X233873977Y-67638533D03*
D12*
X238876800Y-66756400D03*
D11*
X125415984Y-92773695D03*
X115410338Y-91009429D03*
D12*
X120413161Y-91891562D03*
D11*
X132031980Y-55252520D03*
X122026334Y-53488254D03*
D12*
X127029157Y-54370387D03*
D11*
X162937159Y-99389691D03*
X152931513Y-97625425D03*
D12*
X157934336Y-98507558D03*
D11*
X329974681Y-115325289D03*
X319969035Y-117089555D03*
D12*
X324971858Y-116207422D03*
D11*
X262206091Y-60104250D03*
X252200445Y-61868516D03*
D12*
X257203268Y-60986383D03*
D11*
X88257823Y-56672795D03*
X78252177Y-54908529D03*
D12*
X83255000Y-55790662D03*
D11*
X187879623Y-67638533D03*
X177873977Y-65874267D03*
D12*
X182876800Y-66756400D03*
D11*
X122107987Y-111534283D03*
X112102341Y-109770017D03*
D12*
X117105164Y-110652150D03*
D11*
X338811276Y-55735528D03*
X328805630Y-57499794D03*
D12*
X333808453Y-56617661D03*
D11*
X260406209Y-121657400D03*
X251607391Y-126737400D03*
D12*
X256006800Y-124197400D03*
D11*
X326666684Y-96564701D03*
X316661038Y-98328967D03*
D12*
X321663861Y-97446834D03*
X79926953Y-102273938D03*
X56413683Y-98127914D03*
D15*
X82573351Y-87265468D03*
X59060082Y-83119444D03*
D11*
X74606607Y-92953471D03*
X64600961Y-91189205D03*
D12*
X69603784Y-92071338D03*
X370030064Y-97300914D03*
X346516794Y-101446938D03*
D15*
X367383665Y-82292444D03*
X343870396Y-86438468D03*
D11*
X361842786Y-90362205D03*
X351837140Y-92126471D03*
D12*
X356839963Y-91244338D03*
D11*
X323358686Y-77804114D03*
X313353040Y-79568380D03*
D12*
X318355863Y-78686247D03*
D11*
X128723982Y-74013108D03*
X118718336Y-72248842D03*
D12*
X123721159Y-73130975D03*
D11*
X169553155Y-61868516D03*
X159547509Y-60104250D03*
D12*
X164550332Y-60986383D03*
D11*
X342119274Y-74496116D03*
X332113628Y-76260382D03*
D12*
X337116451Y-75378249D03*
D11*
X320050688Y-59043526D03*
X310045042Y-60807792D03*
D12*
X315047865Y-59925659D03*
D11*
X299727266Y-53488254D03*
X289721620Y-55252520D03*
D12*
X294724443Y-54370387D03*
D11*
X250495619Y-103395442D03*
X240489973Y-105159708D03*
D12*
X245492796Y-104277575D03*
D11*
X141302694Y-112380262D03*
X131297048Y-110615996D03*
D12*
X136299871Y-111498129D03*
D11*
X268822087Y-97625425D03*
X258816441Y-99389691D03*
D12*
X263819264Y-98507558D03*
D11*
X290456552Y-110615996D03*
X280450906Y-112380262D03*
D12*
X285453729Y-111498129D03*
D11*
X303035264Y-72248842D03*
X293029618Y-74013108D03*
D12*
X298032441Y-73130975D03*
D11*
X283840557Y-73094821D03*
X273834911Y-74859087D03*
D12*
X278837734Y-73976954D03*
D11*
X265514089Y-78864838D03*
X255508443Y-80629104D03*
D12*
X260511266Y-79746971D03*
D11*
X280532559Y-54334233D03*
X270526913Y-56098499D03*
D12*
X275529736Y-55216366D03*
D11*
X247187621Y-84634855D03*
X237181975Y-86399121D03*
D12*
X242184798Y-85516988D03*
D11*
X184571625Y-86399121D03*
X174565979Y-84634855D03*
D12*
X179568802Y-85516988D03*
D11*
X166245157Y-80629104D03*
X156239511Y-78864838D03*
D12*
X161242334Y-79746971D03*
X380792507Y-76059329D03*
X357279237Y-80205353D03*
D15*
X378146108Y-61050859D03*
X354632839Y-65196883D03*
D11*
X372605229Y-69120620D03*
X362599583Y-70884886D03*
D12*
X367602406Y-70002753D03*
D11*
X151226687Y-56098499D03*
X141221041Y-54334233D03*
D12*
X146223864Y-55216366D03*
D11*
X309651259Y-109770017D03*
X299645613Y-111534283D03*
D12*
X304648436Y-110652150D03*
D11*
X306343262Y-91009429D03*
X296337616Y-92773695D03*
D12*
X301340439Y-91891562D03*
D11*
X147918689Y-74859087D03*
X137913043Y-73094821D03*
D12*
X142915866Y-73976954D03*
D11*
X80678904Y-113368058D03*
X70673258Y-111603792D03*
D12*
X75676081Y-112485925D03*
D11*
X287148555Y-91855408D03*
X277142909Y-93619674D03*
D12*
X282145732Y-92737541D03*
D11*
X82604752Y-75019883D03*
X72599106Y-73255617D03*
D12*
X77601929Y-74137750D03*
M02*
