G04 #@! TF.GenerationSoftware,KiCad,Pcbnew,(5.1.4-0-10_14)*
G04 #@! TF.CreationDate,2022-04-16T14:17:43-04:00*
G04 #@! TF.ProjectId,keyboard,6b657962-6f61-4726-942e-6b696361645f,rev?*
G04 #@! TF.SameCoordinates,Original*
G04 #@! TF.FileFunction,Copper,L2,Bot*
G04 #@! TF.FilePolarity,Positive*
%FSLAX46Y46*%
G04 Gerber Fmt 4.6, Leading zero omitted, Abs format (unit mm)*
G04 Created by KiCad (PCBNEW (5.1.4-0-10_14)) date 2022-04-16 14:17:43*
%MOMM*%
%LPD*%
G04 APERTURE LIST*
%ADD10C,2.000000*%
%ADD11C,1.905000*%
%ADD12C,0.100000*%
%ADD13C,2.250000*%
%ADD14C,2.250000*%
%ADD15C,0.500000*%
%ADD16C,1.600000*%
%ADD17C,1.200000*%
%ADD18C,1.524000*%
%ADD19C,0.800000*%
%ADD20C,0.250000*%
G04 APERTURE END LIST*
D10*
X207626800Y-93726000D03*
X214126800Y-93726000D03*
D11*
X139976441Y-97960898D03*
D12*
G36*
X138873012Y-98733527D02*
G01*
X139203812Y-96857469D01*
X141079870Y-97188269D01*
X140749070Y-99064327D01*
X138873012Y-98733527D01*
X138873012Y-98733527D01*
G37*
D11*
X137475029Y-97519831D03*
D13*
X137840441Y-88364190D03*
X137068630Y-88969360D03*
D14*
X136296817Y-89574530D02*
X137840443Y-88364190D01*
D13*
X142991412Y-88175784D03*
X142921358Y-88457906D03*
D14*
X142851304Y-88740027D02*
X142991412Y-88175785D01*
D11*
X359392027Y-57264954D03*
D12*
G36*
X358619398Y-58368383D02*
G01*
X358288598Y-56492325D01*
X360164656Y-56161525D01*
X360495456Y-58037583D01*
X358619398Y-58368383D01*
X358619398Y-58368383D01*
G37*
D11*
X356890615Y-57706021D03*
D13*
X354102576Y-48977553D03*
X353584291Y-49810203D03*
D14*
X353066004Y-50642852D02*
X354102578Y-48977554D01*
D13*
X358878467Y-47038774D03*
X358909129Y-47327842D03*
D14*
X358939791Y-47616909D02*
X358878467Y-47038775D01*
D11*
X164306652Y-129231809D03*
D12*
G36*
X163005513Y-129580448D02*
G01*
X163958013Y-127930670D01*
X165607791Y-128883170D01*
X164655291Y-130532948D01*
X163005513Y-129580448D01*
X163005513Y-129580448D01*
G37*
D11*
X162106948Y-127961809D03*
D13*
X165581736Y-119483298D03*
X164649490Y-119787997D03*
D14*
X163717243Y-120092695D02*
X165581737Y-119483299D01*
D13*
X170486505Y-121067991D03*
X170324185Y-121309139D03*
D14*
X170161864Y-121550286D02*
X170486506Y-121067992D01*
D11*
X176629377Y-109500932D03*
D12*
G36*
X175525948Y-110273561D02*
G01*
X175856748Y-108397503D01*
X177732806Y-108728303D01*
X177402006Y-110604361D01*
X175525948Y-110273561D01*
X175525948Y-110273561D01*
G37*
D11*
X174127965Y-109059865D03*
D13*
X174493377Y-99904224D03*
X173721566Y-100509394D03*
D14*
X172949753Y-101114564D02*
X174493379Y-99904224D01*
D13*
X179644348Y-99715818D03*
X179574294Y-99997940D03*
D14*
X179504240Y-100280061D02*
X179644348Y-99715819D01*
D11*
X97150315Y-121430779D03*
D12*
G36*
X96046886Y-122203408D02*
G01*
X96377686Y-120327350D01*
X98253744Y-120658150D01*
X97922944Y-122534208D01*
X96046886Y-122203408D01*
X96046886Y-122203408D01*
G37*
D11*
X94648903Y-120989712D03*
D13*
X95014315Y-111834071D03*
X94242504Y-112439241D03*
D14*
X93470691Y-113044411D02*
X95014317Y-111834071D01*
D13*
X100165286Y-111645665D03*
X100095232Y-111927787D03*
D14*
X100025178Y-112209908D02*
X100165286Y-111645666D01*
D11*
X103766310Y-83909604D03*
D12*
G36*
X102662881Y-84682233D02*
G01*
X102993681Y-82806175D01*
X104869739Y-83136975D01*
X104538939Y-85013033D01*
X102662881Y-84682233D01*
X102662881Y-84682233D01*
G37*
D11*
X101264898Y-83468537D03*
D13*
X101630310Y-74312896D03*
X100858499Y-74918066D03*
D14*
X100086686Y-75523236D02*
X101630312Y-74312896D01*
D13*
X106781281Y-74124490D03*
X106711227Y-74406612D03*
D14*
X106641173Y-74688733D02*
X106781281Y-74124491D01*
D15*
X95997293Y-105107572D03*
D12*
G36*
X97271715Y-105078430D02*
G01*
X97184891Y-105570834D01*
X94722871Y-105136714D01*
X94809695Y-104644310D01*
X97271715Y-105078430D01*
X97271715Y-105078430D01*
G37*
D15*
X101315255Y-106045272D03*
D12*
G36*
X102589677Y-106016130D02*
G01*
X102502853Y-106508534D01*
X100040833Y-106074414D01*
X100127657Y-105582010D01*
X102589677Y-106016130D01*
X102589677Y-106016130D01*
G37*
D16*
X94815524Y-104899194D03*
X102497024Y-106253650D03*
D12*
G36*
X103423789Y-105604722D02*
G01*
X103145952Y-107180415D01*
X101570259Y-106902578D01*
X101848096Y-105326885D01*
X103423789Y-105604722D01*
X103423789Y-105604722D01*
G37*
D17*
X100207346Y-105849918D03*
D12*
G36*
X100902420Y-105363222D02*
G01*
X100694042Y-106544992D01*
X99512272Y-106336614D01*
X99720650Y-105154844D01*
X100902420Y-105363222D01*
X100902420Y-105363222D01*
G37*
D17*
X97105202Y-105302926D03*
D12*
G36*
X97800276Y-104816230D02*
G01*
X97591898Y-105998000D01*
X96410128Y-105789622D01*
X96618506Y-104607852D01*
X97800276Y-104816230D01*
X97800276Y-104816230D01*
G37*
D15*
X237651285Y-75354838D03*
D12*
G36*
X238838883Y-74891576D02*
G01*
X238925707Y-75383980D01*
X236463687Y-75818100D01*
X236376863Y-75325696D01*
X238838883Y-74891576D01*
X238838883Y-74891576D01*
G37*
D15*
X242969247Y-74417138D03*
D12*
G36*
X244156845Y-73953876D02*
G01*
X244243669Y-74446280D01*
X241781649Y-74880400D01*
X241694825Y-74387996D01*
X244156845Y-73953876D01*
X244156845Y-73953876D01*
G37*
D16*
X236469516Y-75563216D03*
X244151016Y-74208760D03*
D12*
G36*
X244799944Y-73281995D02*
G01*
X245077781Y-74857688D01*
X243502088Y-75135525D01*
X243224251Y-73559832D01*
X244799944Y-73281995D01*
X244799944Y-73281995D01*
G37*
D17*
X241861338Y-74612492D03*
D12*
G36*
X242348034Y-73917418D02*
G01*
X242556412Y-75099188D01*
X241374642Y-75307566D01*
X241166264Y-74125796D01*
X242348034Y-73917418D01*
X242348034Y-73917418D01*
G37*
D17*
X238759194Y-75159484D03*
D12*
G36*
X239245890Y-74464410D02*
G01*
X239454268Y-75646180D01*
X238272498Y-75854558D01*
X238064120Y-74672788D01*
X239245890Y-74464410D01*
X239245890Y-74464410D01*
G37*
D15*
X116320715Y-99552300D03*
D12*
G36*
X117595137Y-99523158D02*
G01*
X117508313Y-100015562D01*
X115046293Y-99581442D01*
X115133117Y-99089038D01*
X117595137Y-99523158D01*
X117595137Y-99523158D01*
G37*
D15*
X121638677Y-100490000D03*
D12*
G36*
X122913099Y-100460858D02*
G01*
X122826275Y-100953262D01*
X120364255Y-100519142D01*
X120451079Y-100026738D01*
X122913099Y-100460858D01*
X122913099Y-100460858D01*
G37*
D16*
X115138946Y-99343922D03*
X122820446Y-100698378D03*
D12*
G36*
X123747211Y-100049450D02*
G01*
X123469374Y-101625143D01*
X121893681Y-101347306D01*
X122171518Y-99771613D01*
X123747211Y-100049450D01*
X123747211Y-100049450D01*
G37*
D17*
X120530768Y-100294646D03*
D12*
G36*
X121225842Y-99807950D02*
G01*
X121017464Y-100989720D01*
X119835694Y-100781342D01*
X120044072Y-99599572D01*
X121225842Y-99807950D01*
X121225842Y-99807950D01*
G37*
D17*
X117428624Y-99747654D03*
D12*
G36*
X118123698Y-99260958D02*
G01*
X117915320Y-100442728D01*
X116733550Y-100234350D01*
X116941928Y-99052580D01*
X118123698Y-99260958D01*
X118123698Y-99260958D01*
G37*
D15*
X122936710Y-62031125D03*
D12*
G36*
X124211132Y-62001983D02*
G01*
X124124308Y-62494387D01*
X121662288Y-62060267D01*
X121749112Y-61567863D01*
X124211132Y-62001983D01*
X124211132Y-62001983D01*
G37*
D15*
X128254672Y-62968825D03*
D12*
G36*
X129529094Y-62939683D02*
G01*
X129442270Y-63432087D01*
X126980250Y-62997967D01*
X127067074Y-62505563D01*
X129529094Y-62939683D01*
X129529094Y-62939683D01*
G37*
D16*
X121754941Y-61822747D03*
X129436441Y-63177203D03*
D12*
G36*
X130363206Y-62528275D02*
G01*
X130085369Y-64103968D01*
X128509676Y-63826131D01*
X128787513Y-62250438D01*
X130363206Y-62528275D01*
X130363206Y-62528275D01*
G37*
D17*
X127146763Y-62773471D03*
D12*
G36*
X127841837Y-62286775D02*
G01*
X127633459Y-63468545D01*
X126451689Y-63260167D01*
X126660067Y-62078397D01*
X127841837Y-62286775D01*
X127841837Y-62286775D01*
G37*
D17*
X124044619Y-62226479D03*
D12*
G36*
X124739693Y-61739783D02*
G01*
X124531315Y-62921553D01*
X123349545Y-62713175D01*
X123557923Y-61531405D01*
X124739693Y-61739783D01*
X124739693Y-61739783D01*
G37*
D15*
X153841890Y-106168296D03*
D12*
G36*
X155116312Y-106139154D02*
G01*
X155029488Y-106631558D01*
X152567468Y-106197438D01*
X152654292Y-105705034D01*
X155116312Y-106139154D01*
X155116312Y-106139154D01*
G37*
D15*
X159159852Y-107105996D03*
D12*
G36*
X160434274Y-107076854D02*
G01*
X160347450Y-107569258D01*
X157885430Y-107135138D01*
X157972254Y-106642734D01*
X160434274Y-107076854D01*
X160434274Y-107076854D01*
G37*
D16*
X152660121Y-105959918D03*
X160341621Y-107314374D03*
D12*
G36*
X161268386Y-106665446D02*
G01*
X160990549Y-108241139D01*
X159414856Y-107963302D01*
X159692693Y-106387609D01*
X161268386Y-106665446D01*
X161268386Y-106665446D01*
G37*
D17*
X158051943Y-106910642D03*
D12*
G36*
X158747017Y-106423946D02*
G01*
X158538639Y-107605716D01*
X157356869Y-107397338D01*
X157565247Y-106215568D01*
X158747017Y-106423946D01*
X158747017Y-106423946D01*
G37*
D17*
X154949799Y-106363650D03*
D12*
G36*
X155644873Y-105876954D02*
G01*
X155436495Y-107058724D01*
X154254725Y-106850346D01*
X154463103Y-105668576D01*
X155644873Y-105876954D01*
X155644873Y-105876954D01*
G37*
D15*
X323746343Y-124805860D03*
D12*
G36*
X324933941Y-124342598D02*
G01*
X325020765Y-124835002D01*
X322558745Y-125269122D01*
X322471921Y-124776718D01*
X324933941Y-124342598D01*
X324933941Y-124342598D01*
G37*
D15*
X329064305Y-123868160D03*
D12*
G36*
X330251903Y-123404898D02*
G01*
X330338727Y-123897302D01*
X327876707Y-124331422D01*
X327789883Y-123839018D01*
X330251903Y-123404898D01*
X330251903Y-123404898D01*
G37*
D16*
X322564574Y-125014238D03*
X330246074Y-123659782D03*
D12*
G36*
X330895002Y-122733017D02*
G01*
X331172839Y-124308710D01*
X329597146Y-124586547D01*
X329319309Y-123010854D01*
X330895002Y-122733017D01*
X330895002Y-122733017D01*
G37*
D17*
X327956396Y-124063514D03*
D12*
G36*
X328443092Y-123368440D02*
G01*
X328651470Y-124550210D01*
X327469700Y-124758588D01*
X327261322Y-123576818D01*
X328443092Y-123368440D01*
X328443092Y-123368440D01*
G37*
D17*
X324854252Y-124610506D03*
D12*
G36*
X325340948Y-123915432D02*
G01*
X325549326Y-125097202D01*
X324367556Y-125305580D01*
X324159178Y-124123810D01*
X325340948Y-123915432D01*
X325340948Y-123915432D01*
G37*
D15*
X255977753Y-69584821D03*
D12*
G36*
X257165351Y-69121559D02*
G01*
X257252175Y-69613963D01*
X254790155Y-70048083D01*
X254703331Y-69555679D01*
X257165351Y-69121559D01*
X257165351Y-69121559D01*
G37*
D15*
X261295715Y-68647121D03*
D12*
G36*
X262483313Y-68183859D02*
G01*
X262570137Y-68676263D01*
X260108117Y-69110383D01*
X260021293Y-68617979D01*
X262483313Y-68183859D01*
X262483313Y-68183859D01*
G37*
D16*
X254795984Y-69793199D03*
X262477484Y-68438743D03*
D12*
G36*
X263126412Y-67511978D02*
G01*
X263404249Y-69087671D01*
X261828556Y-69365508D01*
X261550719Y-67789815D01*
X263126412Y-67511978D01*
X263126412Y-67511978D01*
G37*
D17*
X260187806Y-68842475D03*
D12*
G36*
X260674502Y-68147401D02*
G01*
X260882880Y-69329171D01*
X259701110Y-69537549D01*
X259492732Y-68355779D01*
X260674502Y-68147401D01*
X260674502Y-68147401D01*
G37*
D17*
X257085662Y-69389467D03*
D12*
G36*
X257572358Y-68694393D02*
G01*
X257780736Y-69876163D01*
X256598966Y-70084541D01*
X256390588Y-68902771D01*
X257572358Y-68694393D01*
X257572358Y-68694393D01*
G37*
D15*
X79162553Y-63451400D03*
D12*
G36*
X80436975Y-63422258D02*
G01*
X80350151Y-63914662D01*
X77888131Y-63480542D01*
X77974955Y-62988138D01*
X80436975Y-63422258D01*
X80436975Y-63422258D01*
G37*
D15*
X84480515Y-64389100D03*
D12*
G36*
X85754937Y-64359958D02*
G01*
X85668113Y-64852362D01*
X83206093Y-64418242D01*
X83292917Y-63925838D01*
X85754937Y-64359958D01*
X85754937Y-64359958D01*
G37*
D16*
X77980784Y-63243022D03*
X85662284Y-64597478D03*
D12*
G36*
X86589049Y-63948550D02*
G01*
X86311212Y-65524243D01*
X84735519Y-65246406D01*
X85013356Y-63670713D01*
X86589049Y-63948550D01*
X86589049Y-63948550D01*
G37*
D17*
X83372606Y-64193746D03*
D12*
G36*
X84067680Y-63707050D02*
G01*
X83859302Y-64888820D01*
X82677532Y-64680442D01*
X82885910Y-63498672D01*
X84067680Y-63707050D01*
X84067680Y-63707050D01*
G37*
D17*
X80270462Y-63646754D03*
D12*
G36*
X80965536Y-63160058D02*
G01*
X80757158Y-64341828D01*
X79575388Y-64133450D01*
X79783766Y-62951680D01*
X80965536Y-63160058D01*
X80965536Y-63160058D01*
G37*
D15*
X178784353Y-74417138D03*
D12*
G36*
X180058775Y-74387996D02*
G01*
X179971951Y-74880400D01*
X177509931Y-74446280D01*
X177596755Y-73953876D01*
X180058775Y-74387996D01*
X180058775Y-74387996D01*
G37*
D15*
X184102315Y-75354838D03*
D12*
G36*
X185376737Y-75325696D02*
G01*
X185289913Y-75818100D01*
X182827893Y-75383980D01*
X182914717Y-74891576D01*
X185376737Y-75325696D01*
X185376737Y-75325696D01*
G37*
D16*
X177602584Y-74208760D03*
X185284084Y-75563216D03*
D12*
G36*
X186210849Y-74914288D02*
G01*
X185933012Y-76489981D01*
X184357319Y-76212144D01*
X184635156Y-74636451D01*
X186210849Y-74914288D01*
X186210849Y-74914288D01*
G37*
D17*
X182994406Y-75159484D03*
D12*
G36*
X183689480Y-74672788D02*
G01*
X183481102Y-75854558D01*
X182299332Y-75646180D01*
X182507710Y-74464410D01*
X183689480Y-74672788D01*
X183689480Y-74672788D01*
G37*
D17*
X179892262Y-74612492D03*
D12*
G36*
X180587336Y-74125796D02*
G01*
X180378958Y-75307566D01*
X179197188Y-75099188D01*
X179405566Y-73917418D01*
X180587336Y-74125796D01*
X180587336Y-74125796D01*
G37*
D15*
X113012717Y-118312888D03*
D12*
G36*
X114287139Y-118283746D02*
G01*
X114200315Y-118776150D01*
X111738295Y-118342030D01*
X111825119Y-117849626D01*
X114287139Y-118283746D01*
X114287139Y-118283746D01*
G37*
D15*
X118330679Y-119250588D03*
D12*
G36*
X119605101Y-119221446D02*
G01*
X119518277Y-119713850D01*
X117056257Y-119279730D01*
X117143081Y-118787326D01*
X119605101Y-119221446D01*
X119605101Y-119221446D01*
G37*
D16*
X111830948Y-118104510D03*
X119512448Y-119458966D03*
D12*
G36*
X120439213Y-118810038D02*
G01*
X120161376Y-120385731D01*
X118585683Y-120107894D01*
X118863520Y-118532201D01*
X120439213Y-118810038D01*
X120439213Y-118810038D01*
G37*
D17*
X117222770Y-119055234D03*
D12*
G36*
X117917844Y-118568538D02*
G01*
X117709466Y-119750308D01*
X116527696Y-119541930D01*
X116736074Y-118360160D01*
X117917844Y-118568538D01*
X117917844Y-118568538D01*
G37*
D17*
X114120626Y-118508242D03*
D12*
G36*
X114815700Y-118021546D02*
G01*
X114607322Y-119203316D01*
X113425552Y-118994938D01*
X113633930Y-117813168D01*
X114815700Y-118021546D01*
X114815700Y-118021546D01*
G37*
D15*
X332582938Y-65216099D03*
D12*
G36*
X333770536Y-64752837D02*
G01*
X333857360Y-65245241D01*
X331395340Y-65679361D01*
X331308516Y-65186957D01*
X333770536Y-64752837D01*
X333770536Y-64752837D01*
G37*
D15*
X337900900Y-64278399D03*
D12*
G36*
X339088498Y-63815137D02*
G01*
X339175322Y-64307541D01*
X336713302Y-64741661D01*
X336626478Y-64249257D01*
X339088498Y-63815137D01*
X339088498Y-63815137D01*
G37*
D16*
X331401169Y-65424477D03*
X339082669Y-64070021D03*
D12*
G36*
X339731597Y-63143256D02*
G01*
X340009434Y-64718949D01*
X338433741Y-64996786D01*
X338155904Y-63421093D01*
X339731597Y-63143256D01*
X339731597Y-63143256D01*
G37*
D17*
X336792991Y-64473753D03*
D12*
G36*
X337279687Y-63778679D02*
G01*
X337488065Y-64960449D01*
X336306295Y-65168827D01*
X336097917Y-63987057D01*
X337279687Y-63778679D01*
X337279687Y-63778679D01*
G37*
D17*
X333690847Y-65020745D03*
D12*
G36*
X334177543Y-64325671D02*
G01*
X334385921Y-65507441D01*
X333204151Y-65715819D01*
X332995773Y-64534049D01*
X334177543Y-64325671D01*
X334177543Y-64325671D01*
G37*
D15*
X257796031Y-132696440D03*
D12*
G36*
X258753563Y-131854934D02*
G01*
X259003563Y-132287946D01*
X256838499Y-133537946D01*
X256588499Y-133104934D01*
X258753563Y-131854934D01*
X258753563Y-131854934D01*
G37*
D15*
X262472569Y-129996440D03*
D12*
G36*
X263430101Y-129154934D02*
G01*
X263680101Y-129587946D01*
X261515037Y-130837946D01*
X261265037Y-130404934D01*
X263430101Y-129154934D01*
X263430101Y-129154934D01*
G37*
D16*
X256756801Y-133296440D03*
X263511799Y-129396440D03*
D12*
G36*
X263804619Y-128303620D02*
G01*
X264604619Y-129689260D01*
X263218979Y-130489260D01*
X262418979Y-129103620D01*
X263804619Y-128303620D01*
X263804619Y-128303620D01*
G37*
D17*
X261498290Y-130558940D03*
D12*
G36*
X261717905Y-129739325D02*
G01*
X262317905Y-130778555D01*
X261278675Y-131378555D01*
X260678675Y-130339325D01*
X261717905Y-129739325D01*
X261717905Y-129739325D01*
G37*
D17*
X258770310Y-132133940D03*
D12*
G36*
X258989925Y-131314325D02*
G01*
X259589925Y-132353555D01*
X258550695Y-132953555D01*
X257950695Y-131914325D01*
X258989925Y-131314325D01*
X258989925Y-131314325D01*
G37*
D15*
X320438345Y-106045272D03*
D12*
G36*
X321625943Y-105582010D02*
G01*
X321712767Y-106074414D01*
X319250747Y-106508534D01*
X319163923Y-106016130D01*
X321625943Y-105582010D01*
X321625943Y-105582010D01*
G37*
D15*
X325756307Y-105107572D03*
D12*
G36*
X326943905Y-104644310D02*
G01*
X327030729Y-105136714D01*
X324568709Y-105570834D01*
X324481885Y-105078430D01*
X326943905Y-104644310D01*
X326943905Y-104644310D01*
G37*
D16*
X319256576Y-106253650D03*
X326938076Y-104899194D03*
D12*
G36*
X327587004Y-103972429D02*
G01*
X327864841Y-105548122D01*
X326289148Y-105825959D01*
X326011311Y-104250266D01*
X327587004Y-103972429D01*
X327587004Y-103972429D01*
G37*
D17*
X324648398Y-105302926D03*
D12*
G36*
X325135094Y-104607852D02*
G01*
X325343472Y-105789622D01*
X324161702Y-105998000D01*
X323953324Y-104816230D01*
X325135094Y-104607852D01*
X325135094Y-104607852D01*
G37*
D17*
X321546254Y-105849918D03*
D12*
G36*
X322032950Y-105154844D02*
G01*
X322241328Y-106336614D01*
X321059558Y-106544992D01*
X320851180Y-105363222D01*
X322032950Y-105154844D01*
X322032950Y-105154844D01*
G37*
D15*
X65511337Y-99732076D03*
D12*
G36*
X66785759Y-99702934D02*
G01*
X66698935Y-100195338D01*
X64236915Y-99761218D01*
X64323739Y-99268814D01*
X66785759Y-99702934D01*
X66785759Y-99702934D01*
G37*
D15*
X70829299Y-100669776D03*
D12*
G36*
X72103721Y-100640634D02*
G01*
X72016897Y-101133038D01*
X69554877Y-100698918D01*
X69641701Y-100206514D01*
X72103721Y-100640634D01*
X72103721Y-100640634D01*
G37*
D16*
X64329568Y-99523698D03*
X72011068Y-100878154D03*
D12*
G36*
X72937833Y-100229226D02*
G01*
X72659996Y-101804919D01*
X71084303Y-101527082D01*
X71362140Y-99951389D01*
X72937833Y-100229226D01*
X72937833Y-100229226D01*
G37*
D17*
X69721390Y-100474422D03*
D12*
G36*
X70416464Y-99987726D02*
G01*
X70208086Y-101169496D01*
X69026316Y-100961118D01*
X69234694Y-99779348D01*
X70416464Y-99987726D01*
X70416464Y-99987726D01*
G37*
D17*
X66619246Y-99927430D03*
D12*
G36*
X67314320Y-99440734D02*
G01*
X67105942Y-100622504D01*
X65924172Y-100414126D01*
X66132550Y-99232356D01*
X67314320Y-99440734D01*
X67314320Y-99440734D01*
G37*
D15*
X355614448Y-99842776D03*
D12*
G36*
X356802046Y-99379514D02*
G01*
X356888870Y-99871918D01*
X354426850Y-100306038D01*
X354340026Y-99813634D01*
X356802046Y-99379514D01*
X356802046Y-99379514D01*
G37*
D15*
X360932410Y-98905076D03*
D12*
G36*
X362120008Y-98441814D02*
G01*
X362206832Y-98934218D01*
X359744812Y-99368338D01*
X359657988Y-98875934D01*
X362120008Y-98441814D01*
X362120008Y-98441814D01*
G37*
D16*
X354432679Y-100051154D03*
X362114179Y-98696698D03*
D12*
G36*
X362763107Y-97769933D02*
G01*
X363040944Y-99345626D01*
X361465251Y-99623463D01*
X361187414Y-98047770D01*
X362763107Y-97769933D01*
X362763107Y-97769933D01*
G37*
D17*
X359824501Y-99100430D03*
D12*
G36*
X360311197Y-98405356D02*
G01*
X360519575Y-99587126D01*
X359337805Y-99795504D01*
X359129427Y-98613734D01*
X360311197Y-98405356D01*
X360311197Y-98405356D01*
G37*
D17*
X356722357Y-99647422D03*
D12*
G36*
X357209053Y-98952348D02*
G01*
X357417431Y-100134118D01*
X356235661Y-100342496D01*
X356027283Y-99160726D01*
X357209053Y-98952348D01*
X357209053Y-98952348D01*
G37*
D15*
X317130348Y-87284685D03*
D12*
G36*
X318317946Y-86821423D02*
G01*
X318404770Y-87313827D01*
X315942750Y-87747947D01*
X315855926Y-87255543D01*
X318317946Y-86821423D01*
X318317946Y-86821423D01*
G37*
D15*
X322448310Y-86346985D03*
D12*
G36*
X323635908Y-85883723D02*
G01*
X323722732Y-86376127D01*
X321260712Y-86810247D01*
X321173888Y-86317843D01*
X323635908Y-85883723D01*
X323635908Y-85883723D01*
G37*
D16*
X315948579Y-87493063D03*
X323630079Y-86138607D03*
D12*
G36*
X324279007Y-85211842D02*
G01*
X324556844Y-86787535D01*
X322981151Y-87065372D01*
X322703314Y-85489679D01*
X324279007Y-85211842D01*
X324279007Y-85211842D01*
G37*
D17*
X321340401Y-86542339D03*
D12*
G36*
X321827097Y-85847265D02*
G01*
X322035475Y-87029035D01*
X320853705Y-87237413D01*
X320645327Y-86055643D01*
X321827097Y-85847265D01*
X321827097Y-85847265D01*
G37*
D17*
X318238257Y-87089331D03*
D12*
G36*
X318724953Y-86394257D02*
G01*
X318933331Y-87576027D01*
X317751561Y-87784405D01*
X317543183Y-86602635D01*
X318724953Y-86394257D01*
X318724953Y-86394257D01*
G37*
D15*
X119628713Y-80791713D03*
D12*
G36*
X120903135Y-80762571D02*
G01*
X120816311Y-81254975D01*
X118354291Y-80820855D01*
X118441115Y-80328451D01*
X120903135Y-80762571D01*
X120903135Y-80762571D01*
G37*
D15*
X124946675Y-81729413D03*
D12*
G36*
X126221097Y-81700271D02*
G01*
X126134273Y-82192675D01*
X123672253Y-81758555D01*
X123759077Y-81266151D01*
X126221097Y-81700271D01*
X126221097Y-81700271D01*
G37*
D16*
X118446944Y-80583335D03*
X126128444Y-81937791D03*
D12*
G36*
X127055209Y-81288863D02*
G01*
X126777372Y-82864556D01*
X125201679Y-82586719D01*
X125479516Y-81011026D01*
X127055209Y-81288863D01*
X127055209Y-81288863D01*
G37*
D17*
X123838766Y-81534059D03*
D12*
G36*
X124533840Y-81047363D02*
G01*
X124325462Y-82229133D01*
X123143692Y-82020755D01*
X123352070Y-80838985D01*
X124533840Y-81047363D01*
X124533840Y-81047363D01*
G37*
D17*
X120736622Y-80987067D03*
D12*
G36*
X121431696Y-80500371D02*
G01*
X121223318Y-81682141D01*
X120041548Y-81473763D01*
X120249926Y-80291993D01*
X121431696Y-80500371D01*
X121431696Y-80500371D01*
G37*
D15*
X342506931Y-121497862D03*
D12*
G36*
X343694529Y-121034600D02*
G01*
X343781353Y-121527004D01*
X341319333Y-121961124D01*
X341232509Y-121468720D01*
X343694529Y-121034600D01*
X343694529Y-121034600D01*
G37*
D15*
X347824893Y-120560162D03*
D12*
G36*
X349012491Y-120096900D02*
G01*
X349099315Y-120589304D01*
X346637295Y-121023424D01*
X346550471Y-120531020D01*
X349012491Y-120096900D01*
X349012491Y-120096900D01*
G37*
D16*
X341325162Y-121706240D03*
X349006662Y-120351784D03*
D12*
G36*
X349655590Y-119425019D02*
G01*
X349933427Y-121000712D01*
X348357734Y-121278549D01*
X348079897Y-119702856D01*
X349655590Y-119425019D01*
X349655590Y-119425019D01*
G37*
D17*
X346716984Y-120755516D03*
D12*
G36*
X347203680Y-120060442D02*
G01*
X347412058Y-121242212D01*
X346230288Y-121450590D01*
X346021910Y-120268820D01*
X347203680Y-120060442D01*
X347203680Y-120060442D01*
G37*
D17*
X343614840Y-121302508D03*
D12*
G36*
X344101536Y-120607434D02*
G01*
X344309914Y-121789204D01*
X343128144Y-121997582D01*
X342919766Y-120815812D01*
X344101536Y-120607434D01*
X344101536Y-120607434D01*
G37*
D15*
X160457885Y-68647121D03*
D12*
G36*
X161732307Y-68617979D02*
G01*
X161645483Y-69110383D01*
X159183463Y-68676263D01*
X159270287Y-68183859D01*
X161732307Y-68617979D01*
X161732307Y-68617979D01*
G37*
D15*
X165775847Y-69584821D03*
D12*
G36*
X167050269Y-69555679D02*
G01*
X166963445Y-70048083D01*
X164501425Y-69613963D01*
X164588249Y-69121559D01*
X167050269Y-69555679D01*
X167050269Y-69555679D01*
G37*
D16*
X159276116Y-68438743D03*
X166957616Y-69793199D03*
D12*
G36*
X167884381Y-69144271D02*
G01*
X167606544Y-70719964D01*
X166030851Y-70442127D01*
X166308688Y-68866434D01*
X167884381Y-69144271D01*
X167884381Y-69144271D01*
G37*
D17*
X164667938Y-69389467D03*
D12*
G36*
X165363012Y-68902771D02*
G01*
X165154634Y-70084541D01*
X163972864Y-69876163D01*
X164181242Y-68694393D01*
X165363012Y-68902771D01*
X165363012Y-68902771D01*
G37*
D17*
X161565794Y-68842475D03*
D12*
G36*
X162260868Y-68355779D02*
G01*
X162052490Y-69537549D01*
X160870720Y-69329171D01*
X161079098Y-68147401D01*
X162260868Y-68355779D01*
X162260868Y-68355779D01*
G37*
D15*
X335890936Y-83976687D03*
D12*
G36*
X337078534Y-83513425D02*
G01*
X337165358Y-84005829D01*
X334703338Y-84439949D01*
X334616514Y-83947545D01*
X337078534Y-83513425D01*
X337078534Y-83513425D01*
G37*
D15*
X341208898Y-83038987D03*
D12*
G36*
X342396496Y-82575725D02*
G01*
X342483320Y-83068129D01*
X340021300Y-83502249D01*
X339934476Y-83009845D01*
X342396496Y-82575725D01*
X342396496Y-82575725D01*
G37*
D16*
X334709167Y-84185065D03*
X342390667Y-82830609D03*
D12*
G36*
X343039595Y-81903844D02*
G01*
X343317432Y-83479537D01*
X341741739Y-83757374D01*
X341463902Y-82181681D01*
X343039595Y-81903844D01*
X343039595Y-81903844D01*
G37*
D17*
X340100989Y-83234341D03*
D12*
G36*
X340587685Y-82539267D02*
G01*
X340796063Y-83721037D01*
X339614293Y-83929415D01*
X339405915Y-82747645D01*
X340587685Y-82539267D01*
X340587685Y-82539267D01*
G37*
D17*
X336998845Y-83781333D03*
D12*
G36*
X337485541Y-83086259D02*
G01*
X337693919Y-84268029D01*
X336512149Y-84476407D01*
X336303771Y-83294637D01*
X337485541Y-83086259D01*
X337485541Y-83086259D01*
G37*
D15*
X102613288Y-67586397D03*
D12*
G36*
X103887710Y-67557255D02*
G01*
X103800886Y-68049659D01*
X101338866Y-67615539D01*
X101425690Y-67123135D01*
X103887710Y-67557255D01*
X103887710Y-67557255D01*
G37*
D15*
X107931250Y-68524097D03*
D12*
G36*
X109205672Y-68494955D02*
G01*
X109118848Y-68987359D01*
X106656828Y-68553239D01*
X106743652Y-68060835D01*
X109205672Y-68494955D01*
X109205672Y-68494955D01*
G37*
D16*
X101431519Y-67378019D03*
X109113019Y-68732475D03*
D12*
G36*
X110039784Y-68083547D02*
G01*
X109761947Y-69659240D01*
X108186254Y-69381403D01*
X108464091Y-67805710D01*
X110039784Y-68083547D01*
X110039784Y-68083547D01*
G37*
D17*
X106823341Y-68328743D03*
D12*
G36*
X107518415Y-67842047D02*
G01*
X107310037Y-69023817D01*
X106128267Y-68815439D01*
X106336645Y-67633669D01*
X107518415Y-67842047D01*
X107518415Y-67842047D01*
G37*
D17*
X103721197Y-67781751D03*
D12*
G36*
X104416271Y-67295055D02*
G01*
X104207893Y-68476825D01*
X103026123Y-68268447D01*
X103234501Y-67086677D01*
X104416271Y-67295055D01*
X104416271Y-67295055D01*
G37*
D15*
X313822350Y-68524097D03*
D12*
G36*
X315009948Y-68060835D02*
G01*
X315096772Y-68553239D01*
X312634752Y-68987359D01*
X312547928Y-68494955D01*
X315009948Y-68060835D01*
X315009948Y-68060835D01*
G37*
D15*
X319140312Y-67586397D03*
D12*
G36*
X320327910Y-67123135D02*
G01*
X320414734Y-67615539D01*
X317952714Y-68049659D01*
X317865890Y-67557255D01*
X320327910Y-67123135D01*
X320327910Y-67123135D01*
G37*
D16*
X312640581Y-68732475D03*
X320322081Y-67378019D03*
D12*
G36*
X320971009Y-66451254D02*
G01*
X321248846Y-68026947D01*
X319673153Y-68304784D01*
X319395316Y-66729091D01*
X320971009Y-66451254D01*
X320971009Y-66451254D01*
G37*
D17*
X318032403Y-67781751D03*
D12*
G36*
X318519099Y-67086677D02*
G01*
X318727477Y-68268447D01*
X317545707Y-68476825D01*
X317337329Y-67295055D01*
X318519099Y-67086677D01*
X318519099Y-67086677D01*
G37*
D17*
X314930259Y-68328743D03*
D12*
G36*
X315416955Y-67633669D02*
G01*
X315625333Y-68815439D01*
X314443563Y-69023817D01*
X314235185Y-67842047D01*
X315416955Y-67633669D01*
X315416955Y-67633669D01*
G37*
D15*
X293498928Y-62968825D03*
D12*
G36*
X294686526Y-62505563D02*
G01*
X294773350Y-62997967D01*
X292311330Y-63432087D01*
X292224506Y-62939683D01*
X294686526Y-62505563D01*
X294686526Y-62505563D01*
G37*
D15*
X298816890Y-62031125D03*
D12*
G36*
X300004488Y-61567863D02*
G01*
X300091312Y-62060267D01*
X297629292Y-62494387D01*
X297542468Y-62001983D01*
X300004488Y-61567863D01*
X300004488Y-61567863D01*
G37*
D16*
X292317159Y-63177203D03*
X299998659Y-61822747D03*
D12*
G36*
X300647587Y-60895982D02*
G01*
X300925424Y-62471675D01*
X299349731Y-62749512D01*
X299071894Y-61173819D01*
X300647587Y-60895982D01*
X300647587Y-60895982D01*
G37*
D17*
X297708981Y-62226479D03*
D12*
G36*
X298195677Y-61531405D02*
G01*
X298404055Y-62713175D01*
X297222285Y-62921553D01*
X297013907Y-61739783D01*
X298195677Y-61531405D01*
X298195677Y-61531405D01*
G37*
D17*
X294606837Y-62773471D03*
D12*
G36*
X295093533Y-62078397D02*
G01*
X295301911Y-63260167D01*
X294120141Y-63468545D01*
X293911763Y-62286775D01*
X295093533Y-62078397D01*
X295093533Y-62078397D01*
G37*
D15*
X244267280Y-112876013D03*
D12*
G36*
X245454878Y-112412751D02*
G01*
X245541702Y-112905155D01*
X243079682Y-113339275D01*
X242992858Y-112846871D01*
X245454878Y-112412751D01*
X245454878Y-112412751D01*
G37*
D15*
X249585242Y-111938313D03*
D12*
G36*
X250772840Y-111475051D02*
G01*
X250859664Y-111967455D01*
X248397644Y-112401575D01*
X248310820Y-111909171D01*
X250772840Y-111475051D01*
X250772840Y-111475051D01*
G37*
D16*
X243085511Y-113084391D03*
X250767011Y-111729935D03*
D12*
G36*
X251415939Y-110803170D02*
G01*
X251693776Y-112378863D01*
X250118083Y-112656700D01*
X249840246Y-111081007D01*
X251415939Y-110803170D01*
X251415939Y-110803170D01*
G37*
D17*
X248477333Y-112133667D03*
D12*
G36*
X248964029Y-111438593D02*
G01*
X249172407Y-112620363D01*
X247990637Y-112828741D01*
X247782259Y-111646971D01*
X248964029Y-111438593D01*
X248964029Y-111438593D01*
G37*
D17*
X245375189Y-112680659D03*
D12*
G36*
X245861885Y-111985585D02*
G01*
X246070263Y-113167355D01*
X244888493Y-113375733D01*
X244680115Y-112193963D01*
X245861885Y-111985585D01*
X245861885Y-111985585D01*
G37*
D15*
X132207424Y-119158867D03*
D12*
G36*
X133481846Y-119129725D02*
G01*
X133395022Y-119622129D01*
X130933002Y-119188009D01*
X131019826Y-118695605D01*
X133481846Y-119129725D01*
X133481846Y-119129725D01*
G37*
D15*
X137525386Y-120096567D03*
D12*
G36*
X138799808Y-120067425D02*
G01*
X138712984Y-120559829D01*
X136250964Y-120125709D01*
X136337788Y-119633305D01*
X138799808Y-120067425D01*
X138799808Y-120067425D01*
G37*
D16*
X131025655Y-118950489D03*
X138707155Y-120304945D03*
D12*
G36*
X139633920Y-119656017D02*
G01*
X139356083Y-121231710D01*
X137780390Y-120953873D01*
X138058227Y-119378180D01*
X139633920Y-119656017D01*
X139633920Y-119656017D01*
G37*
D17*
X136417477Y-119901213D03*
D12*
G36*
X137112551Y-119414517D02*
G01*
X136904173Y-120596287D01*
X135722403Y-120387909D01*
X135930781Y-119206139D01*
X137112551Y-119414517D01*
X137112551Y-119414517D01*
G37*
D17*
X133315333Y-119354221D03*
D12*
G36*
X134010407Y-118867525D02*
G01*
X133802029Y-120049295D01*
X132620259Y-119840917D01*
X132828637Y-118659147D01*
X134010407Y-118867525D01*
X134010407Y-118867525D01*
G37*
D15*
X262593748Y-107105996D03*
D12*
G36*
X263781346Y-106642734D02*
G01*
X263868170Y-107135138D01*
X261406150Y-107569258D01*
X261319326Y-107076854D01*
X263781346Y-106642734D01*
X263781346Y-106642734D01*
G37*
D15*
X267911710Y-106168296D03*
D12*
G36*
X269099308Y-105705034D02*
G01*
X269186132Y-106197438D01*
X266724112Y-106631558D01*
X266637288Y-106139154D01*
X269099308Y-105705034D01*
X269099308Y-105705034D01*
G37*
D16*
X261411979Y-107314374D03*
X269093479Y-105959918D03*
D12*
G36*
X269742407Y-105033153D02*
G01*
X270020244Y-106608846D01*
X268444551Y-106886683D01*
X268166714Y-105310990D01*
X269742407Y-105033153D01*
X269742407Y-105033153D01*
G37*
D17*
X266803801Y-106363650D03*
D12*
G36*
X267290497Y-105668576D02*
G01*
X267498875Y-106850346D01*
X266317105Y-107058724D01*
X266108727Y-105876954D01*
X267290497Y-105668576D01*
X267290497Y-105668576D01*
G37*
D17*
X263701657Y-106910642D03*
D12*
G36*
X264188353Y-106215568D02*
G01*
X264396731Y-107397338D01*
X263214961Y-107605716D01*
X263006583Y-106423946D01*
X264188353Y-106215568D01*
X264188353Y-106215568D01*
G37*
D15*
X284228214Y-120096567D03*
D12*
G36*
X285415812Y-119633305D02*
G01*
X285502636Y-120125709D01*
X283040616Y-120559829D01*
X282953792Y-120067425D01*
X285415812Y-119633305D01*
X285415812Y-119633305D01*
G37*
D15*
X289546176Y-119158867D03*
D12*
G36*
X290733774Y-118695605D02*
G01*
X290820598Y-119188009D01*
X288358578Y-119622129D01*
X288271754Y-119129725D01*
X290733774Y-118695605D01*
X290733774Y-118695605D01*
G37*
D16*
X283046445Y-120304945D03*
X290727945Y-118950489D03*
D12*
G36*
X291376873Y-118023724D02*
G01*
X291654710Y-119599417D01*
X290079017Y-119877254D01*
X289801180Y-118301561D01*
X291376873Y-118023724D01*
X291376873Y-118023724D01*
G37*
D17*
X288438267Y-119354221D03*
D12*
G36*
X288924963Y-118659147D02*
G01*
X289133341Y-119840917D01*
X287951571Y-120049295D01*
X287743193Y-118867525D01*
X288924963Y-118659147D01*
X288924963Y-118659147D01*
G37*
D17*
X285336123Y-119901213D03*
D12*
G36*
X285822819Y-119206139D02*
G01*
X286031197Y-120387909D01*
X284849427Y-120596287D01*
X284641049Y-119414517D01*
X285822819Y-119206139D01*
X285822819Y-119206139D01*
G37*
D15*
X296806926Y-81729413D03*
D12*
G36*
X297994524Y-81266151D02*
G01*
X298081348Y-81758555D01*
X295619328Y-82192675D01*
X295532504Y-81700271D01*
X297994524Y-81266151D01*
X297994524Y-81266151D01*
G37*
D15*
X302124888Y-80791713D03*
D12*
G36*
X303312486Y-80328451D02*
G01*
X303399310Y-80820855D01*
X300937290Y-81254975D01*
X300850466Y-80762571D01*
X303312486Y-80328451D01*
X303312486Y-80328451D01*
G37*
D16*
X295625157Y-81937791D03*
X303306657Y-80583335D03*
D12*
G36*
X303955585Y-79656570D02*
G01*
X304233422Y-81232263D01*
X302657729Y-81510100D01*
X302379892Y-79934407D01*
X303955585Y-79656570D01*
X303955585Y-79656570D01*
G37*
D17*
X301016979Y-80987067D03*
D12*
G36*
X301503675Y-80291993D02*
G01*
X301712053Y-81473763D01*
X300530283Y-81682141D01*
X300321905Y-80500371D01*
X301503675Y-80291993D01*
X301503675Y-80291993D01*
G37*
D17*
X297914835Y-81534059D03*
D12*
G36*
X298401531Y-80838985D02*
G01*
X298609909Y-82020755D01*
X297428139Y-82229133D01*
X297219761Y-81047363D01*
X298401531Y-80838985D01*
X298401531Y-80838985D01*
G37*
D15*
X277612219Y-82575392D03*
D12*
G36*
X278799817Y-82112130D02*
G01*
X278886641Y-82604534D01*
X276424621Y-83038654D01*
X276337797Y-82546250D01*
X278799817Y-82112130D01*
X278799817Y-82112130D01*
G37*
D15*
X282930181Y-81637692D03*
D12*
G36*
X284117779Y-81174430D02*
G01*
X284204603Y-81666834D01*
X281742583Y-82100954D01*
X281655759Y-81608550D01*
X284117779Y-81174430D01*
X284117779Y-81174430D01*
G37*
D16*
X276430450Y-82783770D03*
X284111950Y-81429314D03*
D12*
G36*
X284760878Y-80502549D02*
G01*
X285038715Y-82078242D01*
X283463022Y-82356079D01*
X283185185Y-80780386D01*
X284760878Y-80502549D01*
X284760878Y-80502549D01*
G37*
D17*
X281822272Y-81833046D03*
D12*
G36*
X282308968Y-81137972D02*
G01*
X282517346Y-82319742D01*
X281335576Y-82528120D01*
X281127198Y-81346350D01*
X282308968Y-81137972D01*
X282308968Y-81137972D01*
G37*
D17*
X278720128Y-82380038D03*
D12*
G36*
X279206824Y-81684964D02*
G01*
X279415202Y-82866734D01*
X278233432Y-83075112D01*
X278025054Y-81893342D01*
X279206824Y-81684964D01*
X279206824Y-81684964D01*
G37*
D15*
X259285751Y-88345409D03*
D12*
G36*
X260473349Y-87882147D02*
G01*
X260560173Y-88374551D01*
X258098153Y-88808671D01*
X258011329Y-88316267D01*
X260473349Y-87882147D01*
X260473349Y-87882147D01*
G37*
D15*
X264603713Y-87407709D03*
D12*
G36*
X265791311Y-86944447D02*
G01*
X265878135Y-87436851D01*
X263416115Y-87870971D01*
X263329291Y-87378567D01*
X265791311Y-86944447D01*
X265791311Y-86944447D01*
G37*
D16*
X258103982Y-88553787D03*
X265785482Y-87199331D03*
D12*
G36*
X266434410Y-86272566D02*
G01*
X266712247Y-87848259D01*
X265136554Y-88126096D01*
X264858717Y-86550403D01*
X266434410Y-86272566D01*
X266434410Y-86272566D01*
G37*
D17*
X263495804Y-87603063D03*
D12*
G36*
X263982500Y-86907989D02*
G01*
X264190878Y-88089759D01*
X263009108Y-88298137D01*
X262800730Y-87116367D01*
X263982500Y-86907989D01*
X263982500Y-86907989D01*
G37*
D17*
X260393660Y-88150055D03*
D12*
G36*
X260880356Y-87454981D02*
G01*
X261088734Y-88636751D01*
X259906964Y-88845129D01*
X259698586Y-87663359D01*
X260880356Y-87454981D01*
X260880356Y-87454981D01*
G37*
D15*
X274304221Y-63814804D03*
D12*
G36*
X275491819Y-63351542D02*
G01*
X275578643Y-63843946D01*
X273116623Y-64278066D01*
X273029799Y-63785662D01*
X275491819Y-63351542D01*
X275491819Y-63351542D01*
G37*
D15*
X279622183Y-62877104D03*
D12*
G36*
X280809781Y-62413842D02*
G01*
X280896605Y-62906246D01*
X278434585Y-63340366D01*
X278347761Y-62847962D01*
X280809781Y-62413842D01*
X280809781Y-62413842D01*
G37*
D16*
X273122452Y-64023182D03*
X280803952Y-62668726D03*
D12*
G36*
X281452880Y-61741961D02*
G01*
X281730717Y-63317654D01*
X280155024Y-63595491D01*
X279877187Y-62019798D01*
X281452880Y-61741961D01*
X281452880Y-61741961D01*
G37*
D17*
X278514274Y-63072458D03*
D12*
G36*
X279000970Y-62377384D02*
G01*
X279209348Y-63559154D01*
X278027578Y-63767532D01*
X277819200Y-62585762D01*
X279000970Y-62377384D01*
X279000970Y-62377384D01*
G37*
D17*
X275412130Y-63619450D03*
D12*
G36*
X275898826Y-62924376D02*
G01*
X276107204Y-64106146D01*
X274925434Y-64314524D01*
X274717056Y-63132754D01*
X275898826Y-62924376D01*
X275898826Y-62924376D01*
G37*
D15*
X240959283Y-94115426D03*
D12*
G36*
X242146881Y-93652164D02*
G01*
X242233705Y-94144568D01*
X239771685Y-94578688D01*
X239684861Y-94086284D01*
X242146881Y-93652164D01*
X242146881Y-93652164D01*
G37*
D15*
X246277245Y-93177726D03*
D12*
G36*
X247464843Y-92714464D02*
G01*
X247551667Y-93206868D01*
X245089647Y-93640988D01*
X245002823Y-93148584D01*
X247464843Y-92714464D01*
X247464843Y-92714464D01*
G37*
D16*
X239777514Y-94323804D03*
X247459014Y-92969348D03*
D12*
G36*
X248107942Y-92042583D02*
G01*
X248385779Y-93618276D01*
X246810086Y-93896113D01*
X246532249Y-92320420D01*
X248107942Y-92042583D01*
X248107942Y-92042583D01*
G37*
D17*
X245169336Y-93373080D03*
D12*
G36*
X245656032Y-92678006D02*
G01*
X245864410Y-93859776D01*
X244682640Y-94068154D01*
X244474262Y-92886384D01*
X245656032Y-92678006D01*
X245656032Y-92678006D01*
G37*
D17*
X242067192Y-93920072D03*
D12*
G36*
X242553888Y-93224998D02*
G01*
X242762266Y-94406768D01*
X241580496Y-94615146D01*
X241372118Y-93433376D01*
X242553888Y-93224998D01*
X242553888Y-93224998D01*
G37*
D15*
X175476356Y-93177726D03*
D12*
G36*
X176750778Y-93148584D02*
G01*
X176663954Y-93640988D01*
X174201934Y-93206868D01*
X174288758Y-92714464D01*
X176750778Y-93148584D01*
X176750778Y-93148584D01*
G37*
D15*
X180794318Y-94115426D03*
D12*
G36*
X182068740Y-94086284D02*
G01*
X181981916Y-94578688D01*
X179519896Y-94144568D01*
X179606720Y-93652164D01*
X182068740Y-94086284D01*
X182068740Y-94086284D01*
G37*
D16*
X174294587Y-92969348D03*
X181976087Y-94323804D03*
D12*
G36*
X182902852Y-93674876D02*
G01*
X182625015Y-95250569D01*
X181049322Y-94972732D01*
X181327159Y-93397039D01*
X182902852Y-93674876D01*
X182902852Y-93674876D01*
G37*
D17*
X179686409Y-93920072D03*
D12*
G36*
X180381483Y-93433376D02*
G01*
X180173105Y-94615146D01*
X178991335Y-94406768D01*
X179199713Y-93224998D01*
X180381483Y-93433376D01*
X180381483Y-93433376D01*
G37*
D17*
X176584265Y-93373080D03*
D12*
G36*
X177279339Y-92886384D02*
G01*
X177070961Y-94068154D01*
X175889191Y-93859776D01*
X176097569Y-92678006D01*
X177279339Y-92886384D01*
X177279339Y-92886384D01*
G37*
D15*
X157149888Y-87407709D03*
D12*
G36*
X158424310Y-87378567D02*
G01*
X158337486Y-87870971D01*
X155875466Y-87436851D01*
X155962290Y-86944447D01*
X158424310Y-87378567D01*
X158424310Y-87378567D01*
G37*
D15*
X162467850Y-88345409D03*
D12*
G36*
X163742272Y-88316267D02*
G01*
X163655448Y-88808671D01*
X161193428Y-88374551D01*
X161280252Y-87882147D01*
X163742272Y-88316267D01*
X163742272Y-88316267D01*
G37*
D16*
X155968119Y-87199331D03*
X163649619Y-88553787D03*
D12*
G36*
X164576384Y-87904859D02*
G01*
X164298547Y-89480552D01*
X162722854Y-89202715D01*
X163000691Y-87627022D01*
X164576384Y-87904859D01*
X164576384Y-87904859D01*
G37*
D17*
X161359941Y-88150055D03*
D12*
G36*
X162055015Y-87663359D02*
G01*
X161846637Y-88845129D01*
X160664867Y-88636751D01*
X160873245Y-87454981D01*
X162055015Y-87663359D01*
X162055015Y-87663359D01*
G37*
D17*
X158257797Y-87603063D03*
D12*
G36*
X158952871Y-87116367D02*
G01*
X158744493Y-88298137D01*
X157562723Y-88089759D01*
X157771101Y-86907989D01*
X158952871Y-87116367D01*
X158952871Y-87116367D01*
G37*
D15*
X366376891Y-78601191D03*
D12*
G36*
X367564489Y-78137929D02*
G01*
X367651313Y-78630333D01*
X365189293Y-79064453D01*
X365102469Y-78572049D01*
X367564489Y-78137929D01*
X367564489Y-78137929D01*
G37*
D15*
X371694853Y-77663491D03*
D12*
G36*
X372882451Y-77200229D02*
G01*
X372969275Y-77692633D01*
X370507255Y-78126753D01*
X370420431Y-77634349D01*
X372882451Y-77200229D01*
X372882451Y-77200229D01*
G37*
D16*
X365195122Y-78809569D03*
X372876622Y-77455113D03*
D12*
G36*
X373525550Y-76528348D02*
G01*
X373803387Y-78104041D01*
X372227694Y-78381878D01*
X371949857Y-76806185D01*
X373525550Y-76528348D01*
X373525550Y-76528348D01*
G37*
D17*
X370586944Y-77858845D03*
D12*
G36*
X371073640Y-77163771D02*
G01*
X371282018Y-78345541D01*
X370100248Y-78553919D01*
X369891870Y-77372149D01*
X371073640Y-77163771D01*
X371073640Y-77163771D01*
G37*
D17*
X367484800Y-78405837D03*
D12*
G36*
X367971496Y-77710763D02*
G01*
X368179874Y-78892533D01*
X366998104Y-79100911D01*
X366789726Y-77919141D01*
X367971496Y-77710763D01*
X367971496Y-77710763D01*
G37*
D15*
X142131417Y-62877104D03*
D12*
G36*
X143405839Y-62847962D02*
G01*
X143319015Y-63340366D01*
X140856995Y-62906246D01*
X140943819Y-62413842D01*
X143405839Y-62847962D01*
X143405839Y-62847962D01*
G37*
D15*
X147449379Y-63814804D03*
D12*
G36*
X148723801Y-63785662D02*
G01*
X148636977Y-64278066D01*
X146174957Y-63843946D01*
X146261781Y-63351542D01*
X148723801Y-63785662D01*
X148723801Y-63785662D01*
G37*
D16*
X140949648Y-62668726D03*
X148631148Y-64023182D03*
D12*
G36*
X149557913Y-63374254D02*
G01*
X149280076Y-64949947D01*
X147704383Y-64672110D01*
X147982220Y-63096417D01*
X149557913Y-63374254D01*
X149557913Y-63374254D01*
G37*
D17*
X146341470Y-63619450D03*
D12*
G36*
X147036544Y-63132754D02*
G01*
X146828166Y-64314524D01*
X145646396Y-64106146D01*
X145854774Y-62924376D01*
X147036544Y-63132754D01*
X147036544Y-63132754D01*
G37*
D17*
X143239326Y-63072458D03*
D12*
G36*
X143934400Y-62585762D02*
G01*
X143726022Y-63767532D01*
X142544252Y-63559154D01*
X142752630Y-62377384D01*
X143934400Y-62585762D01*
X143934400Y-62585762D01*
G37*
D15*
X303422921Y-119250588D03*
D12*
G36*
X304610519Y-118787326D02*
G01*
X304697343Y-119279730D01*
X302235323Y-119713850D01*
X302148499Y-119221446D01*
X304610519Y-118787326D01*
X304610519Y-118787326D01*
G37*
D15*
X308740883Y-118312888D03*
D12*
G36*
X309928481Y-117849626D02*
G01*
X310015305Y-118342030D01*
X307553285Y-118776150D01*
X307466461Y-118283746D01*
X309928481Y-117849626D01*
X309928481Y-117849626D01*
G37*
D16*
X302241152Y-119458966D03*
X309922652Y-118104510D03*
D12*
G36*
X310571580Y-117177745D02*
G01*
X310849417Y-118753438D01*
X309273724Y-119031275D01*
X308995887Y-117455582D01*
X310571580Y-117177745D01*
X310571580Y-117177745D01*
G37*
D17*
X307632974Y-118508242D03*
D12*
G36*
X308119670Y-117813168D02*
G01*
X308328048Y-118994938D01*
X307146278Y-119203316D01*
X306937900Y-118021546D01*
X308119670Y-117813168D01*
X308119670Y-117813168D01*
G37*
D17*
X304530830Y-119055234D03*
D12*
G36*
X305017526Y-118360160D02*
G01*
X305225904Y-119541930D01*
X304044134Y-119750308D01*
X303835756Y-118568538D01*
X305017526Y-118360160D01*
X305017526Y-118360160D01*
G37*
D15*
X300114923Y-100490000D03*
D12*
G36*
X301302521Y-100026738D02*
G01*
X301389345Y-100519142D01*
X298927325Y-100953262D01*
X298840501Y-100460858D01*
X301302521Y-100026738D01*
X301302521Y-100026738D01*
G37*
D15*
X305432885Y-99552300D03*
D12*
G36*
X306620483Y-99089038D02*
G01*
X306707307Y-99581442D01*
X304245287Y-100015562D01*
X304158463Y-99523158D01*
X306620483Y-99089038D01*
X306620483Y-99089038D01*
G37*
D16*
X298933154Y-100698378D03*
X306614654Y-99343922D03*
D12*
G36*
X307263582Y-98417157D02*
G01*
X307541419Y-99992850D01*
X305965726Y-100270687D01*
X305687889Y-98694994D01*
X307263582Y-98417157D01*
X307263582Y-98417157D01*
G37*
D17*
X304324976Y-99747654D03*
D12*
G36*
X304811672Y-99052580D02*
G01*
X305020050Y-100234350D01*
X303838280Y-100442728D01*
X303629902Y-99260958D01*
X304811672Y-99052580D01*
X304811672Y-99052580D01*
G37*
D17*
X301222832Y-100294646D03*
D12*
G36*
X301709528Y-99599572D02*
G01*
X301917906Y-100781342D01*
X300736136Y-100989720D01*
X300527758Y-99807950D01*
X301709528Y-99599572D01*
X301709528Y-99599572D01*
G37*
D15*
X138823420Y-81637692D03*
D12*
G36*
X140097842Y-81608550D02*
G01*
X140011018Y-82100954D01*
X137548998Y-81666834D01*
X137635822Y-81174430D01*
X140097842Y-81608550D01*
X140097842Y-81608550D01*
G37*
D15*
X144141382Y-82575392D03*
D12*
G36*
X145415804Y-82546250D02*
G01*
X145328980Y-83038654D01*
X142866960Y-82604534D01*
X142953784Y-82112130D01*
X145415804Y-82546250D01*
X145415804Y-82546250D01*
G37*
D16*
X137641651Y-81429314D03*
X145323151Y-82783770D03*
D12*
G36*
X146249916Y-82134842D02*
G01*
X145972079Y-83710535D01*
X144396386Y-83432698D01*
X144674223Y-81857005D01*
X146249916Y-82134842D01*
X146249916Y-82134842D01*
G37*
D17*
X143033473Y-82380038D03*
D12*
G36*
X143728547Y-81893342D02*
G01*
X143520169Y-83075112D01*
X142338399Y-82866734D01*
X142546777Y-81684964D01*
X143728547Y-81893342D01*
X143728547Y-81893342D01*
G37*
D17*
X139931329Y-81833046D03*
D12*
G36*
X140626403Y-81346350D02*
G01*
X140418025Y-82528120D01*
X139236255Y-82319742D01*
X139444633Y-81137972D01*
X140626403Y-81346350D01*
X140626403Y-81346350D01*
G37*
D15*
X71583634Y-120146663D03*
D12*
G36*
X72858056Y-120117521D02*
G01*
X72771232Y-120609925D01*
X70309212Y-120175805D01*
X70396036Y-119683401D01*
X72858056Y-120117521D01*
X72858056Y-120117521D01*
G37*
D15*
X76901596Y-121084363D03*
D12*
G36*
X78176018Y-121055221D02*
G01*
X78089194Y-121547625D01*
X75627174Y-121113505D01*
X75713998Y-120621101D01*
X78176018Y-121055221D01*
X78176018Y-121055221D01*
G37*
D16*
X70401865Y-119938285D03*
X78083365Y-121292741D03*
D12*
G36*
X79010130Y-120643813D02*
G01*
X78732293Y-122219506D01*
X77156600Y-121941669D01*
X77434437Y-120365976D01*
X79010130Y-120643813D01*
X79010130Y-120643813D01*
G37*
D17*
X75793687Y-120889009D03*
D12*
G36*
X76488761Y-120402313D02*
G01*
X76280383Y-121584083D01*
X75098613Y-121375705D01*
X75306991Y-120193935D01*
X76488761Y-120402313D01*
X76488761Y-120402313D01*
G37*
D17*
X72691543Y-120342017D03*
D12*
G36*
X73386617Y-119855321D02*
G01*
X73178239Y-121037091D01*
X71996469Y-120828713D01*
X72204847Y-119646943D01*
X73386617Y-119855321D01*
X73386617Y-119855321D01*
G37*
D15*
X194868347Y-133129902D03*
D12*
G36*
X195276841Y-131922370D02*
G01*
X195709853Y-132172370D01*
X194459853Y-134337434D01*
X194026841Y-134087434D01*
X195276841Y-131922370D01*
X195276841Y-131922370D01*
G37*
D15*
X197568347Y-128453364D03*
D12*
G36*
X197976841Y-127245832D02*
G01*
X198409853Y-127495832D01*
X197159853Y-129660896D01*
X196726841Y-129410896D01*
X197976841Y-127245832D01*
X197976841Y-127245832D01*
G37*
D16*
X194268347Y-134169132D03*
X198168347Y-127414134D03*
D12*
G36*
X197875527Y-126321314D02*
G01*
X199261167Y-127121314D01*
X198461167Y-128506954D01*
X197075527Y-127706954D01*
X197875527Y-126321314D01*
X197875527Y-126321314D01*
G37*
D17*
X197005847Y-129427643D03*
D12*
G36*
X196786232Y-128608028D02*
G01*
X197825462Y-129208028D01*
X197225462Y-130247258D01*
X196186232Y-129647258D01*
X196786232Y-128608028D01*
X196786232Y-128608028D01*
G37*
D17*
X195430847Y-132155623D03*
D12*
G36*
X195211232Y-131336008D02*
G01*
X196250462Y-131936008D01*
X195650462Y-132975238D01*
X194611232Y-132375238D01*
X195211232Y-131336008D01*
X195211232Y-131336008D01*
G37*
D15*
X280920216Y-101335979D03*
D12*
G36*
X282107814Y-100872717D02*
G01*
X282194638Y-101365121D01*
X279732618Y-101799241D01*
X279645794Y-101306837D01*
X282107814Y-100872717D01*
X282107814Y-100872717D01*
G37*
D15*
X286238178Y-100398279D03*
D12*
G36*
X287425776Y-99935017D02*
G01*
X287512600Y-100427421D01*
X285050580Y-100861541D01*
X284963756Y-100369137D01*
X287425776Y-99935017D01*
X287425776Y-99935017D01*
G37*
D16*
X279738447Y-101544357D03*
X287419947Y-100189901D03*
D12*
G36*
X288068875Y-99263136D02*
G01*
X288346712Y-100838829D01*
X286771019Y-101116666D01*
X286493182Y-99540973D01*
X288068875Y-99263136D01*
X288068875Y-99263136D01*
G37*
D17*
X285130269Y-100593633D03*
D12*
G36*
X285616965Y-99898559D02*
G01*
X285825343Y-101080329D01*
X284643573Y-101288707D01*
X284435195Y-100106937D01*
X285616965Y-99898559D01*
X285616965Y-99898559D01*
G37*
D17*
X282028125Y-101140625D03*
D12*
G36*
X282514821Y-100445551D02*
G01*
X282723199Y-101627321D01*
X281541429Y-101835699D01*
X281333051Y-100653929D01*
X282514821Y-100445551D01*
X282514821Y-100445551D01*
G37*
D15*
X73509482Y-81798488D03*
D12*
G36*
X74783904Y-81769346D02*
G01*
X74697080Y-82261750D01*
X72235060Y-81827630D01*
X72321884Y-81335226D01*
X74783904Y-81769346D01*
X74783904Y-81769346D01*
G37*
D15*
X78827444Y-82736188D03*
D12*
G36*
X80101866Y-82707046D02*
G01*
X80015042Y-83199450D01*
X77553022Y-82765330D01*
X77639846Y-82272926D01*
X80101866Y-82707046D01*
X80101866Y-82707046D01*
G37*
D16*
X72327713Y-81590110D03*
X80009213Y-82944566D03*
D12*
G36*
X80935978Y-82295638D02*
G01*
X80658141Y-83871331D01*
X79082448Y-83593494D01*
X79360285Y-82017801D01*
X80935978Y-82295638D01*
X80935978Y-82295638D01*
G37*
D17*
X77719535Y-82540834D03*
D12*
G36*
X78414609Y-82054138D02*
G01*
X78206231Y-83235908D01*
X77024461Y-83027530D01*
X77232839Y-81845760D01*
X78414609Y-82054138D01*
X78414609Y-82054138D01*
G37*
D17*
X74617391Y-81993842D03*
D12*
G36*
X75312465Y-81507146D02*
G01*
X75104087Y-82688916D01*
X73922317Y-82480538D01*
X74130695Y-81298768D01*
X75312465Y-81507146D01*
X75312465Y-81507146D01*
G37*
D15*
X135515422Y-100398279D03*
D12*
G36*
X136789844Y-100369137D02*
G01*
X136703020Y-100861541D01*
X134241000Y-100427421D01*
X134327824Y-99935017D01*
X136789844Y-100369137D01*
X136789844Y-100369137D01*
G37*
D15*
X140833384Y-101335979D03*
D12*
G36*
X142107806Y-101306837D02*
G01*
X142020982Y-101799241D01*
X139558962Y-101365121D01*
X139645786Y-100872717D01*
X142107806Y-101306837D01*
X142107806Y-101306837D01*
G37*
D16*
X134333653Y-100189901D03*
X142015153Y-101544357D03*
D12*
G36*
X142941918Y-100895429D02*
G01*
X142664081Y-102471122D01*
X141088388Y-102193285D01*
X141366225Y-100617592D01*
X142941918Y-100895429D01*
X142941918Y-100895429D01*
G37*
D17*
X139725475Y-101140625D03*
D12*
G36*
X140420549Y-100653929D02*
G01*
X140212171Y-101835699D01*
X139030401Y-101627321D01*
X139238779Y-100445551D01*
X140420549Y-100653929D01*
X140420549Y-100653929D01*
G37*
D17*
X136623331Y-100593633D03*
D12*
G36*
X137318405Y-100106937D02*
G01*
X137110027Y-101288707D01*
X135928257Y-101080329D01*
X136136635Y-99898559D01*
X137318405Y-100106937D01*
X137318405Y-100106937D01*
G37*
D15*
X356033673Y-61081102D03*
D12*
G36*
X357221271Y-60617840D02*
G01*
X357308095Y-61110244D01*
X354846075Y-61544364D01*
X354759251Y-61051960D01*
X357221271Y-60617840D01*
X357221271Y-60617840D01*
G37*
D15*
X361351635Y-60143402D03*
D12*
G36*
X362539233Y-59680140D02*
G01*
X362626057Y-60172544D01*
X360164037Y-60606664D01*
X360077213Y-60114260D01*
X362539233Y-59680140D01*
X362539233Y-59680140D01*
G37*
D16*
X354851904Y-61289480D03*
X362533404Y-59935024D03*
D12*
G36*
X363182332Y-59008259D02*
G01*
X363460169Y-60583952D01*
X361884476Y-60861789D01*
X361606639Y-59286096D01*
X363182332Y-59008259D01*
X363182332Y-59008259D01*
G37*
D17*
X360243726Y-60338756D03*
D12*
G36*
X360730422Y-59643682D02*
G01*
X360938800Y-60825452D01*
X359757030Y-61033830D01*
X359548652Y-59852060D01*
X360730422Y-59643682D01*
X360730422Y-59643682D01*
G37*
D17*
X357141582Y-60885748D03*
D12*
G36*
X357628278Y-60190674D02*
G01*
X357836656Y-61372444D01*
X356654886Y-61580822D01*
X356446508Y-60399052D01*
X357628278Y-60190674D01*
X357628278Y-60190674D01*
G37*
D15*
X159281031Y-129996440D03*
D12*
G36*
X160488563Y-130404934D02*
G01*
X160238563Y-130837946D01*
X158073499Y-129587946D01*
X158323499Y-129154934D01*
X160488563Y-130404934D01*
X160488563Y-130404934D01*
G37*
D15*
X163957569Y-132696440D03*
D12*
G36*
X165165101Y-133104934D02*
G01*
X164915101Y-133537946D01*
X162750037Y-132287946D01*
X163000037Y-131854934D01*
X165165101Y-133104934D01*
X165165101Y-133104934D01*
G37*
D16*
X158241801Y-129396440D03*
X164996799Y-133296440D03*
D12*
G36*
X166089619Y-133003620D02*
G01*
X165289619Y-134389260D01*
X163903979Y-133589260D01*
X164703979Y-132203620D01*
X166089619Y-133003620D01*
X166089619Y-133003620D01*
G37*
D17*
X162983290Y-132133940D03*
D12*
G36*
X163802905Y-131914325D02*
G01*
X163202905Y-132953555D01*
X162163675Y-132353555D01*
X162763675Y-131314325D01*
X163802905Y-131914325D01*
X163802905Y-131914325D01*
G37*
D17*
X160255310Y-130558940D03*
D12*
G36*
X161074925Y-130339325D02*
G01*
X160474925Y-131378555D01*
X159435695Y-130778555D01*
X160035695Y-129739325D01*
X161074925Y-130339325D01*
X161074925Y-130339325D01*
G37*
D15*
X172168358Y-111938313D03*
D12*
G36*
X173442780Y-111909171D02*
G01*
X173355956Y-112401575D01*
X170893936Y-111967455D01*
X170980760Y-111475051D01*
X173442780Y-111909171D01*
X173442780Y-111909171D01*
G37*
D15*
X177486320Y-112876013D03*
D12*
G36*
X178760742Y-112846871D02*
G01*
X178673918Y-113339275D01*
X176211898Y-112905155D01*
X176298722Y-112412751D01*
X178760742Y-112846871D01*
X178760742Y-112846871D01*
G37*
D16*
X170986589Y-111729935D03*
X178668089Y-113084391D03*
D12*
G36*
X179594854Y-112435463D02*
G01*
X179317017Y-114011156D01*
X177741324Y-113733319D01*
X178019161Y-112157626D01*
X179594854Y-112435463D01*
X179594854Y-112435463D01*
G37*
D17*
X176378411Y-112680659D03*
D12*
G36*
X177073485Y-112193963D02*
G01*
X176865107Y-113375733D01*
X175683337Y-113167355D01*
X175891715Y-111985585D01*
X177073485Y-112193963D01*
X177073485Y-112193963D01*
G37*
D17*
X173276267Y-112133667D03*
D12*
G36*
X173971341Y-111646971D02*
G01*
X173762963Y-112828741D01*
X172581193Y-112620363D01*
X172789571Y-111438593D01*
X173971341Y-111646971D01*
X173971341Y-111646971D01*
G37*
D15*
X92689295Y-123868160D03*
D12*
G36*
X93963717Y-123839018D02*
G01*
X93876893Y-124331422D01*
X91414873Y-123897302D01*
X91501697Y-123404898D01*
X93963717Y-123839018D01*
X93963717Y-123839018D01*
G37*
D15*
X98007257Y-124805860D03*
D12*
G36*
X99281679Y-124776718D02*
G01*
X99194855Y-125269122D01*
X96732835Y-124835002D01*
X96819659Y-124342598D01*
X99281679Y-124776718D01*
X99281679Y-124776718D01*
G37*
D16*
X91507526Y-123659782D03*
X99189026Y-125014238D03*
D12*
G36*
X100115791Y-124365310D02*
G01*
X99837954Y-125941003D01*
X98262261Y-125663166D01*
X98540098Y-124087473D01*
X100115791Y-124365310D01*
X100115791Y-124365310D01*
G37*
D17*
X96899348Y-124610506D03*
D12*
G36*
X97594422Y-124123810D02*
G01*
X97386044Y-125305580D01*
X96204274Y-125097202D01*
X96412652Y-123915432D01*
X97594422Y-124123810D01*
X97594422Y-124123810D01*
G37*
D17*
X93797204Y-124063514D03*
D12*
G36*
X94492278Y-123576818D02*
G01*
X94283900Y-124758588D01*
X93102130Y-124550210D01*
X93310508Y-123368440D01*
X94492278Y-123576818D01*
X94492278Y-123576818D01*
G37*
D15*
X224185253Y-128453364D03*
D12*
G36*
X225026759Y-129410896D02*
G01*
X224593747Y-129660896D01*
X223343747Y-127495832D01*
X223776759Y-127245832D01*
X225026759Y-129410896D01*
X225026759Y-129410896D01*
G37*
D15*
X226885253Y-133129902D03*
D12*
G36*
X227726759Y-134087434D02*
G01*
X227293747Y-134337434D01*
X226043747Y-132172370D01*
X226476759Y-131922370D01*
X227726759Y-134087434D01*
X227726759Y-134087434D01*
G37*
D16*
X223585253Y-127414134D03*
X227485253Y-134169132D03*
D12*
G36*
X228578073Y-134461952D02*
G01*
X227192433Y-135261952D01*
X226392433Y-133876312D01*
X227778073Y-133076312D01*
X228578073Y-134461952D01*
X228578073Y-134461952D01*
G37*
D17*
X226322753Y-132155623D03*
D12*
G36*
X227142368Y-132375238D02*
G01*
X226103138Y-132975238D01*
X225503138Y-131936008D01*
X226542368Y-131336008D01*
X227142368Y-132375238D01*
X227142368Y-132375238D01*
G37*
D17*
X224747753Y-129427643D03*
D12*
G36*
X225567368Y-129647258D02*
G01*
X224528138Y-130247258D01*
X223928138Y-129208028D01*
X224967368Y-128608028D01*
X225567368Y-129647258D01*
X225567368Y-129647258D01*
G37*
D15*
X99305291Y-86346985D03*
D12*
G36*
X100579713Y-86317843D02*
G01*
X100492889Y-86810247D01*
X98030869Y-86376127D01*
X98117693Y-85883723D01*
X100579713Y-86317843D01*
X100579713Y-86317843D01*
G37*
D15*
X104623253Y-87284685D03*
D12*
G36*
X105897675Y-87255543D02*
G01*
X105810851Y-87747947D01*
X103348831Y-87313827D01*
X103435655Y-86821423D01*
X105897675Y-87255543D01*
X105897675Y-87255543D01*
G37*
D16*
X98123522Y-86138607D03*
X105805022Y-87493063D03*
D12*
G36*
X106731787Y-86844135D02*
G01*
X106453950Y-88419828D01*
X104878257Y-88141991D01*
X105156094Y-86566298D01*
X106731787Y-86844135D01*
X106731787Y-86844135D01*
G37*
D17*
X103515344Y-87089331D03*
D12*
G36*
X104210418Y-86602635D02*
G01*
X104002040Y-87784405D01*
X102820270Y-87576027D01*
X103028648Y-86394257D01*
X104210418Y-86602635D01*
X104210418Y-86602635D01*
G37*
D17*
X100413200Y-86542339D03*
D12*
G36*
X101108274Y-86055643D02*
G01*
X100899896Y-87237413D01*
X99718126Y-87029035D01*
X99926504Y-85847265D01*
X101108274Y-86055643D01*
X101108274Y-86055643D01*
G37*
D11*
X107074308Y-65149016D03*
D12*
G36*
X105970879Y-65921645D02*
G01*
X106301679Y-64045587D01*
X108177737Y-64376387D01*
X107846937Y-66252445D01*
X105970879Y-65921645D01*
X105970879Y-65921645D01*
G37*
D11*
X104572896Y-64707949D03*
D13*
X104938308Y-55552308D03*
X104166497Y-56157478D03*
D14*
X103394684Y-56762648D02*
X104938310Y-55552308D01*
D13*
X110089279Y-55363902D03*
X110019225Y-55646024D03*
D14*
X109949171Y-55928145D02*
X110089279Y-55363903D01*
D11*
X194103716Y-128104281D03*
D12*
G36*
X194452355Y-129405420D02*
G01*
X192802577Y-128452920D01*
X193755077Y-126803142D01*
X195404855Y-127755642D01*
X194452355Y-129405420D01*
X194452355Y-129405420D01*
G37*
D11*
X192833716Y-130303985D03*
D13*
X184355205Y-126829197D03*
X184659904Y-127761443D03*
D14*
X184964602Y-128693690D02*
X184355206Y-126829196D01*
D13*
X185939898Y-121924428D03*
X186181046Y-122086748D03*
D14*
X186422193Y-122249069D02*
X185939899Y-121924427D01*
D11*
X228919884Y-130303985D03*
D12*
G36*
X227618745Y-129955346D02*
G01*
X229268523Y-129002846D01*
X230221023Y-130652624D01*
X228571245Y-131605124D01*
X227618745Y-129955346D01*
X227618745Y-129955346D01*
G37*
D11*
X227649884Y-128104281D03*
D13*
X234898395Y-122499069D03*
X233938697Y-122296823D03*
D14*
X232978998Y-122094576D02*
X234898396Y-122499070D01*
D13*
X238353702Y-126323838D03*
X238092555Y-126451517D03*
D14*
X237831407Y-126579197D02*
X238353703Y-126323837D01*
D11*
X345865285Y-117681714D03*
D12*
G36*
X345092656Y-118785143D02*
G01*
X344761856Y-116909085D01*
X346637914Y-116578285D01*
X346968714Y-118454343D01*
X345092656Y-118785143D01*
X345092656Y-118785143D01*
G37*
D11*
X343363873Y-118122781D03*
D13*
X340575834Y-109394313D03*
X340057549Y-110226963D03*
D14*
X339539262Y-111059612D02*
X340575836Y-109394314D01*
D13*
X345351725Y-107455534D03*
X345382387Y-107744602D03*
D14*
X345413049Y-108033669D02*
X345351725Y-107455535D01*
D18*
X203268200Y-62278400D03*
X203268200Y-64818400D03*
X203268200Y-67358400D03*
X203268200Y-69898400D03*
X203268200Y-72438400D03*
X203268200Y-74978400D03*
X203268200Y-77518400D03*
X203268200Y-80058400D03*
X203268200Y-82598400D03*
X203268200Y-85138400D03*
X203268200Y-87678400D03*
X203268200Y-90218400D03*
X218488200Y-90218400D03*
X218488200Y-87678400D03*
X218488200Y-85138400D03*
X218488200Y-82598400D03*
X218488200Y-80058400D03*
X218488200Y-77518400D03*
X218488200Y-74978400D03*
X218488200Y-72438400D03*
X218488200Y-69898400D03*
X218488200Y-67358400D03*
X218488200Y-64818400D03*
X218488200Y-62278400D03*
D11*
X100458312Y-102670191D03*
D12*
G36*
X99354883Y-103442820D02*
G01*
X99685683Y-101566762D01*
X101561741Y-101897562D01*
X101230941Y-103773620D01*
X99354883Y-103442820D01*
X99354883Y-103442820D01*
G37*
D11*
X97956900Y-102229124D03*
D13*
X98322312Y-93073483D03*
X97550501Y-93678653D03*
D14*
X96778688Y-94283823D02*
X98322314Y-93073483D01*
D13*
X103473283Y-92885077D03*
X103403229Y-93167199D03*
D14*
X103333175Y-93449320D02*
X103473283Y-92885078D01*
D11*
X241009639Y-71538690D03*
D12*
G36*
X240237010Y-72642119D02*
G01*
X239906210Y-70766061D01*
X241782268Y-70435261D01*
X242113068Y-72311319D01*
X240237010Y-72642119D01*
X240237010Y-72642119D01*
G37*
D11*
X238508227Y-71979757D03*
D13*
X235720188Y-63251289D03*
X235201903Y-64083939D03*
D14*
X234683616Y-64916588D02*
X235720190Y-63251290D01*
D13*
X240496079Y-61312510D03*
X240526741Y-61601578D03*
D14*
X240557403Y-61890645D02*
X240496079Y-61312511D01*
D11*
X120781734Y-97114919D03*
D12*
G36*
X119678305Y-97887548D02*
G01*
X120009105Y-96011490D01*
X121885163Y-96342290D01*
X121554363Y-98218348D01*
X119678305Y-97887548D01*
X119678305Y-97887548D01*
G37*
D11*
X118280322Y-96673852D03*
D13*
X118645734Y-87518211D03*
X117873923Y-88123381D03*
D14*
X117102110Y-88728551D02*
X118645736Y-87518211D01*
D13*
X123796705Y-87329805D03*
X123726651Y-87611927D03*
D14*
X123656597Y-87894048D02*
X123796705Y-87329806D01*
D11*
X127397730Y-59593744D03*
D12*
G36*
X126294301Y-60366373D02*
G01*
X126625101Y-58490315D01*
X128501159Y-58821115D01*
X128170359Y-60697173D01*
X126294301Y-60366373D01*
X126294301Y-60366373D01*
G37*
D11*
X124896318Y-59152677D03*
D13*
X125261730Y-49997036D03*
X124489919Y-50602206D03*
D14*
X123718106Y-51207376D02*
X125261732Y-49997036D01*
D13*
X130412701Y-49808630D03*
X130342647Y-50090752D03*
D14*
X130272593Y-50372873D02*
X130412701Y-49808631D01*
D11*
X158302909Y-103730915D03*
D12*
G36*
X157199480Y-104503544D02*
G01*
X157530280Y-102627486D01*
X159406338Y-102958286D01*
X159075538Y-104834344D01*
X157199480Y-104503544D01*
X157199480Y-104503544D01*
G37*
D11*
X155801497Y-103289848D03*
D13*
X156166909Y-94134207D03*
X155395098Y-94739377D03*
D14*
X154623285Y-95344547D02*
X156166911Y-94134207D01*
D13*
X161317880Y-93945801D03*
X161247826Y-94227923D03*
D14*
X161177772Y-94510044D02*
X161317880Y-93945802D01*
D11*
X327104697Y-120989712D03*
D12*
G36*
X326332068Y-122093141D02*
G01*
X326001268Y-120217083D01*
X327877326Y-119886283D01*
X328208126Y-121762341D01*
X326332068Y-122093141D01*
X326332068Y-122093141D01*
G37*
D11*
X324603285Y-121430779D03*
D13*
X321815246Y-112702311D03*
X321296961Y-113534961D03*
D14*
X320778674Y-114367610D02*
X321815248Y-112702312D01*
D13*
X326591137Y-110763532D03*
X326621799Y-111052600D03*
D14*
X326652461Y-111341667D02*
X326591137Y-110763533D01*
D11*
X259336107Y-65768673D03*
D12*
G36*
X258563478Y-66872102D02*
G01*
X258232678Y-64996044D01*
X260108736Y-64665244D01*
X260439536Y-66541302D01*
X258563478Y-66872102D01*
X258563478Y-66872102D01*
G37*
D11*
X256834695Y-66209740D03*
D13*
X254046656Y-57481272D03*
X253528371Y-58313922D03*
D14*
X253010084Y-59146571D02*
X254046658Y-57481273D01*
D13*
X258822547Y-55542493D03*
X258853209Y-55831561D03*
D14*
X258883871Y-56120628D02*
X258822547Y-55542494D01*
D11*
X83623573Y-61014019D03*
D12*
G36*
X82520144Y-61786648D02*
G01*
X82850944Y-59910590D01*
X84727002Y-60241390D01*
X84396202Y-62117448D01*
X82520144Y-61786648D01*
X82520144Y-61786648D01*
G37*
D11*
X81122161Y-60572952D03*
D13*
X81487573Y-51417311D03*
X80715762Y-52022481D03*
D14*
X79943949Y-52627651D02*
X81487575Y-51417311D01*
D13*
X86638544Y-51228905D03*
X86568490Y-51511027D03*
D14*
X86498436Y-51793148D02*
X86638544Y-51228906D01*
D11*
X183245373Y-71979757D03*
D12*
G36*
X182141944Y-72752386D02*
G01*
X182472744Y-70876328D01*
X184348802Y-71207128D01*
X184018002Y-73083186D01*
X182141944Y-72752386D01*
X182141944Y-72752386D01*
G37*
D11*
X180743961Y-71538690D03*
D13*
X181109373Y-62383049D03*
X180337562Y-62988219D03*
D14*
X179565749Y-63593389D02*
X181109375Y-62383049D01*
D13*
X186260344Y-62194643D03*
X186190290Y-62476765D03*
D14*
X186120236Y-62758886D02*
X186260344Y-62194644D01*
D11*
X117473737Y-115875507D03*
D12*
G36*
X116370308Y-116648136D02*
G01*
X116701108Y-114772078D01*
X118577166Y-115102878D01*
X118246366Y-116978936D01*
X116370308Y-116648136D01*
X116370308Y-116648136D01*
G37*
D11*
X114972325Y-115434440D03*
D13*
X115337737Y-106278799D03*
X114565926Y-106883969D03*
D14*
X113794113Y-107489139D02*
X115337739Y-106278799D01*
D13*
X120488708Y-106090393D03*
X120418654Y-106372515D03*
D14*
X120348600Y-106654636D02*
X120488708Y-106090394D01*
D11*
X335941292Y-61399951D03*
D12*
G36*
X335168663Y-62503380D02*
G01*
X334837863Y-60627322D01*
X336713921Y-60296522D01*
X337044721Y-62172580D01*
X335168663Y-62503380D01*
X335168663Y-62503380D01*
G37*
D11*
X333439880Y-61841018D03*
D13*
X330651841Y-53112550D03*
X330133556Y-53945200D03*
D14*
X329615269Y-54777849D02*
X330651843Y-53112551D01*
D13*
X335427732Y-51173771D03*
X335458394Y-51462839D03*
D14*
X335489056Y-51751906D02*
X335427732Y-51173772D01*
D11*
X259646652Y-127961809D03*
D12*
G36*
X259298013Y-129262948D02*
G01*
X258345513Y-127613170D01*
X259995291Y-126660670D01*
X260947791Y-128310448D01*
X259298013Y-129262948D01*
X259298013Y-129262948D01*
G37*
D11*
X257446948Y-129231809D03*
D13*
X251841736Y-121983298D03*
X251639490Y-122942996D03*
D14*
X251437243Y-123902695D02*
X251841737Y-121983297D01*
D13*
X255666505Y-118527991D03*
X255794184Y-118789138D03*
D14*
X255921864Y-119050286D02*
X255666504Y-118527990D01*
D11*
X323796700Y-102229124D03*
D12*
G36*
X323024071Y-103332553D02*
G01*
X322693271Y-101456495D01*
X324569329Y-101125695D01*
X324900129Y-103001753D01*
X323024071Y-103332553D01*
X323024071Y-103332553D01*
G37*
D11*
X321295288Y-102670191D03*
D13*
X318507249Y-93941723D03*
X317988964Y-94774373D03*
D14*
X317470677Y-95607022D02*
X318507251Y-93941724D01*
D13*
X323283140Y-92002944D03*
X323313802Y-92292012D03*
D14*
X323344464Y-92581079D02*
X323283140Y-92002945D01*
D11*
X69972357Y-97294695D03*
D12*
G36*
X68868928Y-98067324D02*
G01*
X69199728Y-96191266D01*
X71075786Y-96522066D01*
X70744986Y-98398124D01*
X68868928Y-98067324D01*
X68868928Y-98067324D01*
G37*
D11*
X67470945Y-96853628D03*
D13*
X67836357Y-87697987D03*
X67064546Y-88303157D03*
D14*
X66292733Y-88908327D02*
X67836359Y-87697987D01*
D13*
X72987328Y-87509581D03*
X72917274Y-87791703D03*
D14*
X72847220Y-88073824D02*
X72987328Y-87509582D01*
D11*
X358972802Y-96026628D03*
D12*
G36*
X358200173Y-97130057D02*
G01*
X357869373Y-95253999D01*
X359745431Y-94923199D01*
X360076231Y-96799257D01*
X358200173Y-97130057D01*
X358200173Y-97130057D01*
G37*
D11*
X356471390Y-96467695D03*
D13*
X353683351Y-87739227D03*
X353165066Y-88571877D03*
D14*
X352646779Y-89404526D02*
X353683353Y-87739228D01*
D13*
X358459242Y-85800448D03*
X358489904Y-86089516D03*
D14*
X358520566Y-86378583D02*
X358459242Y-85800449D01*
D11*
X320488702Y-83468537D03*
D12*
G36*
X319716073Y-84571966D02*
G01*
X319385273Y-82695908D01*
X321261331Y-82365108D01*
X321592131Y-84241166D01*
X319716073Y-84571966D01*
X319716073Y-84571966D01*
G37*
D11*
X317987290Y-83909604D03*
D13*
X315199251Y-75181136D03*
X314680966Y-76013786D03*
D14*
X314162679Y-76846435D02*
X315199253Y-75181137D01*
D13*
X319975142Y-73242357D03*
X320005804Y-73531425D03*
D14*
X320036466Y-73820492D02*
X319975142Y-73242358D01*
D11*
X124089732Y-78354332D03*
D12*
G36*
X122986303Y-79126961D02*
G01*
X123317103Y-77250903D01*
X125193161Y-77581703D01*
X124862361Y-79457761D01*
X122986303Y-79126961D01*
X122986303Y-79126961D01*
G37*
D11*
X121588320Y-77913265D03*
D13*
X121953732Y-68757624D03*
X121181921Y-69362794D03*
D14*
X120410108Y-69967964D02*
X121953734Y-68757624D01*
D13*
X127104703Y-68569218D03*
X127034649Y-68851340D03*
D14*
X126964595Y-69133461D02*
X127104703Y-68569219D01*
D11*
X164918905Y-66209740D03*
D12*
G36*
X163815476Y-66982369D02*
G01*
X164146276Y-65106311D01*
X166022334Y-65437111D01*
X165691534Y-67313169D01*
X163815476Y-66982369D01*
X163815476Y-66982369D01*
G37*
D11*
X162417493Y-65768673D03*
D13*
X162782905Y-56613032D03*
X162011094Y-57218202D03*
D14*
X161239281Y-57823372D02*
X162782907Y-56613032D01*
D13*
X167933876Y-56424626D03*
X167863822Y-56706748D03*
D14*
X167793768Y-56988869D02*
X167933876Y-56424627D01*
D11*
X339249290Y-80160539D03*
D12*
G36*
X338476661Y-81263968D02*
G01*
X338145861Y-79387910D01*
X340021919Y-79057110D01*
X340352719Y-80933168D01*
X338476661Y-81263968D01*
X338476661Y-81263968D01*
G37*
D11*
X336747878Y-80601606D03*
D13*
X333959839Y-71873138D03*
X333441554Y-72705788D03*
D14*
X332923267Y-73538437D02*
X333959841Y-71873139D01*
D13*
X338735730Y-69934359D03*
X338766392Y-70223427D03*
D14*
X338797054Y-70512494D02*
X338735730Y-69934360D01*
D11*
X317180704Y-64707949D03*
D12*
G36*
X316408075Y-65811378D02*
G01*
X316077275Y-63935320D01*
X317953333Y-63604520D01*
X318284133Y-65480578D01*
X316408075Y-65811378D01*
X316408075Y-65811378D01*
G37*
D11*
X314679292Y-65149016D03*
D13*
X311891253Y-56420548D03*
X311372968Y-57253198D03*
D14*
X310854681Y-58085847D02*
X311891255Y-56420549D01*
D13*
X316667144Y-54481769D03*
X316697806Y-54770837D03*
D14*
X316728468Y-55059904D02*
X316667144Y-54481770D01*
D11*
X296857282Y-59152677D03*
D12*
G36*
X296084653Y-60256106D02*
G01*
X295753853Y-58380048D01*
X297629911Y-58049248D01*
X297960711Y-59925306D01*
X296084653Y-60256106D01*
X296084653Y-60256106D01*
G37*
D11*
X294355870Y-59593744D03*
D13*
X291567831Y-50865276D03*
X291049546Y-51697926D03*
D14*
X290531259Y-52530575D02*
X291567833Y-50865277D01*
D13*
X296343722Y-48926497D03*
X296374384Y-49215565D03*
D14*
X296405046Y-49504632D02*
X296343722Y-48926498D01*
D11*
X247625635Y-109059865D03*
D12*
G36*
X246853006Y-110163294D02*
G01*
X246522206Y-108287236D01*
X248398264Y-107956436D01*
X248729064Y-109832494D01*
X246853006Y-110163294D01*
X246853006Y-110163294D01*
G37*
D11*
X245124223Y-109500932D03*
D13*
X242336184Y-100772464D03*
X241817899Y-101605114D03*
D14*
X241299612Y-102437763D02*
X242336186Y-100772465D01*
D13*
X247112075Y-98833685D03*
X247142737Y-99122753D03*
D14*
X247173399Y-99411820D02*
X247112075Y-98833686D01*
D11*
X136668444Y-116721486D03*
D12*
G36*
X135565015Y-117494115D02*
G01*
X135895815Y-115618057D01*
X137771873Y-115948857D01*
X137441073Y-117824915D01*
X135565015Y-117494115D01*
X135565015Y-117494115D01*
G37*
D11*
X134167032Y-116280419D03*
D13*
X134532444Y-107124778D03*
X133760633Y-107729948D03*
D14*
X132988820Y-108335118D02*
X134532446Y-107124778D01*
D13*
X139683415Y-106936372D03*
X139613361Y-107218494D03*
D14*
X139543307Y-107500615D02*
X139683415Y-106936373D01*
D11*
X265952103Y-103289848D03*
D12*
G36*
X265179474Y-104393277D02*
G01*
X264848674Y-102517219D01*
X266724732Y-102186419D01*
X267055532Y-104062477D01*
X265179474Y-104393277D01*
X265179474Y-104393277D01*
G37*
D11*
X263450691Y-103730915D03*
D13*
X260662652Y-95002447D03*
X260144367Y-95835097D03*
D14*
X259626080Y-96667746D02*
X260662654Y-95002448D01*
D13*
X265438543Y-93063668D03*
X265469205Y-93352736D03*
D14*
X265499867Y-93641803D02*
X265438543Y-93063669D01*
D11*
X287586568Y-116280419D03*
D12*
G36*
X286813939Y-117383848D02*
G01*
X286483139Y-115507790D01*
X288359197Y-115176990D01*
X288689997Y-117053048D01*
X286813939Y-117383848D01*
X286813939Y-117383848D01*
G37*
D11*
X285085156Y-116721486D03*
D13*
X282297117Y-107993018D03*
X281778832Y-108825668D03*
D14*
X281260545Y-109658317D02*
X282297119Y-107993019D01*
D13*
X287073008Y-106054239D03*
X287103670Y-106343307D03*
D14*
X287134332Y-106632374D02*
X287073008Y-106054240D01*
D11*
X300165280Y-77913265D03*
D12*
G36*
X299392651Y-79016694D02*
G01*
X299061851Y-77140636D01*
X300937909Y-76809836D01*
X301268709Y-78685894D01*
X299392651Y-79016694D01*
X299392651Y-79016694D01*
G37*
D11*
X297663868Y-78354332D03*
D13*
X294875829Y-69625864D03*
X294357544Y-70458514D03*
D14*
X293839257Y-71291163D02*
X294875831Y-69625865D01*
D13*
X299651720Y-67687085D03*
X299682382Y-67976153D03*
D14*
X299713044Y-68265220D02*
X299651720Y-67687086D01*
D11*
X280970573Y-78759244D03*
D12*
G36*
X280197944Y-79862673D02*
G01*
X279867144Y-77986615D01*
X281743202Y-77655815D01*
X282074002Y-79531873D01*
X280197944Y-79862673D01*
X280197944Y-79862673D01*
G37*
D11*
X278469161Y-79200311D03*
D13*
X275681122Y-70471843D03*
X275162837Y-71304493D03*
D14*
X274644550Y-72137142D02*
X275681124Y-70471844D01*
D13*
X280457013Y-68533064D03*
X280487675Y-68822132D03*
D14*
X280518337Y-69111199D02*
X280457013Y-68533065D01*
D11*
X262644105Y-84529261D03*
D12*
G36*
X261871476Y-85632690D02*
G01*
X261540676Y-83756632D01*
X263416734Y-83425832D01*
X263747534Y-85301890D01*
X261871476Y-85632690D01*
X261871476Y-85632690D01*
G37*
D11*
X260142693Y-84970328D03*
D13*
X257354654Y-76241860D03*
X256836369Y-77074510D03*
D14*
X256318082Y-77907159D02*
X257354656Y-76241861D01*
D13*
X262130545Y-74303081D03*
X262161207Y-74592149D03*
D14*
X262191869Y-74881216D02*
X262130545Y-74303082D01*
D11*
X277662575Y-59998656D03*
D12*
G36*
X276889946Y-61102085D02*
G01*
X276559146Y-59226027D01*
X278435204Y-58895227D01*
X278766004Y-60771285D01*
X276889946Y-61102085D01*
X276889946Y-61102085D01*
G37*
D11*
X275161163Y-60439723D03*
D13*
X272373124Y-51711255D03*
X271854839Y-52543905D03*
D14*
X271336552Y-53376554D02*
X272373126Y-51711256D01*
D13*
X277149015Y-49772476D03*
X277179677Y-50061544D03*
D14*
X277210339Y-50350611D02*
X277149015Y-49772477D01*
D11*
X244317637Y-90299278D03*
D12*
G36*
X243545008Y-91402707D02*
G01*
X243214208Y-89526649D01*
X245090266Y-89195849D01*
X245421066Y-91071907D01*
X243545008Y-91402707D01*
X243545008Y-91402707D01*
G37*
D11*
X241816225Y-90740345D03*
D13*
X239028186Y-82011877D03*
X238509901Y-82844527D03*
D14*
X237991614Y-83677176D02*
X239028188Y-82011878D01*
D13*
X243804077Y-80073098D03*
X243834739Y-80362166D03*
D14*
X243865401Y-80651233D02*
X243804077Y-80073099D01*
D11*
X179937375Y-90740345D03*
D12*
G36*
X178833946Y-91512974D02*
G01*
X179164746Y-89636916D01*
X181040804Y-89967716D01*
X180710004Y-91843774D01*
X178833946Y-91512974D01*
X178833946Y-91512974D01*
G37*
D11*
X177435963Y-90299278D03*
D13*
X177801375Y-81143637D03*
X177029564Y-81748807D03*
D14*
X176257751Y-82353977D02*
X177801377Y-81143637D01*
D13*
X182952346Y-80955231D03*
X182882292Y-81237353D03*
D14*
X182812238Y-81519474D02*
X182952346Y-80955232D01*
D11*
X161610907Y-84970328D03*
D12*
G36*
X160507478Y-85742957D02*
G01*
X160838278Y-83866899D01*
X162714336Y-84197699D01*
X162383536Y-86073757D01*
X160507478Y-85742957D01*
X160507478Y-85742957D01*
G37*
D11*
X159109495Y-84529261D03*
D13*
X159474907Y-75373620D03*
X158703096Y-75978790D03*
D14*
X157931283Y-76583960D02*
X159474909Y-75373620D01*
D13*
X164625878Y-75185214D03*
X164555824Y-75467336D03*
D14*
X164485770Y-75749457D02*
X164625878Y-75185215D01*
D11*
X369735245Y-74785043D03*
D12*
G36*
X368962616Y-75888472D02*
G01*
X368631816Y-74012414D01*
X370507874Y-73681614D01*
X370838674Y-75557672D01*
X368962616Y-75888472D01*
X368962616Y-75888472D01*
G37*
D11*
X367233833Y-75226110D03*
D13*
X364445794Y-66497642D03*
X363927509Y-67330292D03*
D14*
X363409222Y-68162941D02*
X364445796Y-66497643D01*
D13*
X369221685Y-64558863D03*
X369252347Y-64847931D03*
D14*
X369283009Y-65136998D02*
X369221685Y-64558864D01*
D11*
X146592437Y-60439723D03*
D12*
G36*
X145489008Y-61212352D02*
G01*
X145819808Y-59336294D01*
X147695866Y-59667094D01*
X147365066Y-61543152D01*
X145489008Y-61212352D01*
X145489008Y-61212352D01*
G37*
D11*
X144091025Y-59998656D03*
D13*
X144456437Y-50843015D03*
X143684626Y-51448185D03*
D14*
X142912813Y-52053355D02*
X144456439Y-50843015D01*
D13*
X149607408Y-50654609D03*
X149537354Y-50936731D03*
D14*
X149467300Y-51218852D02*
X149607408Y-50654610D01*
D11*
X306781275Y-115434440D03*
D12*
G36*
X306008646Y-116537869D02*
G01*
X305677846Y-114661811D01*
X307553904Y-114331011D01*
X307884704Y-116207069D01*
X306008646Y-116537869D01*
X306008646Y-116537869D01*
G37*
D11*
X304279863Y-115875507D03*
D13*
X301491824Y-107147039D03*
X300973539Y-107979689D03*
D14*
X300455252Y-108812338D02*
X301491826Y-107147040D01*
D13*
X306267715Y-105208260D03*
X306298377Y-105497328D03*
D14*
X306329039Y-105786395D02*
X306267715Y-105208261D01*
D11*
X303473278Y-96673852D03*
D12*
G36*
X302700649Y-97777281D02*
G01*
X302369849Y-95901223D01*
X304245907Y-95570423D01*
X304576707Y-97446481D01*
X302700649Y-97777281D01*
X302700649Y-97777281D01*
G37*
D11*
X300971866Y-97114919D03*
D13*
X298183827Y-88386451D03*
X297665542Y-89219101D03*
D14*
X297147255Y-90051750D02*
X298183829Y-88386452D01*
D13*
X302959718Y-86447672D03*
X302990380Y-86736740D03*
D14*
X303021042Y-87025807D02*
X302959718Y-86447673D01*
D11*
X143284439Y-79200311D03*
D12*
G36*
X142181010Y-79972940D02*
G01*
X142511810Y-78096882D01*
X144387868Y-78427682D01*
X144057068Y-80303740D01*
X142181010Y-79972940D01*
X142181010Y-79972940D01*
G37*
D11*
X140783027Y-78759244D03*
D13*
X141148439Y-69603603D03*
X140376628Y-70208773D03*
D14*
X139604815Y-70813943D02*
X141148441Y-69603603D01*
D13*
X146299410Y-69415197D03*
X146229356Y-69697319D03*
D14*
X146159302Y-69979440D02*
X146299410Y-69415198D01*
D11*
X76044654Y-117709282D03*
D12*
G36*
X74941225Y-118481911D02*
G01*
X75272025Y-116605853D01*
X77148083Y-116936653D01*
X76817283Y-118812711D01*
X74941225Y-118481911D01*
X74941225Y-118481911D01*
G37*
D11*
X73543242Y-117268215D03*
D13*
X73908654Y-108112574D03*
X73136843Y-108717744D03*
D14*
X72365030Y-109322914D02*
X73908656Y-108112574D01*
D13*
X79059625Y-107924168D03*
X78989571Y-108206290D03*
D14*
X78919517Y-108488411D02*
X79059625Y-107924169D01*
D11*
X284278571Y-97519831D03*
D12*
G36*
X283505942Y-98623260D02*
G01*
X283175142Y-96747202D01*
X285051200Y-96416402D01*
X285382000Y-98292460D01*
X283505942Y-98623260D01*
X283505942Y-98623260D01*
G37*
D11*
X281777159Y-97960898D03*
D13*
X278989120Y-89232430D03*
X278470835Y-90065080D03*
D14*
X277952548Y-90897729D02*
X278989122Y-89232431D01*
D13*
X283765011Y-87293651D03*
X283795673Y-87582719D03*
D14*
X283826335Y-87871786D02*
X283765011Y-87293652D01*
D11*
X77970502Y-79361107D03*
D12*
G36*
X76867073Y-80133736D02*
G01*
X77197873Y-78257678D01*
X79073931Y-78588478D01*
X78743131Y-80464536D01*
X76867073Y-80133736D01*
X76867073Y-80133736D01*
G37*
D11*
X75469090Y-78920040D03*
D13*
X75834502Y-69764399D03*
X75062691Y-70369569D03*
D14*
X74290878Y-70974739D02*
X75834504Y-69764399D01*
D13*
X80985473Y-69575993D03*
X80915419Y-69858115D03*
D14*
X80845365Y-70140236D02*
X80985473Y-69575994D01*
D19*
X230632000Y-59944000D03*
X212221653Y-67441653D03*
X208411653Y-67441653D03*
D20*
X80770497Y-82183282D02*
X88533282Y-82183282D01*
X80009213Y-82944566D02*
X80770497Y-82183282D01*
X105043738Y-88254347D02*
X105805022Y-87493063D01*
X94604347Y-88254347D02*
X105043738Y-88254347D01*
X88533282Y-82183282D02*
X94604347Y-88254347D01*
X105805022Y-87493063D02*
X111896937Y-87493063D01*
X125367160Y-82699075D02*
X126128444Y-81937791D01*
X116690925Y-82699075D02*
X125367160Y-82699075D01*
X111896937Y-87493063D02*
X116690925Y-82699075D01*
X126128444Y-81937791D02*
X136547791Y-81937791D01*
X144561867Y-83545054D02*
X145323151Y-82783770D01*
X138155054Y-83545054D02*
X144561867Y-83545054D01*
X136547791Y-81937791D02*
X138155054Y-83545054D01*
X162888335Y-89315071D02*
X163649619Y-88553787D01*
X150942111Y-89315071D02*
X162888335Y-89315071D01*
X145323151Y-83696111D02*
X150942111Y-89315071D01*
X145323151Y-82783770D02*
X145323151Y-83696111D01*
X170180920Y-95085088D02*
X181214803Y-95085088D01*
X181214803Y-95085088D02*
X181976087Y-94323804D01*
X163649619Y-88553787D02*
X170180920Y-95085088D01*
X265024198Y-87960615D02*
X265785482Y-87199331D01*
X261371146Y-91613667D02*
X265024198Y-87960615D01*
X248814695Y-91613667D02*
X261371146Y-91613667D01*
X247459014Y-92969348D02*
X248814695Y-91613667D01*
X278341933Y-87199331D02*
X284111950Y-81429314D01*
X265785482Y-87199331D02*
X278341933Y-87199331D01*
X302545373Y-81344619D02*
X303306657Y-80583335D01*
X300069992Y-83820000D02*
X302545373Y-81344619D01*
X286502636Y-83820000D02*
X300069992Y-83820000D01*
X284111950Y-81429314D02*
X286502636Y-83820000D01*
X323630079Y-84274220D02*
X323630079Y-85226266D01*
X320700478Y-81344619D02*
X323630079Y-84274220D01*
X323630079Y-85226266D02*
X323630079Y-86138607D01*
X304067941Y-81344619D02*
X320700478Y-81344619D01*
X303306657Y-80583335D02*
X304067941Y-81344619D01*
X339082669Y-86138607D02*
X342390667Y-82830609D01*
X323630079Y-86138607D02*
X339082669Y-86138607D01*
X368271186Y-84141445D02*
X372876622Y-79536009D01*
X372876622Y-78367454D02*
X372876622Y-77455113D01*
X372876622Y-79536009D02*
X372876622Y-78367454D01*
X343701503Y-84141445D02*
X368271186Y-84141445D01*
X342390667Y-82830609D02*
X343701503Y-84141445D01*
X182737371Y-93562520D02*
X193711480Y-93562520D01*
X181976087Y-94323804D02*
X182737371Y-93562520D01*
X193711480Y-93562520D02*
X197739000Y-89535000D01*
X197739000Y-89535000D02*
X197739000Y-63754000D01*
X197739000Y-63754000D02*
X201549000Y-59944000D01*
X201549000Y-59944000D02*
X213613800Y-59944000D01*
X213613800Y-59944000D02*
X218488200Y-64818400D01*
X233680000Y-80010000D02*
X234950000Y-81280000D01*
X228600000Y-80010000D02*
X233680000Y-80010000D01*
X227330000Y-78740000D02*
X228600000Y-80010000D01*
X218488200Y-64818400D02*
X226108400Y-64818400D01*
X246697730Y-92208064D02*
X247459014Y-92969348D01*
X227330000Y-66040000D02*
X227330000Y-78740000D01*
X234950000Y-85943148D02*
X241214916Y-92208064D01*
X226108400Y-64818400D02*
X227330000Y-66040000D01*
X241214916Y-92208064D02*
X246697730Y-92208064D01*
X234950000Y-81280000D02*
X234950000Y-85943148D01*
X289966661Y-119711773D02*
X290727945Y-118950489D01*
X280938344Y-128740090D02*
X289966661Y-119711773D01*
X264168149Y-128740090D02*
X280938344Y-128740090D01*
X263511799Y-129396440D02*
X264168149Y-128740090D01*
X309161368Y-118865794D02*
X309922652Y-118104510D01*
X307377162Y-120650000D02*
X309161368Y-118865794D01*
X292427456Y-120650000D02*
X307377162Y-120650000D01*
X290727945Y-118950489D02*
X292427456Y-120650000D01*
X329294572Y-122708280D02*
X329484790Y-122898498D01*
X329484790Y-122898498D02*
X330246074Y-123659782D01*
X314526422Y-122708280D02*
X329294572Y-122708280D01*
X309922652Y-118104510D02*
X314526422Y-122708280D01*
X345698664Y-123659782D02*
X349006662Y-120351784D01*
X330246074Y-123659782D02*
X345698664Y-123659782D01*
X221769485Y-128453364D02*
X227485253Y-134169132D01*
X166631996Y-131661243D02*
X185001243Y-131661243D01*
X164996799Y-133296440D02*
X166631996Y-131661243D01*
X197232345Y-126478132D02*
X193561868Y-126478132D01*
X198168347Y-127414134D02*
X197232345Y-126478132D01*
X187776457Y-132263543D02*
X185603543Y-132263543D01*
X185603543Y-132263543D02*
X185001243Y-131661243D01*
X193561868Y-126478132D02*
X187776457Y-132263543D01*
X152005304Y-120304945D02*
X164996799Y-133296440D01*
X138707155Y-120304945D02*
X152005304Y-120304945D01*
X137449759Y-120650000D02*
X137794814Y-120304945D01*
X137794814Y-120304945D02*
X138707155Y-120304945D01*
X120703482Y-120650000D02*
X137449759Y-120650000D01*
X119512448Y-119458966D02*
X120703482Y-120650000D01*
X118751164Y-120220250D02*
X119512448Y-119458966D01*
X114718460Y-124252954D02*
X118751164Y-120220250D01*
X99950310Y-124252954D02*
X114718460Y-124252954D01*
X99189026Y-125014238D02*
X99950310Y-124252954D01*
X227485253Y-134169132D02*
X239210868Y-134169132D01*
X239210868Y-134169132D02*
X245110000Y-128270000D01*
X260451019Y-126335660D02*
X262855449Y-128740090D01*
X262855449Y-128740090D02*
X263511799Y-129396440D01*
X258452395Y-126335660D02*
X260451019Y-126335660D01*
X256518055Y-128270000D02*
X258452395Y-126335660D01*
X245110000Y-128270000D02*
X256518055Y-128270000D01*
X213487000Y-69977200D02*
X218488200Y-74978400D01*
X213487000Y-61849000D02*
X213487000Y-69977200D01*
X212829399Y-61191399D02*
X213487000Y-61849000D01*
X200660000Y-63119000D02*
X202587601Y-61191399D01*
X198168347Y-112189347D02*
X200660000Y-109697694D01*
X202587601Y-61191399D02*
X212829399Y-61191399D01*
X200660000Y-109697694D02*
X200660000Y-63119000D01*
X198168347Y-127414134D02*
X198168347Y-112189347D01*
X220730255Y-127414134D02*
X221769485Y-128453364D01*
X198168347Y-127414134D02*
X220730255Y-127414134D01*
X98427742Y-124252954D02*
X99189026Y-125014238D01*
X97636796Y-124252954D02*
X98427742Y-124252954D01*
X95651055Y-122267213D02*
X97636796Y-124252954D01*
X79057837Y-122267213D02*
X95651055Y-122267213D01*
X78083365Y-121292741D02*
X79057837Y-122267213D01*
X101584683Y-106253650D02*
X102497024Y-106253650D01*
X101364166Y-106474167D02*
X101584683Y-106253650D01*
X77607081Y-106474167D02*
X101364166Y-106474167D01*
X72011068Y-100878154D02*
X77607081Y-106474167D01*
X122059162Y-101459662D02*
X122820446Y-100698378D01*
X119378824Y-104140000D02*
X122059162Y-101459662D01*
X104610674Y-104140000D02*
X119378824Y-104140000D01*
X102497024Y-106253650D02*
X104610674Y-104140000D01*
X141253869Y-102305641D02*
X142015153Y-101544357D01*
X140689510Y-102870000D02*
X141253869Y-102305641D01*
X124992068Y-102870000D02*
X140689510Y-102870000D01*
X122820446Y-100698378D02*
X124992068Y-102870000D01*
X148546454Y-108075658D02*
X159580337Y-108075658D01*
X159580337Y-108075658D02*
X160341621Y-107314374D01*
X142015153Y-101544357D02*
X148546454Y-108075658D01*
X177906805Y-113845675D02*
X178668089Y-113084391D01*
X166872922Y-113845675D02*
X177906805Y-113845675D01*
X160341621Y-107314374D02*
X166872922Y-113845675D01*
X263323462Y-111729935D02*
X269093479Y-105959918D01*
X250767011Y-111729935D02*
X263323462Y-111729935D01*
X281649930Y-105959918D02*
X287419947Y-100189901D01*
X269093479Y-105959918D02*
X281649930Y-105959918D01*
X289053425Y-101823379D02*
X304135197Y-101823379D01*
X305853370Y-100105206D02*
X306614654Y-99343922D01*
X304135197Y-101823379D02*
X305853370Y-100105206D01*
X287419947Y-100189901D02*
X289053425Y-101823379D01*
X326938076Y-103986853D02*
X326938076Y-104899194D01*
X326938076Y-103034806D02*
X326938076Y-103986853D01*
X324703955Y-100800685D02*
X326938076Y-103034806D01*
X308071417Y-100800685D02*
X324703955Y-100800685D01*
X306614654Y-99343922D02*
X308071417Y-100800685D01*
X361352895Y-99457982D02*
X362114179Y-98696698D01*
X354805344Y-106005533D02*
X361352895Y-99457982D01*
X328044415Y-106005533D02*
X354805344Y-106005533D01*
X326938076Y-104899194D02*
X328044415Y-106005533D01*
X214122000Y-68072200D02*
X218488200Y-72438400D01*
X214122000Y-61341000D02*
X214122000Y-68072200D01*
X213233000Y-60452000D02*
X214122000Y-61341000D01*
X198882000Y-63754000D02*
X202184000Y-60452000D01*
X198882000Y-89789000D02*
X198882000Y-63754000D01*
X178668089Y-113084391D02*
X180920609Y-113084391D01*
X180920609Y-113084391D02*
X185438955Y-108566045D01*
X185438955Y-103232045D02*
X198882000Y-89789000D01*
X202184000Y-60452000D02*
X213233000Y-60452000D01*
X185438955Y-108566045D02*
X185438955Y-103232045D01*
X250005727Y-110968651D02*
X250767011Y-111729935D01*
X237490000Y-105410000D02*
X242858433Y-110778433D01*
X218488200Y-72438400D02*
X224838400Y-72438400D01*
X233680000Y-93980000D02*
X237490000Y-97790000D01*
X232410000Y-81280000D02*
X233680000Y-82550000D01*
X226060000Y-78740000D02*
X228600000Y-81280000D01*
X226060000Y-73660000D02*
X226060000Y-78740000D01*
X237490000Y-97790000D02*
X237490000Y-105410000D01*
X224838400Y-72438400D02*
X226060000Y-73660000D01*
X228600000Y-81280000D02*
X232410000Y-81280000D01*
X242858433Y-110778433D02*
X249815509Y-110778433D01*
X249815509Y-110778433D02*
X250005727Y-110968651D01*
X233680000Y-82550000D02*
X233680000Y-93980000D01*
X85662284Y-64597478D02*
X92537478Y-64597478D01*
X108351735Y-69493759D02*
X109113019Y-68732475D01*
X97433759Y-69493759D02*
X108351735Y-69493759D01*
X92537478Y-64597478D02*
X97433759Y-69493759D01*
X128675157Y-63938487D02*
X129436441Y-63177203D01*
X126573644Y-66040000D02*
X128675157Y-63938487D01*
X111805494Y-66040000D02*
X126573644Y-66040000D01*
X109113019Y-68732475D02*
X111805494Y-66040000D01*
X147869864Y-64784466D02*
X148631148Y-64023182D01*
X146614330Y-66040000D02*
X147869864Y-64784466D01*
X132299238Y-66040000D02*
X146614330Y-66040000D01*
X129436441Y-63177203D02*
X132299238Y-66040000D01*
X148631148Y-64023182D02*
X150383182Y-64023182D01*
X166196332Y-70554483D02*
X166957616Y-69793199D01*
X156914483Y-70554483D02*
X166196332Y-70554483D01*
X150383182Y-64023182D02*
X156914483Y-70554483D01*
X166957616Y-69793199D02*
X170123199Y-69793199D01*
X176654500Y-76324500D02*
X184522800Y-76324500D01*
X184522800Y-76324500D02*
X185284084Y-75563216D01*
X170123199Y-69793199D02*
X176654500Y-76324500D01*
X256707467Y-74208760D02*
X262477484Y-68438743D01*
X244151016Y-74208760D02*
X256707467Y-74208760D01*
X275033935Y-68438743D02*
X280803952Y-62668726D01*
X262477484Y-68438743D02*
X275033935Y-68438743D01*
X295781406Y-66040000D02*
X299237375Y-62584031D01*
X284175226Y-66040000D02*
X295781406Y-66040000D01*
X299237375Y-62584031D02*
X299998659Y-61822747D01*
X280803952Y-62668726D02*
X284175226Y-66040000D01*
X319560797Y-68139303D02*
X320322081Y-67378019D01*
X317842624Y-69857476D02*
X319560797Y-68139303D01*
X308945729Y-69857476D02*
X317842624Y-69857476D01*
X300911000Y-61822747D02*
X308945729Y-69857476D01*
X299998659Y-61822747D02*
X300911000Y-61822747D01*
X335774671Y-67378019D02*
X339082669Y-64070021D01*
X320322081Y-67378019D02*
X335774671Y-67378019D01*
X361772120Y-60696308D02*
X362533404Y-59935024D01*
X359159691Y-63308737D02*
X361772120Y-60696308D01*
X339843953Y-63308737D02*
X359159691Y-63308737D01*
X339082669Y-64070021D02*
X339843953Y-63308737D01*
X243389732Y-73447476D02*
X244151016Y-74208760D01*
X243199514Y-73257258D02*
X243389732Y-73447476D01*
X229467058Y-73257258D02*
X243199514Y-73257258D01*
X218488200Y-62278400D02*
X224838400Y-62278400D01*
X224838400Y-62278400D02*
X228600000Y-66040000D01*
X228600000Y-72390200D02*
X229467058Y-73257258D01*
X228600000Y-66040000D02*
X228600000Y-72390200D01*
X215264800Y-59055000D02*
X218488200Y-62278400D01*
X201549000Y-59055000D02*
X215264800Y-59055000D01*
X186045368Y-74801932D02*
X195708068Y-74801932D01*
X196850000Y-63754000D02*
X201549000Y-59055000D01*
X196850000Y-73660000D02*
X196850000Y-63754000D01*
X195708068Y-74801932D02*
X196850000Y-73660000D01*
X185284084Y-75563216D02*
X186045368Y-74801932D01*
X251344785Y-57481272D02*
X253010084Y-59146571D01*
X233094728Y-57481272D02*
X251344785Y-57481272D01*
X230632000Y-59944000D02*
X233094728Y-57481272D01*
X203268200Y-67358400D02*
X205486000Y-69576200D01*
X206626801Y-70717001D02*
X205486000Y-69576200D01*
X203268200Y-67358400D02*
X206626801Y-70717001D01*
X207626800Y-93726000D02*
X207626800Y-92311787D01*
X206626801Y-91311788D02*
X206626801Y-82425199D01*
X207626800Y-92311787D02*
X206626801Y-91311788D01*
X206626801Y-70717001D02*
X206626801Y-82425199D01*
X212221653Y-67441653D02*
X208411653Y-67441653D01*
M02*
