M48
; DRILL file {KiCad (5.1.4-0-10_14)} date 2022 April 12, Tuesday 16:32:39
; FORMAT={-:-/ absolute / metric / decimal}
; #@! TF.CreationDate,2022-04-12T16:32:39-04:00
; #@! TF.GenerationSoftware,Kicad,Pcbnew,(5.1.4-0-10_14)
; #@! TF.FileFunction,Plated,1,2,PTH
FMAT,2
METRIC
T1C0.400
T2C0.700
T3C0.813
T4C1.040
T5C1.300
T6C1.470
%
G90
G05
T1
X230.632Y-59.944
T2
X134.334Y-100.19
X142.015Y-101.544
X64.33Y-99.524
X72.011Y-100.878
X118.447Y-80.583
X126.128Y-81.938
X334.709Y-84.185
X342.391Y-82.831
X302.241Y-119.459
X309.923Y-118.105
X98.124Y-86.139
X78.083Y-121.293
X70.402Y-119.938
X158.242Y-129.396
X164.997Y-133.296
X94.816Y-104.899
X102.497Y-106.254
X72.328Y-81.59
X80.009Y-82.945
X261.412Y-107.314
X269.093Y-105.96
X276.43Y-82.784
X284.112Y-81.429
X292.317Y-63.177
X299.999Y-61.823
X239.778Y-94.324
X247.459Y-92.969
X243.086Y-113.084
X250.767Y-111.73
X322.565Y-125.014
X354.433Y-100.051
X362.114Y-98.697
X109.113Y-68.732
X341.325Y-121.706
X349.007Y-120.352
X365.195Y-78.81
X372.877Y-77.455
X194.268Y-134.169
X198.168Y-127.414
X298.933Y-100.698
X306.615Y-99.344
X223.585Y-127.414
X227.485Y-134.169
X330.246Y-123.66
X319.257Y-106.254
X326.938Y-104.899
X111.831Y-118.105
X119.512Y-119.459
X101.432Y-67.378
X105.805Y-87.493
X283.046Y-120.305
X290.728Y-118.95
X315.949Y-87.493
X323.63Y-86.139
X121.755Y-61.823
X129.436Y-63.177
X159.276Y-68.439
X166.958Y-69.793
X258.104Y-88.554
X265.785Y-87.199
X170.987Y-111.73
X178.668Y-113.084
X236.47Y-75.563
X244.151Y-74.209
X174.295Y-92.969
X181.976Y-94.324
X254.796Y-69.793
X262.477Y-68.439
X312.641Y-68.732
X320.322Y-67.378
X137.642Y-81.429
X145.323Y-82.784
X279.738Y-101.544
X99.189Y-125.014
X354.852Y-61.289
X362.533Y-59.935
X287.42Y-100.19
X140.95Y-62.669
X148.631Y-64.023
X152.66Y-105.96
X77.981Y-63.243
X91.508Y-123.66
X160.342Y-107.314
X85.662Y-64.597
X177.603Y-74.209
X115.139Y-99.344
X131.026Y-118.95
X138.707Y-120.305
X331.401Y-65.424
X339.083Y-64.07
X122.82Y-100.698
X295.625Y-81.938
X303.307Y-80.583
X155.968Y-87.199
X163.65Y-88.554
X273.122Y-64.023
X280.804Y-62.669
X185.284Y-75.563
X256.757Y-133.296
X263.512Y-129.396
T3
X203.268Y-62.278
X203.268Y-64.818
X203.268Y-67.358
X203.268Y-69.898
X203.268Y-72.438
X203.268Y-74.978
X203.268Y-77.518
X203.268Y-80.058
X203.268Y-82.598
X203.268Y-85.138
X203.268Y-87.678
X203.268Y-90.218
X218.488Y-62.278
X218.488Y-64.818
X218.488Y-67.358
X218.488Y-69.898
X218.488Y-72.438
X218.488Y-74.978
X218.488Y-77.518
X218.488Y-80.058
X218.488Y-82.598
X218.488Y-85.138
X218.488Y-87.678
X218.488Y-90.218
T4
X104.573Y-64.708
X241.816Y-90.74
X244.318Y-90.299
X177.436Y-90.299
X179.937Y-90.74
X159.109Y-84.529
X161.611Y-84.97
X140.783Y-78.759
X107.074Y-65.149
X238.508Y-71.98
X241.01Y-71.539
X118.28Y-96.674
X120.782Y-97.115
X317.987Y-83.91
X320.489Y-83.469
X124.09Y-78.354
X97.957Y-102.229
X100.458Y-102.67
X124.896Y-59.153
X127.398Y-59.594
X158.303Y-103.731
X121.588Y-77.913
X114.972Y-115.434
X117.474Y-115.876
X162.417Y-65.769
X164.919Y-66.21
X162.107Y-127.962
X164.307Y-129.232
X356.891Y-57.706
X359.392Y-57.265
X314.679Y-65.149
X317.181Y-64.708
X155.801Y-103.29
X256.835Y-66.21
X259.336Y-65.769
X134.167Y-116.28
X137.475Y-97.52
X139.976Y-97.961
X324.603Y-121.431
X327.105Y-120.99
X259.647Y-127.962
X257.447Y-129.232
X136.668Y-116.721
X245.124Y-109.501
X247.626Y-109.06
X294.356Y-59.594
X263.451Y-103.731
X81.122Y-60.573
X83.624Y-61.014
X321.295Y-102.67
X323.797Y-102.229
X336.748Y-80.602
X296.857Y-59.153
X287.587Y-116.28
X67.471Y-96.854
X69.972Y-97.295
X339.249Y-80.161
X180.744Y-71.539
X265.952Y-103.29
X333.44Y-61.841
X285.085Y-116.721
X356.471Y-96.468
X358.973Y-96.027
X183.245Y-71.98
X275.161Y-60.44
X277.663Y-59.999
X278.469Y-79.2
X280.971Y-78.759
X335.941Y-61.4
X297.664Y-78.354
X300.165Y-77.913
X143.284Y-79.2
X260.143Y-84.97
X262.644Y-84.529
X304.28Y-115.876
X192.834Y-130.304
X194.104Y-128.104
X94.649Y-120.99
X97.15Y-121.431
X101.265Y-83.469
X103.766Y-83.91
X306.781Y-115.434
X144.091Y-59.999
X146.592Y-60.44
X73.543Y-117.268
X76.045Y-117.709
X300.972Y-97.115
X303.473Y-96.674
X281.777Y-97.961
X284.279Y-97.52
X367.234Y-75.226
X77.971Y-79.361
X369.735Y-74.785
X75.469Y-78.92
X343.364Y-118.123
X345.865Y-117.682
X174.128Y-109.06
X176.629Y-109.501
X227.65Y-128.104
X228.92Y-130.304
T5
X207.627Y-93.726
X214.127Y-93.726
T6
X157.931Y-76.584
X159.475Y-75.374
X141.148Y-69.604
X339.539Y-111.06
X340.576Y-109.394
X164.626Y-75.185
X139.605Y-70.814
X345.352Y-107.456
X345.413Y-108.034
X164.486Y-75.749
X364.446Y-66.498
X146.299Y-69.415
X363.409Y-68.163
X146.159Y-69.979
X369.222Y-64.559
X369.283Y-65.137
X184.355Y-126.829
X103.395Y-56.763
X104.938Y-55.552
X109.949Y-55.928
X110.089Y-55.364
X185.94Y-121.924
X186.422Y-122.249
X232.979Y-122.095
X234.898Y-122.499
X184.965Y-128.694
X172.95Y-101.115
X174.493Y-99.904
X179.504Y-100.28
X179.644Y-99.716
X237.831Y-126.579
X238.354Y-126.324
X234.684Y-64.917
X235.72Y-63.251
X93.471Y-113.044
X95.014Y-111.834
X100.025Y-112.21
X100.165Y-111.646
X240.496Y-61.313
X96.779Y-94.284
X103.473Y-92.885
X117.102Y-88.729
X118.646Y-87.518
X123.657Y-87.894
X123.797Y-87.33
X103.333Y-93.449
X240.557Y-61.891
X98.322Y-93.073
X154.623Y-95.345
X156.167Y-94.134
X161.178Y-94.51
X161.318Y-93.946
X100.087Y-75.523
X101.63Y-74.313
X106.641Y-74.689
X106.781Y-74.124
X123.718Y-51.207
X125.262Y-49.997
X130.273Y-50.373
X130.413Y-49.809
X163.717Y-120.093
X165.582Y-119.483
X170.162Y-121.55
X170.487Y-121.068
X253.01Y-59.147
X254.047Y-57.481
X167.934Y-56.425
X258.884Y-56.121
X120.41Y-69.968
X121.954Y-68.758
X126.965Y-69.133
X127.105Y-68.569
X353.066Y-50.643
X354.103Y-48.978
X358.878Y-47.039
X358.94Y-47.617
X310.855Y-58.086
X311.891Y-56.421
X316.667Y-54.482
X316.728Y-55.06
X258.823Y-55.542
X113.794Y-107.489
X115.338Y-106.279
X290.531Y-52.531
X314.163Y-76.846
X315.199Y-75.181
X319.975Y-73.242
X320.036Y-73.82
X136.297Y-89.575
X241.3Y-102.438
X247.112Y-98.834
X247.173Y-99.412
X320.779Y-114.368
X321.815Y-112.702
X326.591Y-110.764
X326.652Y-111.342
X79.944Y-52.628
X86.639Y-51.229
X242.336Y-100.772
X137.84Y-88.364
X142.851Y-88.74
X142.991Y-88.176
X120.349Y-106.655
X120.489Y-106.09
X161.239Y-57.823
X162.783Y-56.613
X167.794Y-56.989
X81.488Y-51.417
X86.498Y-51.793
X251.437Y-123.903
X251.842Y-121.983
X255.667Y-118.528
X255.922Y-119.05
X317.471Y-95.607
X318.507Y-93.942
X323.283Y-92.003
X323.344Y-92.581
X186.12Y-62.759
X332.923Y-73.538
X333.96Y-71.873
X338.736Y-69.934
X67.836Y-87.698
X179.566Y-63.593
X186.26Y-62.195
X72.847Y-88.074
X353.683Y-87.739
X66.293Y-88.908
X72.987Y-87.51
X338.797Y-70.512
X181.109Y-62.383
X352.647Y-89.405
X358.459Y-85.8
X358.521Y-86.379
X291.568Y-50.865
X296.344Y-48.926
X296.405Y-49.505
X329.615Y-54.778
X330.652Y-53.113
X335.428Y-51.174
X132.989Y-108.335
X134.532Y-107.125
X139.683Y-106.936
X335.489Y-51.752
X139.543Y-107.501
X182.952Y-80.955
X259.626Y-96.668
X260.663Y-95.002
X265.439Y-93.064
X265.5Y-93.642
X281.261Y-109.658
X282.297Y-107.993
X287.073Y-106.054
X271.337Y-53.377
X272.373Y-51.711
X277.149Y-49.772
X277.21Y-50.351
X256.318Y-77.907
X257.355Y-76.242
X262.131Y-74.303
X262.192Y-74.881
X287.134Y-106.632
X293.839Y-71.291
X294.876Y-69.626
X299.652Y-67.687
X299.713Y-68.265
X300.455Y-108.812
X301.492Y-107.147
X306.268Y-105.208
X306.329Y-105.786
X297.147Y-90.052
X274.645Y-72.137
X275.681Y-70.472
X298.184Y-88.386
X280.457Y-68.533
X302.96Y-86.448
X303.021Y-87.026
X280.518Y-69.111
X142.913Y-52.053
X144.456Y-50.843
X149.467Y-51.219
X149.607Y-50.655
X237.992Y-83.677
X239.028Y-82.012
X243.804Y-80.073
X243.865Y-80.651
X177.801Y-81.144
X72.365Y-109.323
X73.909Y-108.113
X78.92Y-108.488
X79.06Y-107.924
X277.953Y-90.898
X278.989Y-89.232
X283.765Y-87.294
X283.826Y-87.872
X176.258Y-82.354
X182.812Y-81.519
X74.291Y-70.975
X75.835Y-69.764
X80.845Y-70.14
X80.985Y-69.576
T0
M30
